G04 (created by PCBNEW (2013-07-07 BZR 4022)-stable) date 16/07/2014 12:48:06*
%MOIN*%
G04 Gerber Fmt 3.4, Leading zero omitted, Abs format*
%FSLAX34Y34*%
G01*
G70*
G90*
G04 APERTURE LIST*
%ADD10C,0.00590551*%
%ADD11C,0.011811*%
%ADD12C,0.075*%
%ADD13R,0.08X0.08*%
%ADD14C,0.08*%
%ADD15R,0.0984X0.0984*%
%ADD16C,0.0984*%
%ADD17C,0.035*%
%ADD18C,0.02*%
%ADD19C,0.01*%
G04 APERTURE END LIST*
G54D10*
G54D11*
X23096Y-35839D02*
X23096Y-35445D01*
X23096Y-35557D02*
X23068Y-35501D01*
X23040Y-35473D01*
X22983Y-35445D01*
X22927Y-35445D01*
X22505Y-35810D02*
X22562Y-35839D01*
X22674Y-35839D01*
X22730Y-35810D01*
X22758Y-35754D01*
X22758Y-35529D01*
X22730Y-35473D01*
X22674Y-35445D01*
X22562Y-35445D01*
X22505Y-35473D01*
X22477Y-35529D01*
X22477Y-35585D01*
X22758Y-35642D01*
X22224Y-35614D02*
X21774Y-35614D01*
X21493Y-35839D02*
X21493Y-35445D01*
X21493Y-35248D02*
X21521Y-35276D01*
X21493Y-35304D01*
X21465Y-35276D01*
X21493Y-35248D01*
X21493Y-35304D01*
X21212Y-35445D02*
X21212Y-35839D01*
X21212Y-35501D02*
X21184Y-35473D01*
X21127Y-35445D01*
X21043Y-35445D01*
X20987Y-35473D01*
X20959Y-35529D01*
X20959Y-35839D01*
X20677Y-35445D02*
X20677Y-35839D01*
X20677Y-35501D02*
X20649Y-35473D01*
X20593Y-35445D01*
X20509Y-35445D01*
X20452Y-35473D01*
X20424Y-35529D01*
X20424Y-35839D01*
X20059Y-35839D02*
X20115Y-35810D01*
X20143Y-35782D01*
X20171Y-35726D01*
X20171Y-35557D01*
X20143Y-35501D01*
X20115Y-35473D01*
X20059Y-35445D01*
X19974Y-35445D01*
X19918Y-35473D01*
X19890Y-35501D01*
X19862Y-35557D01*
X19862Y-35726D01*
X19890Y-35782D01*
X19918Y-35810D01*
X19974Y-35839D01*
X20059Y-35839D01*
X19665Y-35445D02*
X19524Y-35839D01*
X19384Y-35445D01*
X18906Y-35839D02*
X18906Y-35529D01*
X18934Y-35473D01*
X18990Y-35445D01*
X19103Y-35445D01*
X19159Y-35473D01*
X18906Y-35810D02*
X18962Y-35839D01*
X19103Y-35839D01*
X19159Y-35810D01*
X19187Y-35754D01*
X19187Y-35698D01*
X19159Y-35642D01*
X19103Y-35614D01*
X18962Y-35614D01*
X18906Y-35585D01*
X18709Y-35445D02*
X18484Y-35445D01*
X18625Y-35248D02*
X18625Y-35754D01*
X18596Y-35810D01*
X18540Y-35839D01*
X18484Y-35839D01*
X18287Y-35839D02*
X18287Y-35445D01*
X18287Y-35248D02*
X18315Y-35276D01*
X18287Y-35304D01*
X18259Y-35276D01*
X18287Y-35248D01*
X18287Y-35304D01*
X17921Y-35839D02*
X17978Y-35810D01*
X18006Y-35782D01*
X18034Y-35726D01*
X18034Y-35557D01*
X18006Y-35501D01*
X17978Y-35473D01*
X17921Y-35445D01*
X17837Y-35445D01*
X17781Y-35473D01*
X17753Y-35501D01*
X17725Y-35557D01*
X17725Y-35726D01*
X17753Y-35782D01*
X17781Y-35810D01*
X17837Y-35839D01*
X17921Y-35839D01*
X17472Y-35445D02*
X17472Y-35839D01*
X17472Y-35501D02*
X17443Y-35473D01*
X17387Y-35445D01*
X17303Y-35445D01*
X17247Y-35473D01*
X17218Y-35529D01*
X17218Y-35839D01*
X16937Y-35782D02*
X16909Y-35810D01*
X16937Y-35839D01*
X16965Y-35810D01*
X16937Y-35782D01*
X16937Y-35839D01*
X16403Y-35810D02*
X16459Y-35839D01*
X16572Y-35839D01*
X16628Y-35810D01*
X16656Y-35782D01*
X16684Y-35726D01*
X16684Y-35557D01*
X16656Y-35501D01*
X16628Y-35473D01*
X16572Y-35445D01*
X16459Y-35445D01*
X16403Y-35473D01*
X16065Y-35839D02*
X16122Y-35810D01*
X16150Y-35782D01*
X16178Y-35726D01*
X16178Y-35557D01*
X16150Y-35501D01*
X16122Y-35473D01*
X16065Y-35445D01*
X15981Y-35445D01*
X15925Y-35473D01*
X15897Y-35501D01*
X15869Y-35557D01*
X15869Y-35726D01*
X15897Y-35782D01*
X15925Y-35810D01*
X15981Y-35839D01*
X16065Y-35839D01*
X15616Y-35782D02*
X15587Y-35810D01*
X15616Y-35839D01*
X15644Y-35810D01*
X15616Y-35782D01*
X15616Y-35839D01*
X15081Y-35445D02*
X15081Y-35839D01*
X15334Y-35445D02*
X15334Y-35754D01*
X15306Y-35810D01*
X15250Y-35839D01*
X15166Y-35839D01*
X15109Y-35810D01*
X15081Y-35782D01*
X14800Y-35839D02*
X14800Y-35248D01*
X14744Y-35614D02*
X14575Y-35839D01*
X14575Y-35445D02*
X14800Y-35670D01*
X23246Y-26739D02*
X23246Y-26345D01*
X23246Y-26457D02*
X23218Y-26401D01*
X23190Y-26373D01*
X23133Y-26345D01*
X23077Y-26345D01*
X22655Y-26710D02*
X22712Y-26739D01*
X22824Y-26739D01*
X22880Y-26710D01*
X22908Y-26654D01*
X22908Y-26429D01*
X22880Y-26373D01*
X22824Y-26345D01*
X22712Y-26345D01*
X22655Y-26373D01*
X22627Y-26429D01*
X22627Y-26485D01*
X22908Y-26542D01*
X22374Y-26514D02*
X21924Y-26514D01*
X21643Y-26739D02*
X21643Y-26345D01*
X21643Y-26148D02*
X21671Y-26176D01*
X21643Y-26204D01*
X21615Y-26176D01*
X21643Y-26148D01*
X21643Y-26204D01*
X21362Y-26345D02*
X21362Y-26739D01*
X21362Y-26401D02*
X21334Y-26373D01*
X21277Y-26345D01*
X21193Y-26345D01*
X21137Y-26373D01*
X21109Y-26429D01*
X21109Y-26739D01*
X20827Y-26345D02*
X20827Y-26739D01*
X20827Y-26401D02*
X20799Y-26373D01*
X20743Y-26345D01*
X20659Y-26345D01*
X20602Y-26373D01*
X20574Y-26429D01*
X20574Y-26739D01*
X20209Y-26739D02*
X20265Y-26710D01*
X20293Y-26682D01*
X20321Y-26626D01*
X20321Y-26457D01*
X20293Y-26401D01*
X20265Y-26373D01*
X20209Y-26345D01*
X20124Y-26345D01*
X20068Y-26373D01*
X20040Y-26401D01*
X20012Y-26457D01*
X20012Y-26626D01*
X20040Y-26682D01*
X20068Y-26710D01*
X20124Y-26739D01*
X20209Y-26739D01*
X19815Y-26345D02*
X19674Y-26739D01*
X19534Y-26345D01*
X19056Y-26739D02*
X19056Y-26429D01*
X19084Y-26373D01*
X19140Y-26345D01*
X19253Y-26345D01*
X19309Y-26373D01*
X19056Y-26710D02*
X19112Y-26739D01*
X19253Y-26739D01*
X19309Y-26710D01*
X19337Y-26654D01*
X19337Y-26598D01*
X19309Y-26542D01*
X19253Y-26514D01*
X19112Y-26514D01*
X19056Y-26485D01*
X18859Y-26345D02*
X18634Y-26345D01*
X18775Y-26148D02*
X18775Y-26654D01*
X18746Y-26710D01*
X18690Y-26739D01*
X18634Y-26739D01*
X18437Y-26739D02*
X18437Y-26345D01*
X18437Y-26148D02*
X18465Y-26176D01*
X18437Y-26204D01*
X18409Y-26176D01*
X18437Y-26148D01*
X18437Y-26204D01*
X18071Y-26739D02*
X18128Y-26710D01*
X18156Y-26682D01*
X18184Y-26626D01*
X18184Y-26457D01*
X18156Y-26401D01*
X18128Y-26373D01*
X18071Y-26345D01*
X17987Y-26345D01*
X17931Y-26373D01*
X17903Y-26401D01*
X17875Y-26457D01*
X17875Y-26626D01*
X17903Y-26682D01*
X17931Y-26710D01*
X17987Y-26739D01*
X18071Y-26739D01*
X17622Y-26345D02*
X17622Y-26739D01*
X17622Y-26401D02*
X17593Y-26373D01*
X17537Y-26345D01*
X17453Y-26345D01*
X17397Y-26373D01*
X17368Y-26429D01*
X17368Y-26739D01*
X17087Y-26682D02*
X17059Y-26710D01*
X17087Y-26739D01*
X17115Y-26710D01*
X17087Y-26682D01*
X17087Y-26739D01*
X16553Y-26710D02*
X16609Y-26739D01*
X16722Y-26739D01*
X16778Y-26710D01*
X16806Y-26682D01*
X16834Y-26626D01*
X16834Y-26457D01*
X16806Y-26401D01*
X16778Y-26373D01*
X16722Y-26345D01*
X16609Y-26345D01*
X16553Y-26373D01*
X16215Y-26739D02*
X16272Y-26710D01*
X16300Y-26682D01*
X16328Y-26626D01*
X16328Y-26457D01*
X16300Y-26401D01*
X16272Y-26373D01*
X16215Y-26345D01*
X16131Y-26345D01*
X16075Y-26373D01*
X16047Y-26401D01*
X16019Y-26457D01*
X16019Y-26626D01*
X16047Y-26682D01*
X16075Y-26710D01*
X16131Y-26739D01*
X16215Y-26739D01*
X15766Y-26682D02*
X15737Y-26710D01*
X15766Y-26739D01*
X15794Y-26710D01*
X15766Y-26682D01*
X15766Y-26739D01*
X15231Y-26345D02*
X15231Y-26739D01*
X15484Y-26345D02*
X15484Y-26654D01*
X15456Y-26710D01*
X15400Y-26739D01*
X15316Y-26739D01*
X15259Y-26710D01*
X15231Y-26682D01*
X14950Y-26739D02*
X14950Y-26148D01*
X14894Y-26514D02*
X14725Y-26739D01*
X14725Y-26345D02*
X14950Y-26570D01*
G54D12*
X23750Y-31250D03*
X23750Y-33250D03*
X15750Y-29750D03*
X17750Y-29750D03*
X17750Y-34750D03*
X15750Y-34750D03*
X15750Y-32250D03*
X17750Y-32250D03*
G54D13*
X21250Y-32000D03*
G54D14*
X22250Y-32000D03*
G54D13*
X21250Y-34750D03*
G54D14*
X22250Y-34750D03*
X19750Y-29750D03*
X22750Y-29750D03*
X13500Y-32500D03*
X13500Y-35500D03*
X14750Y-33500D03*
X17750Y-33500D03*
X14750Y-31000D03*
X17750Y-31000D03*
G54D15*
X11000Y-33000D03*
G54D16*
X11000Y-31000D03*
G54D13*
X25250Y-31250D03*
G54D14*
X25250Y-32250D03*
X25250Y-33250D03*
G54D13*
X25250Y-22000D03*
G54D14*
X25250Y-23000D03*
X25250Y-24000D03*
G54D15*
X11000Y-23750D03*
G54D16*
X11000Y-21750D03*
G54D14*
X14750Y-21750D03*
X17750Y-21750D03*
X14750Y-24250D03*
X17750Y-24250D03*
X13500Y-23250D03*
X13500Y-26250D03*
X19750Y-20500D03*
X22750Y-20500D03*
G54D13*
X21250Y-25500D03*
G54D14*
X22250Y-25500D03*
G54D13*
X21250Y-22750D03*
G54D14*
X22250Y-22750D03*
G54D12*
X15750Y-23000D03*
X17750Y-23000D03*
X17750Y-25500D03*
X15750Y-25500D03*
X15750Y-20500D03*
X17750Y-20500D03*
X23750Y-22000D03*
X23750Y-24000D03*
G54D17*
X19250Y-33750D03*
X19250Y-24500D03*
G54D18*
X15750Y-33500D02*
X15000Y-32750D01*
X15000Y-32750D02*
X15000Y-32000D01*
X15000Y-32000D02*
X15750Y-31250D01*
X15750Y-31250D02*
X15750Y-29750D01*
X15750Y-34750D02*
X15750Y-33500D01*
X13500Y-35250D02*
X14000Y-34750D01*
X14000Y-34750D02*
X15750Y-34750D01*
X13500Y-35500D02*
X13500Y-35250D01*
X23750Y-33250D02*
X25250Y-33250D01*
X22250Y-33250D02*
X22250Y-32000D01*
X22250Y-33750D02*
X22250Y-33250D01*
X22250Y-34750D02*
X22250Y-33750D01*
X23750Y-33250D02*
X22250Y-33250D01*
X19250Y-33750D02*
X22250Y-33750D01*
X19250Y-24500D02*
X22250Y-24500D01*
X23750Y-24000D02*
X22250Y-24000D01*
X22250Y-25500D02*
X22250Y-24500D01*
X22250Y-24500D02*
X22250Y-24000D01*
X22250Y-24000D02*
X22250Y-22750D01*
X23750Y-24000D02*
X25250Y-24000D01*
X13500Y-26250D02*
X13500Y-26000D01*
X14000Y-25500D02*
X15750Y-25500D01*
X13500Y-26000D02*
X14000Y-25500D01*
X15750Y-25500D02*
X15750Y-24250D01*
X15750Y-22000D02*
X15750Y-20500D01*
X15000Y-22750D02*
X15750Y-22000D01*
X15000Y-23500D02*
X15000Y-22750D01*
X15750Y-24250D02*
X15000Y-23500D01*
X21250Y-31250D02*
X22750Y-29750D01*
X21250Y-32000D02*
X21250Y-31250D01*
X23500Y-32250D02*
X22750Y-31500D01*
X22750Y-31500D02*
X22750Y-29750D01*
X25250Y-32250D02*
X23500Y-32250D01*
X25250Y-23000D02*
X23500Y-23000D01*
X22750Y-22250D02*
X22750Y-20500D01*
X23500Y-23000D02*
X22750Y-22250D01*
X21250Y-22750D02*
X21250Y-22000D01*
X21250Y-22000D02*
X22750Y-20500D01*
X11000Y-31000D02*
X14750Y-31000D01*
X11000Y-21750D02*
X14750Y-21750D01*
G54D19*
X14250Y-33000D02*
X14750Y-33500D01*
G54D18*
X14250Y-33000D02*
X14750Y-33500D01*
X13500Y-33000D02*
X14250Y-33000D01*
X11000Y-33000D02*
X13500Y-33000D01*
X13500Y-32500D02*
X13500Y-33000D01*
X13500Y-23250D02*
X13500Y-23750D01*
X11000Y-23750D02*
X13500Y-23750D01*
X13500Y-23750D02*
X14250Y-23750D01*
X14250Y-23750D02*
X14750Y-24250D01*
G54D19*
X14250Y-23750D02*
X14750Y-24250D01*
G54D18*
X17750Y-33500D02*
X17750Y-32250D01*
X17750Y-34750D02*
X17750Y-33500D01*
X17750Y-25500D02*
X17750Y-24250D01*
X17750Y-24250D02*
X17750Y-23000D01*
X16500Y-32250D02*
X17750Y-31000D01*
X15750Y-32250D02*
X16500Y-32250D01*
X17750Y-31000D02*
X17750Y-29750D01*
X17750Y-21750D02*
X17750Y-20500D01*
X15750Y-23000D02*
X16500Y-23000D01*
X16500Y-23000D02*
X17750Y-21750D01*
X25250Y-31250D02*
X23750Y-31250D01*
X25250Y-22000D02*
X23750Y-22000D01*
G54D10*
G36*
X27730Y-36730D02*
X25904Y-36730D01*
X25904Y-33355D01*
X25904Y-24105D01*
X25900Y-23991D01*
X25900Y-22871D01*
X25801Y-22632D01*
X25784Y-22615D01*
X25791Y-22612D01*
X25861Y-22541D01*
X25899Y-22449D01*
X25900Y-22350D01*
X25900Y-21550D01*
X25862Y-21458D01*
X25791Y-21388D01*
X25699Y-21350D01*
X25600Y-21349D01*
X24800Y-21349D01*
X24708Y-21387D01*
X24638Y-21458D01*
X24600Y-21550D01*
X24599Y-21649D01*
X24599Y-21650D01*
X24281Y-21650D01*
X24280Y-21646D01*
X24104Y-21470D01*
X23874Y-21375D01*
X23626Y-21374D01*
X23396Y-21469D01*
X23220Y-21645D01*
X23125Y-21875D01*
X23124Y-22123D01*
X23129Y-22134D01*
X23100Y-22105D01*
X23100Y-21058D01*
X23117Y-21051D01*
X23300Y-20868D01*
X23399Y-20629D01*
X23400Y-20371D01*
X23301Y-20132D01*
X23118Y-19949D01*
X22879Y-19850D01*
X22621Y-19849D01*
X22382Y-19948D01*
X22199Y-20131D01*
X22100Y-20370D01*
X22099Y-20628D01*
X22107Y-20647D01*
X21002Y-21752D01*
X20926Y-21866D01*
X20900Y-22000D01*
X20900Y-22099D01*
X20800Y-22099D01*
X20708Y-22137D01*
X20638Y-22208D01*
X20600Y-22300D01*
X20599Y-22399D01*
X20599Y-23199D01*
X20637Y-23291D01*
X20708Y-23361D01*
X20800Y-23399D01*
X20899Y-23400D01*
X21699Y-23400D01*
X21791Y-23362D01*
X21861Y-23291D01*
X21878Y-23251D01*
X21902Y-23314D01*
X22144Y-23404D01*
X22402Y-23394D01*
X22597Y-23314D01*
X22637Y-23208D01*
X22250Y-22820D01*
X22244Y-22826D01*
X22173Y-22755D01*
X22179Y-22750D01*
X22173Y-22744D01*
X22244Y-22673D01*
X22250Y-22679D01*
X22255Y-22673D01*
X22326Y-22744D01*
X22320Y-22750D01*
X22708Y-23137D01*
X22814Y-23097D01*
X22892Y-22887D01*
X23252Y-23247D01*
X23252Y-23247D01*
X23366Y-23323D01*
X23499Y-23350D01*
X23499Y-23349D01*
X23500Y-23350D01*
X24691Y-23350D01*
X24698Y-23367D01*
X24865Y-23534D01*
X24862Y-23541D01*
X25250Y-23929D01*
X25637Y-23541D01*
X25634Y-23534D01*
X25800Y-23368D01*
X25899Y-23129D01*
X25900Y-22871D01*
X25900Y-23991D01*
X25894Y-23847D01*
X25814Y-23652D01*
X25708Y-23612D01*
X25320Y-24000D01*
X25708Y-24387D01*
X25814Y-24347D01*
X25904Y-24105D01*
X25904Y-33355D01*
X25900Y-33241D01*
X25900Y-32121D01*
X25801Y-31882D01*
X25784Y-31865D01*
X25791Y-31862D01*
X25861Y-31791D01*
X25899Y-31699D01*
X25900Y-31600D01*
X25900Y-30800D01*
X25862Y-30708D01*
X25791Y-30638D01*
X25699Y-30600D01*
X25637Y-30599D01*
X25637Y-24458D01*
X25250Y-24070D01*
X25179Y-24141D01*
X25179Y-24000D01*
X24791Y-23612D01*
X24685Y-23652D01*
X24595Y-23894D01*
X24605Y-24152D01*
X24685Y-24347D01*
X24791Y-24387D01*
X25179Y-24000D01*
X25179Y-24141D01*
X24862Y-24458D01*
X24902Y-24564D01*
X25144Y-24654D01*
X25402Y-24644D01*
X25597Y-24564D01*
X25637Y-24458D01*
X25637Y-30599D01*
X25600Y-30599D01*
X24800Y-30599D01*
X24708Y-30637D01*
X24638Y-30708D01*
X24600Y-30800D01*
X24599Y-30899D01*
X24599Y-30900D01*
X24379Y-30900D01*
X24379Y-24099D01*
X24369Y-23851D01*
X24293Y-23667D01*
X24190Y-23630D01*
X24119Y-23701D01*
X24119Y-23559D01*
X24082Y-23456D01*
X23849Y-23370D01*
X23601Y-23380D01*
X23417Y-23456D01*
X23380Y-23559D01*
X23750Y-23929D01*
X24119Y-23559D01*
X24119Y-23701D01*
X23820Y-24000D01*
X24190Y-24369D01*
X24293Y-24332D01*
X24379Y-24099D01*
X24379Y-30900D01*
X24281Y-30900D01*
X24280Y-30896D01*
X24119Y-30735D01*
X24119Y-24440D01*
X23750Y-24070D01*
X23679Y-24141D01*
X23679Y-24000D01*
X23309Y-23630D01*
X23206Y-23667D01*
X23120Y-23900D01*
X23130Y-24148D01*
X23206Y-24332D01*
X23309Y-24369D01*
X23679Y-24000D01*
X23679Y-24141D01*
X23380Y-24440D01*
X23417Y-24543D01*
X23650Y-24629D01*
X23898Y-24619D01*
X24082Y-24543D01*
X24119Y-24440D01*
X24119Y-30735D01*
X24104Y-30720D01*
X23874Y-30625D01*
X23696Y-30624D01*
X23696Y-27222D01*
X23696Y-25659D01*
X22884Y-25659D01*
X22904Y-25605D01*
X22894Y-25347D01*
X22814Y-25152D01*
X22708Y-25112D01*
X22320Y-25500D01*
X22326Y-25505D01*
X22255Y-25576D01*
X22250Y-25570D01*
X22244Y-25576D01*
X22173Y-25505D01*
X22179Y-25500D01*
X22173Y-25494D01*
X22244Y-25423D01*
X22250Y-25429D01*
X22637Y-25041D01*
X22597Y-24935D01*
X22355Y-24845D01*
X22097Y-24855D01*
X21902Y-24935D01*
X21878Y-24998D01*
X21862Y-24958D01*
X21791Y-24888D01*
X21699Y-24850D01*
X21600Y-24849D01*
X20800Y-24849D01*
X20708Y-24887D01*
X20638Y-24958D01*
X20600Y-25050D01*
X20599Y-25149D01*
X20599Y-25659D01*
X20400Y-25659D01*
X20400Y-20371D01*
X20301Y-20132D01*
X20118Y-19949D01*
X19879Y-19850D01*
X19621Y-19849D01*
X19382Y-19948D01*
X19199Y-20131D01*
X19100Y-20370D01*
X19099Y-20628D01*
X19198Y-20867D01*
X19381Y-21050D01*
X19620Y-21149D01*
X19878Y-21150D01*
X20117Y-21051D01*
X20300Y-20868D01*
X20399Y-20629D01*
X20400Y-20371D01*
X20400Y-25659D01*
X18360Y-25659D01*
X18374Y-25624D01*
X18375Y-25376D01*
X18280Y-25146D01*
X18104Y-24970D01*
X18100Y-24968D01*
X18100Y-24808D01*
X18117Y-24801D01*
X18300Y-24618D01*
X18399Y-24379D01*
X18400Y-24121D01*
X18301Y-23882D01*
X18118Y-23699D01*
X18100Y-23691D01*
X18100Y-23531D01*
X18103Y-23530D01*
X18279Y-23354D01*
X18374Y-23124D01*
X18375Y-22876D01*
X18280Y-22646D01*
X18104Y-22470D01*
X17906Y-22388D01*
X18117Y-22301D01*
X18300Y-22118D01*
X18399Y-21879D01*
X18400Y-21621D01*
X18301Y-21382D01*
X18118Y-21199D01*
X18100Y-21191D01*
X18100Y-21031D01*
X18103Y-21030D01*
X18279Y-20854D01*
X18374Y-20624D01*
X18375Y-20376D01*
X18280Y-20146D01*
X18104Y-19970D01*
X17874Y-19875D01*
X17626Y-19874D01*
X17396Y-19969D01*
X17220Y-20145D01*
X17125Y-20375D01*
X17124Y-20623D01*
X17219Y-20853D01*
X17395Y-21029D01*
X17400Y-21031D01*
X17400Y-21191D01*
X17382Y-21198D01*
X17199Y-21381D01*
X17100Y-21620D01*
X17099Y-21878D01*
X17107Y-21897D01*
X16379Y-22625D01*
X16379Y-20599D01*
X16369Y-20351D01*
X16293Y-20167D01*
X16190Y-20130D01*
X16119Y-20201D01*
X16119Y-20059D01*
X16082Y-19956D01*
X15849Y-19870D01*
X15601Y-19880D01*
X15417Y-19956D01*
X15380Y-20059D01*
X15750Y-20429D01*
X16119Y-20059D01*
X16119Y-20201D01*
X15820Y-20500D01*
X16190Y-20869D01*
X16293Y-20832D01*
X16379Y-20599D01*
X16379Y-22625D01*
X16355Y-22650D01*
X16281Y-22650D01*
X16280Y-22646D01*
X16119Y-22485D01*
X16119Y-20940D01*
X15750Y-20570D01*
X15679Y-20641D01*
X15679Y-20500D01*
X15309Y-20130D01*
X15206Y-20167D01*
X15120Y-20400D01*
X15130Y-20648D01*
X15206Y-20832D01*
X15309Y-20869D01*
X15679Y-20500D01*
X15679Y-20641D01*
X15380Y-20940D01*
X15417Y-21043D01*
X15650Y-21129D01*
X15898Y-21119D01*
X16082Y-21043D01*
X16119Y-20940D01*
X16119Y-22485D01*
X16104Y-22470D01*
X15874Y-22375D01*
X15626Y-22374D01*
X15400Y-22468D01*
X15400Y-21621D01*
X15301Y-21382D01*
X15118Y-21199D01*
X14879Y-21100D01*
X14621Y-21099D01*
X14382Y-21198D01*
X14199Y-21381D01*
X14191Y-21400D01*
X11658Y-21400D01*
X11629Y-21330D01*
X11420Y-21121D01*
X11148Y-21008D01*
X10853Y-21007D01*
X10580Y-21120D01*
X10371Y-21329D01*
X10258Y-21601D01*
X10257Y-21896D01*
X10370Y-22169D01*
X10579Y-22378D01*
X10851Y-22491D01*
X11146Y-22492D01*
X11419Y-22379D01*
X11628Y-22170D01*
X11658Y-22100D01*
X14191Y-22100D01*
X14198Y-22117D01*
X14381Y-22300D01*
X14620Y-22399D01*
X14878Y-22400D01*
X15117Y-22301D01*
X15300Y-22118D01*
X15399Y-21879D01*
X15400Y-21621D01*
X15400Y-22468D01*
X15396Y-22469D01*
X15220Y-22645D01*
X15125Y-22875D01*
X15124Y-23123D01*
X15219Y-23353D01*
X15395Y-23529D01*
X15625Y-23624D01*
X15873Y-23625D01*
X16103Y-23530D01*
X16279Y-23354D01*
X16281Y-23350D01*
X16500Y-23350D01*
X16633Y-23323D01*
X16633Y-23323D01*
X16747Y-23247D01*
X17128Y-22866D01*
X17125Y-22875D01*
X17124Y-23123D01*
X17219Y-23353D01*
X17395Y-23529D01*
X17400Y-23531D01*
X17400Y-23691D01*
X17382Y-23698D01*
X17199Y-23881D01*
X17100Y-24120D01*
X17099Y-24378D01*
X17198Y-24617D01*
X17381Y-24800D01*
X17400Y-24808D01*
X17400Y-24968D01*
X17396Y-24969D01*
X17220Y-25145D01*
X17125Y-25375D01*
X17124Y-25623D01*
X17139Y-25659D01*
X16357Y-25659D01*
X16379Y-25599D01*
X16369Y-25351D01*
X16293Y-25167D01*
X16190Y-25130D01*
X16119Y-25201D01*
X16119Y-25059D01*
X16082Y-24956D01*
X15849Y-24870D01*
X15601Y-24880D01*
X15417Y-24956D01*
X15400Y-25004D01*
X15400Y-24121D01*
X15301Y-23882D01*
X15118Y-23699D01*
X14879Y-23600D01*
X14621Y-23599D01*
X14602Y-23607D01*
X14497Y-23502D01*
X14383Y-23426D01*
X14250Y-23400D01*
X14141Y-23400D01*
X14149Y-23379D01*
X14150Y-23121D01*
X14051Y-22882D01*
X13868Y-22699D01*
X13629Y-22600D01*
X13371Y-22599D01*
X13132Y-22698D01*
X12949Y-22881D01*
X12850Y-23120D01*
X12849Y-23378D01*
X12858Y-23400D01*
X11742Y-23400D01*
X11742Y-23208D01*
X11704Y-23116D01*
X11633Y-23046D01*
X11541Y-23008D01*
X11442Y-23007D01*
X10458Y-23007D01*
X10366Y-23045D01*
X10296Y-23116D01*
X10258Y-23208D01*
X10257Y-23307D01*
X10257Y-24291D01*
X10295Y-24383D01*
X10366Y-24453D01*
X10458Y-24491D01*
X10557Y-24492D01*
X11541Y-24492D01*
X11633Y-24454D01*
X11703Y-24383D01*
X11741Y-24291D01*
X11742Y-24192D01*
X11742Y-24100D01*
X13500Y-24100D01*
X14105Y-24100D01*
X14107Y-24102D01*
X14100Y-24120D01*
X14099Y-24378D01*
X14198Y-24617D01*
X14381Y-24800D01*
X14620Y-24899D01*
X14878Y-24900D01*
X15117Y-24801D01*
X15300Y-24618D01*
X15399Y-24379D01*
X15400Y-24121D01*
X15400Y-25004D01*
X15380Y-25059D01*
X15750Y-25429D01*
X16119Y-25059D01*
X16119Y-25201D01*
X15820Y-25500D01*
X15826Y-25505D01*
X15755Y-25576D01*
X15750Y-25570D01*
X15744Y-25576D01*
X15673Y-25505D01*
X15679Y-25500D01*
X15309Y-25130D01*
X15206Y-25167D01*
X15120Y-25400D01*
X15130Y-25648D01*
X15134Y-25659D01*
X14303Y-25659D01*
X14303Y-27222D01*
X23696Y-27222D01*
X23696Y-30624D01*
X23626Y-30624D01*
X23396Y-30719D01*
X23220Y-30895D01*
X23125Y-31125D01*
X23124Y-31373D01*
X23129Y-31384D01*
X23100Y-31355D01*
X23100Y-30308D01*
X23117Y-30301D01*
X23300Y-30118D01*
X23399Y-29879D01*
X23400Y-29621D01*
X23301Y-29382D01*
X23118Y-29199D01*
X22879Y-29100D01*
X22621Y-29099D01*
X22382Y-29198D01*
X22199Y-29381D01*
X22100Y-29620D01*
X22099Y-29878D01*
X22107Y-29897D01*
X21002Y-31002D01*
X20926Y-31116D01*
X20900Y-31250D01*
X20900Y-31349D01*
X20800Y-31349D01*
X20708Y-31387D01*
X20638Y-31458D01*
X20600Y-31550D01*
X20599Y-31649D01*
X20599Y-32449D01*
X20637Y-32541D01*
X20708Y-32611D01*
X20800Y-32649D01*
X20899Y-32650D01*
X21699Y-32650D01*
X21791Y-32612D01*
X21861Y-32541D01*
X21878Y-32501D01*
X21902Y-32564D01*
X22144Y-32654D01*
X22402Y-32644D01*
X22597Y-32564D01*
X22637Y-32458D01*
X22250Y-32070D01*
X22244Y-32076D01*
X22173Y-32005D01*
X22179Y-32000D01*
X22173Y-31994D01*
X22244Y-31923D01*
X22250Y-31929D01*
X22255Y-31923D01*
X22326Y-31994D01*
X22320Y-32000D01*
X22708Y-32387D01*
X22814Y-32347D01*
X22892Y-32137D01*
X23252Y-32497D01*
X23252Y-32497D01*
X23366Y-32573D01*
X23499Y-32600D01*
X23499Y-32599D01*
X23500Y-32600D01*
X24691Y-32600D01*
X24698Y-32617D01*
X24865Y-32784D01*
X24862Y-32791D01*
X25250Y-33179D01*
X25637Y-32791D01*
X25634Y-32784D01*
X25800Y-32618D01*
X25899Y-32379D01*
X25900Y-32121D01*
X25900Y-33241D01*
X25894Y-33097D01*
X25814Y-32902D01*
X25708Y-32862D01*
X25320Y-33250D01*
X25708Y-33637D01*
X25814Y-33597D01*
X25904Y-33355D01*
X25904Y-36730D01*
X25637Y-36730D01*
X25637Y-33708D01*
X25250Y-33320D01*
X25179Y-33391D01*
X25179Y-33250D01*
X24791Y-32862D01*
X24685Y-32902D01*
X24595Y-33144D01*
X24605Y-33402D01*
X24685Y-33597D01*
X24791Y-33637D01*
X25179Y-33250D01*
X25179Y-33391D01*
X24862Y-33708D01*
X24902Y-33814D01*
X25144Y-33904D01*
X25402Y-33894D01*
X25597Y-33814D01*
X25637Y-33708D01*
X25637Y-36730D01*
X24379Y-36730D01*
X24379Y-33349D01*
X24369Y-33101D01*
X24293Y-32917D01*
X24190Y-32880D01*
X24119Y-32951D01*
X24119Y-32809D01*
X24082Y-32706D01*
X23849Y-32620D01*
X23601Y-32630D01*
X23417Y-32706D01*
X23380Y-32809D01*
X23750Y-33179D01*
X24119Y-32809D01*
X24119Y-32951D01*
X23820Y-33250D01*
X24190Y-33619D01*
X24293Y-33582D01*
X24379Y-33349D01*
X24379Y-36730D01*
X24119Y-36730D01*
X24119Y-33690D01*
X23750Y-33320D01*
X23679Y-33391D01*
X23679Y-33250D01*
X23309Y-32880D01*
X23206Y-32917D01*
X23120Y-33150D01*
X23130Y-33398D01*
X23206Y-33582D01*
X23309Y-33619D01*
X23679Y-33250D01*
X23679Y-33391D01*
X23380Y-33690D01*
X23417Y-33793D01*
X23650Y-33879D01*
X23898Y-33869D01*
X24082Y-33793D01*
X24119Y-33690D01*
X24119Y-36730D01*
X23546Y-36730D01*
X23546Y-36322D01*
X23546Y-34759D01*
X22900Y-34759D01*
X22894Y-34597D01*
X22814Y-34402D01*
X22708Y-34362D01*
X22320Y-34750D01*
X22326Y-34755D01*
X22322Y-34759D01*
X22177Y-34759D01*
X22173Y-34755D01*
X22179Y-34750D01*
X22173Y-34744D01*
X22244Y-34673D01*
X22250Y-34679D01*
X22637Y-34291D01*
X22597Y-34185D01*
X22355Y-34095D01*
X22097Y-34105D01*
X21902Y-34185D01*
X21878Y-34248D01*
X21862Y-34208D01*
X21791Y-34138D01*
X21699Y-34100D01*
X21600Y-34099D01*
X20800Y-34099D01*
X20708Y-34137D01*
X20638Y-34208D01*
X20600Y-34300D01*
X20599Y-34399D01*
X20599Y-34759D01*
X20400Y-34759D01*
X20400Y-29621D01*
X20301Y-29382D01*
X20118Y-29199D01*
X19879Y-29100D01*
X19621Y-29099D01*
X19382Y-29198D01*
X19199Y-29381D01*
X19100Y-29620D01*
X19099Y-29878D01*
X19198Y-30117D01*
X19381Y-30300D01*
X19620Y-30399D01*
X19878Y-30400D01*
X20117Y-30301D01*
X20300Y-30118D01*
X20399Y-29879D01*
X20400Y-29621D01*
X20400Y-34759D01*
X18374Y-34759D01*
X18375Y-34626D01*
X18280Y-34396D01*
X18104Y-34220D01*
X18100Y-34218D01*
X18100Y-34058D01*
X18117Y-34051D01*
X18300Y-33868D01*
X18399Y-33629D01*
X18400Y-33371D01*
X18301Y-33132D01*
X18118Y-32949D01*
X18100Y-32941D01*
X18100Y-32781D01*
X18103Y-32780D01*
X18279Y-32604D01*
X18374Y-32374D01*
X18375Y-32126D01*
X18280Y-31896D01*
X18104Y-31720D01*
X17906Y-31638D01*
X18117Y-31551D01*
X18300Y-31368D01*
X18399Y-31129D01*
X18400Y-30871D01*
X18301Y-30632D01*
X18118Y-30449D01*
X18100Y-30441D01*
X18100Y-30281D01*
X18103Y-30280D01*
X18279Y-30104D01*
X18374Y-29874D01*
X18375Y-29626D01*
X18280Y-29396D01*
X18104Y-29220D01*
X17874Y-29125D01*
X17626Y-29124D01*
X17396Y-29219D01*
X17220Y-29395D01*
X17125Y-29625D01*
X17124Y-29873D01*
X17219Y-30103D01*
X17395Y-30279D01*
X17400Y-30281D01*
X17400Y-30441D01*
X17382Y-30448D01*
X17199Y-30631D01*
X17100Y-30870D01*
X17099Y-31128D01*
X17107Y-31147D01*
X16379Y-31875D01*
X16379Y-29849D01*
X16369Y-29601D01*
X16293Y-29417D01*
X16190Y-29380D01*
X16119Y-29451D01*
X16119Y-29309D01*
X16082Y-29206D01*
X15849Y-29120D01*
X15601Y-29130D01*
X15417Y-29206D01*
X15380Y-29309D01*
X15750Y-29679D01*
X16119Y-29309D01*
X16119Y-29451D01*
X15820Y-29750D01*
X16190Y-30119D01*
X16293Y-30082D01*
X16379Y-29849D01*
X16379Y-31875D01*
X16355Y-31900D01*
X16281Y-31900D01*
X16280Y-31896D01*
X16119Y-31735D01*
X16119Y-30190D01*
X15750Y-29820D01*
X15679Y-29891D01*
X15679Y-29750D01*
X15309Y-29380D01*
X15206Y-29417D01*
X15120Y-29650D01*
X15130Y-29898D01*
X15206Y-30082D01*
X15309Y-30119D01*
X15679Y-29750D01*
X15679Y-29891D01*
X15380Y-30190D01*
X15417Y-30293D01*
X15650Y-30379D01*
X15898Y-30369D01*
X16082Y-30293D01*
X16119Y-30190D01*
X16119Y-31735D01*
X16104Y-31720D01*
X15874Y-31625D01*
X15626Y-31624D01*
X15400Y-31718D01*
X15400Y-30871D01*
X15301Y-30632D01*
X15118Y-30449D01*
X14879Y-30350D01*
X14621Y-30349D01*
X14382Y-30448D01*
X14199Y-30631D01*
X14191Y-30650D01*
X14154Y-30650D01*
X14154Y-26355D01*
X14144Y-26097D01*
X14064Y-25902D01*
X13958Y-25862D01*
X13887Y-25933D01*
X13887Y-25791D01*
X13847Y-25685D01*
X13605Y-25595D01*
X13347Y-25605D01*
X13152Y-25685D01*
X13112Y-25791D01*
X13500Y-26179D01*
X13887Y-25791D01*
X13887Y-25933D01*
X13570Y-26250D01*
X13958Y-26637D01*
X14064Y-26597D01*
X14154Y-26355D01*
X14154Y-30650D01*
X13887Y-30650D01*
X13887Y-26708D01*
X13500Y-26320D01*
X13429Y-26391D01*
X13429Y-26250D01*
X13041Y-25862D01*
X12935Y-25902D01*
X12845Y-26144D01*
X12855Y-26402D01*
X12935Y-26597D01*
X13041Y-26637D01*
X13429Y-26250D01*
X13429Y-26391D01*
X13112Y-26708D01*
X13152Y-26814D01*
X13394Y-26904D01*
X13652Y-26894D01*
X13847Y-26814D01*
X13887Y-26708D01*
X13887Y-30650D01*
X11658Y-30650D01*
X11629Y-30580D01*
X11420Y-30371D01*
X11148Y-30258D01*
X10853Y-30257D01*
X10580Y-30370D01*
X10371Y-30579D01*
X10258Y-30851D01*
X10257Y-31146D01*
X10370Y-31419D01*
X10579Y-31628D01*
X10851Y-31741D01*
X11146Y-31742D01*
X11419Y-31629D01*
X11628Y-31420D01*
X11658Y-31350D01*
X14191Y-31350D01*
X14198Y-31367D01*
X14381Y-31550D01*
X14620Y-31649D01*
X14878Y-31650D01*
X15117Y-31551D01*
X15300Y-31368D01*
X15399Y-31129D01*
X15400Y-30871D01*
X15400Y-31718D01*
X15396Y-31719D01*
X15220Y-31895D01*
X15125Y-32125D01*
X15124Y-32373D01*
X15219Y-32603D01*
X15395Y-32779D01*
X15625Y-32874D01*
X15873Y-32875D01*
X16103Y-32780D01*
X16279Y-32604D01*
X16281Y-32600D01*
X16500Y-32600D01*
X16633Y-32573D01*
X16633Y-32573D01*
X16747Y-32497D01*
X17128Y-32116D01*
X17125Y-32125D01*
X17124Y-32373D01*
X17219Y-32603D01*
X17395Y-32779D01*
X17400Y-32781D01*
X17400Y-32941D01*
X17382Y-32948D01*
X17199Y-33131D01*
X17100Y-33370D01*
X17099Y-33628D01*
X17198Y-33867D01*
X17381Y-34050D01*
X17400Y-34058D01*
X17400Y-34218D01*
X17396Y-34219D01*
X17220Y-34395D01*
X17125Y-34625D01*
X17124Y-34759D01*
X16375Y-34759D01*
X16369Y-34601D01*
X16293Y-34417D01*
X16190Y-34380D01*
X16119Y-34451D01*
X16119Y-34309D01*
X16082Y-34206D01*
X15849Y-34120D01*
X15601Y-34130D01*
X15417Y-34206D01*
X15400Y-34254D01*
X15400Y-33371D01*
X15301Y-33132D01*
X15118Y-32949D01*
X14879Y-32850D01*
X14621Y-32849D01*
X14602Y-32857D01*
X14497Y-32752D01*
X14383Y-32676D01*
X14250Y-32650D01*
X14141Y-32650D01*
X14149Y-32629D01*
X14150Y-32371D01*
X14051Y-32132D01*
X13868Y-31949D01*
X13629Y-31850D01*
X13371Y-31849D01*
X13132Y-31948D01*
X12949Y-32131D01*
X12850Y-32370D01*
X12849Y-32628D01*
X12858Y-32650D01*
X11742Y-32650D01*
X11742Y-32458D01*
X11704Y-32366D01*
X11633Y-32296D01*
X11541Y-32258D01*
X11442Y-32257D01*
X10458Y-32257D01*
X10366Y-32295D01*
X10296Y-32366D01*
X10258Y-32458D01*
X10257Y-32557D01*
X10257Y-33541D01*
X10295Y-33633D01*
X10366Y-33703D01*
X10458Y-33741D01*
X10557Y-33742D01*
X11541Y-33742D01*
X11633Y-33704D01*
X11703Y-33633D01*
X11741Y-33541D01*
X11742Y-33442D01*
X11742Y-33350D01*
X13500Y-33350D01*
X14105Y-33350D01*
X14107Y-33352D01*
X14100Y-33370D01*
X14099Y-33628D01*
X14198Y-33867D01*
X14381Y-34050D01*
X14620Y-34149D01*
X14878Y-34150D01*
X15117Y-34051D01*
X15300Y-33868D01*
X15399Y-33629D01*
X15400Y-33371D01*
X15400Y-34254D01*
X15380Y-34309D01*
X15750Y-34679D01*
X16119Y-34309D01*
X16119Y-34451D01*
X15820Y-34750D01*
X15826Y-34755D01*
X15822Y-34759D01*
X15677Y-34759D01*
X15673Y-34755D01*
X15679Y-34750D01*
X15309Y-34380D01*
X15206Y-34417D01*
X15120Y-34650D01*
X15124Y-34759D01*
X14153Y-34759D01*
X14153Y-35598D01*
X14144Y-35347D01*
X14064Y-35152D01*
X13958Y-35112D01*
X13887Y-35183D01*
X13887Y-35041D01*
X13847Y-34935D01*
X13605Y-34845D01*
X13347Y-34855D01*
X13152Y-34935D01*
X13112Y-35041D01*
X13500Y-35429D01*
X13887Y-35041D01*
X13887Y-35183D01*
X13570Y-35500D01*
X13958Y-35887D01*
X14064Y-35847D01*
X14153Y-35606D01*
X14153Y-36322D01*
X23546Y-36322D01*
X23546Y-36730D01*
X13887Y-36730D01*
X13887Y-35958D01*
X13500Y-35570D01*
X13429Y-35641D01*
X13429Y-35500D01*
X13041Y-35112D01*
X12935Y-35152D01*
X12845Y-35394D01*
X12855Y-35652D01*
X12935Y-35847D01*
X13041Y-35887D01*
X13429Y-35500D01*
X13429Y-35641D01*
X13112Y-35958D01*
X13152Y-36064D01*
X13394Y-36154D01*
X13652Y-36144D01*
X13847Y-36064D01*
X13887Y-35958D01*
X13887Y-36730D01*
X9269Y-36730D01*
X9269Y-36250D01*
X9269Y-18769D01*
X27730Y-18769D01*
X27730Y-36200D01*
X27730Y-36250D01*
X27730Y-36730D01*
X27730Y-36730D01*
G37*
G54D19*
X27730Y-36730D02*
X25904Y-36730D01*
X25904Y-33355D01*
X25904Y-24105D01*
X25900Y-23991D01*
X25900Y-22871D01*
X25801Y-22632D01*
X25784Y-22615D01*
X25791Y-22612D01*
X25861Y-22541D01*
X25899Y-22449D01*
X25900Y-22350D01*
X25900Y-21550D01*
X25862Y-21458D01*
X25791Y-21388D01*
X25699Y-21350D01*
X25600Y-21349D01*
X24800Y-21349D01*
X24708Y-21387D01*
X24638Y-21458D01*
X24600Y-21550D01*
X24599Y-21649D01*
X24599Y-21650D01*
X24281Y-21650D01*
X24280Y-21646D01*
X24104Y-21470D01*
X23874Y-21375D01*
X23626Y-21374D01*
X23396Y-21469D01*
X23220Y-21645D01*
X23125Y-21875D01*
X23124Y-22123D01*
X23129Y-22134D01*
X23100Y-22105D01*
X23100Y-21058D01*
X23117Y-21051D01*
X23300Y-20868D01*
X23399Y-20629D01*
X23400Y-20371D01*
X23301Y-20132D01*
X23118Y-19949D01*
X22879Y-19850D01*
X22621Y-19849D01*
X22382Y-19948D01*
X22199Y-20131D01*
X22100Y-20370D01*
X22099Y-20628D01*
X22107Y-20647D01*
X21002Y-21752D01*
X20926Y-21866D01*
X20900Y-22000D01*
X20900Y-22099D01*
X20800Y-22099D01*
X20708Y-22137D01*
X20638Y-22208D01*
X20600Y-22300D01*
X20599Y-22399D01*
X20599Y-23199D01*
X20637Y-23291D01*
X20708Y-23361D01*
X20800Y-23399D01*
X20899Y-23400D01*
X21699Y-23400D01*
X21791Y-23362D01*
X21861Y-23291D01*
X21878Y-23251D01*
X21902Y-23314D01*
X22144Y-23404D01*
X22402Y-23394D01*
X22597Y-23314D01*
X22637Y-23208D01*
X22250Y-22820D01*
X22244Y-22826D01*
X22173Y-22755D01*
X22179Y-22750D01*
X22173Y-22744D01*
X22244Y-22673D01*
X22250Y-22679D01*
X22255Y-22673D01*
X22326Y-22744D01*
X22320Y-22750D01*
X22708Y-23137D01*
X22814Y-23097D01*
X22892Y-22887D01*
X23252Y-23247D01*
X23252Y-23247D01*
X23366Y-23323D01*
X23499Y-23350D01*
X23499Y-23349D01*
X23500Y-23350D01*
X24691Y-23350D01*
X24698Y-23367D01*
X24865Y-23534D01*
X24862Y-23541D01*
X25250Y-23929D01*
X25637Y-23541D01*
X25634Y-23534D01*
X25800Y-23368D01*
X25899Y-23129D01*
X25900Y-22871D01*
X25900Y-23991D01*
X25894Y-23847D01*
X25814Y-23652D01*
X25708Y-23612D01*
X25320Y-24000D01*
X25708Y-24387D01*
X25814Y-24347D01*
X25904Y-24105D01*
X25904Y-33355D01*
X25900Y-33241D01*
X25900Y-32121D01*
X25801Y-31882D01*
X25784Y-31865D01*
X25791Y-31862D01*
X25861Y-31791D01*
X25899Y-31699D01*
X25900Y-31600D01*
X25900Y-30800D01*
X25862Y-30708D01*
X25791Y-30638D01*
X25699Y-30600D01*
X25637Y-30599D01*
X25637Y-24458D01*
X25250Y-24070D01*
X25179Y-24141D01*
X25179Y-24000D01*
X24791Y-23612D01*
X24685Y-23652D01*
X24595Y-23894D01*
X24605Y-24152D01*
X24685Y-24347D01*
X24791Y-24387D01*
X25179Y-24000D01*
X25179Y-24141D01*
X24862Y-24458D01*
X24902Y-24564D01*
X25144Y-24654D01*
X25402Y-24644D01*
X25597Y-24564D01*
X25637Y-24458D01*
X25637Y-30599D01*
X25600Y-30599D01*
X24800Y-30599D01*
X24708Y-30637D01*
X24638Y-30708D01*
X24600Y-30800D01*
X24599Y-30899D01*
X24599Y-30900D01*
X24379Y-30900D01*
X24379Y-24099D01*
X24369Y-23851D01*
X24293Y-23667D01*
X24190Y-23630D01*
X24119Y-23701D01*
X24119Y-23559D01*
X24082Y-23456D01*
X23849Y-23370D01*
X23601Y-23380D01*
X23417Y-23456D01*
X23380Y-23559D01*
X23750Y-23929D01*
X24119Y-23559D01*
X24119Y-23701D01*
X23820Y-24000D01*
X24190Y-24369D01*
X24293Y-24332D01*
X24379Y-24099D01*
X24379Y-30900D01*
X24281Y-30900D01*
X24280Y-30896D01*
X24119Y-30735D01*
X24119Y-24440D01*
X23750Y-24070D01*
X23679Y-24141D01*
X23679Y-24000D01*
X23309Y-23630D01*
X23206Y-23667D01*
X23120Y-23900D01*
X23130Y-24148D01*
X23206Y-24332D01*
X23309Y-24369D01*
X23679Y-24000D01*
X23679Y-24141D01*
X23380Y-24440D01*
X23417Y-24543D01*
X23650Y-24629D01*
X23898Y-24619D01*
X24082Y-24543D01*
X24119Y-24440D01*
X24119Y-30735D01*
X24104Y-30720D01*
X23874Y-30625D01*
X23696Y-30624D01*
X23696Y-27222D01*
X23696Y-25659D01*
X22884Y-25659D01*
X22904Y-25605D01*
X22894Y-25347D01*
X22814Y-25152D01*
X22708Y-25112D01*
X22320Y-25500D01*
X22326Y-25505D01*
X22255Y-25576D01*
X22250Y-25570D01*
X22244Y-25576D01*
X22173Y-25505D01*
X22179Y-25500D01*
X22173Y-25494D01*
X22244Y-25423D01*
X22250Y-25429D01*
X22637Y-25041D01*
X22597Y-24935D01*
X22355Y-24845D01*
X22097Y-24855D01*
X21902Y-24935D01*
X21878Y-24998D01*
X21862Y-24958D01*
X21791Y-24888D01*
X21699Y-24850D01*
X21600Y-24849D01*
X20800Y-24849D01*
X20708Y-24887D01*
X20638Y-24958D01*
X20600Y-25050D01*
X20599Y-25149D01*
X20599Y-25659D01*
X20400Y-25659D01*
X20400Y-20371D01*
X20301Y-20132D01*
X20118Y-19949D01*
X19879Y-19850D01*
X19621Y-19849D01*
X19382Y-19948D01*
X19199Y-20131D01*
X19100Y-20370D01*
X19099Y-20628D01*
X19198Y-20867D01*
X19381Y-21050D01*
X19620Y-21149D01*
X19878Y-21150D01*
X20117Y-21051D01*
X20300Y-20868D01*
X20399Y-20629D01*
X20400Y-20371D01*
X20400Y-25659D01*
X18360Y-25659D01*
X18374Y-25624D01*
X18375Y-25376D01*
X18280Y-25146D01*
X18104Y-24970D01*
X18100Y-24968D01*
X18100Y-24808D01*
X18117Y-24801D01*
X18300Y-24618D01*
X18399Y-24379D01*
X18400Y-24121D01*
X18301Y-23882D01*
X18118Y-23699D01*
X18100Y-23691D01*
X18100Y-23531D01*
X18103Y-23530D01*
X18279Y-23354D01*
X18374Y-23124D01*
X18375Y-22876D01*
X18280Y-22646D01*
X18104Y-22470D01*
X17906Y-22388D01*
X18117Y-22301D01*
X18300Y-22118D01*
X18399Y-21879D01*
X18400Y-21621D01*
X18301Y-21382D01*
X18118Y-21199D01*
X18100Y-21191D01*
X18100Y-21031D01*
X18103Y-21030D01*
X18279Y-20854D01*
X18374Y-20624D01*
X18375Y-20376D01*
X18280Y-20146D01*
X18104Y-19970D01*
X17874Y-19875D01*
X17626Y-19874D01*
X17396Y-19969D01*
X17220Y-20145D01*
X17125Y-20375D01*
X17124Y-20623D01*
X17219Y-20853D01*
X17395Y-21029D01*
X17400Y-21031D01*
X17400Y-21191D01*
X17382Y-21198D01*
X17199Y-21381D01*
X17100Y-21620D01*
X17099Y-21878D01*
X17107Y-21897D01*
X16379Y-22625D01*
X16379Y-20599D01*
X16369Y-20351D01*
X16293Y-20167D01*
X16190Y-20130D01*
X16119Y-20201D01*
X16119Y-20059D01*
X16082Y-19956D01*
X15849Y-19870D01*
X15601Y-19880D01*
X15417Y-19956D01*
X15380Y-20059D01*
X15750Y-20429D01*
X16119Y-20059D01*
X16119Y-20201D01*
X15820Y-20500D01*
X16190Y-20869D01*
X16293Y-20832D01*
X16379Y-20599D01*
X16379Y-22625D01*
X16355Y-22650D01*
X16281Y-22650D01*
X16280Y-22646D01*
X16119Y-22485D01*
X16119Y-20940D01*
X15750Y-20570D01*
X15679Y-20641D01*
X15679Y-20500D01*
X15309Y-20130D01*
X15206Y-20167D01*
X15120Y-20400D01*
X15130Y-20648D01*
X15206Y-20832D01*
X15309Y-20869D01*
X15679Y-20500D01*
X15679Y-20641D01*
X15380Y-20940D01*
X15417Y-21043D01*
X15650Y-21129D01*
X15898Y-21119D01*
X16082Y-21043D01*
X16119Y-20940D01*
X16119Y-22485D01*
X16104Y-22470D01*
X15874Y-22375D01*
X15626Y-22374D01*
X15400Y-22468D01*
X15400Y-21621D01*
X15301Y-21382D01*
X15118Y-21199D01*
X14879Y-21100D01*
X14621Y-21099D01*
X14382Y-21198D01*
X14199Y-21381D01*
X14191Y-21400D01*
X11658Y-21400D01*
X11629Y-21330D01*
X11420Y-21121D01*
X11148Y-21008D01*
X10853Y-21007D01*
X10580Y-21120D01*
X10371Y-21329D01*
X10258Y-21601D01*
X10257Y-21896D01*
X10370Y-22169D01*
X10579Y-22378D01*
X10851Y-22491D01*
X11146Y-22492D01*
X11419Y-22379D01*
X11628Y-22170D01*
X11658Y-22100D01*
X14191Y-22100D01*
X14198Y-22117D01*
X14381Y-22300D01*
X14620Y-22399D01*
X14878Y-22400D01*
X15117Y-22301D01*
X15300Y-22118D01*
X15399Y-21879D01*
X15400Y-21621D01*
X15400Y-22468D01*
X15396Y-22469D01*
X15220Y-22645D01*
X15125Y-22875D01*
X15124Y-23123D01*
X15219Y-23353D01*
X15395Y-23529D01*
X15625Y-23624D01*
X15873Y-23625D01*
X16103Y-23530D01*
X16279Y-23354D01*
X16281Y-23350D01*
X16500Y-23350D01*
X16633Y-23323D01*
X16633Y-23323D01*
X16747Y-23247D01*
X17128Y-22866D01*
X17125Y-22875D01*
X17124Y-23123D01*
X17219Y-23353D01*
X17395Y-23529D01*
X17400Y-23531D01*
X17400Y-23691D01*
X17382Y-23698D01*
X17199Y-23881D01*
X17100Y-24120D01*
X17099Y-24378D01*
X17198Y-24617D01*
X17381Y-24800D01*
X17400Y-24808D01*
X17400Y-24968D01*
X17396Y-24969D01*
X17220Y-25145D01*
X17125Y-25375D01*
X17124Y-25623D01*
X17139Y-25659D01*
X16357Y-25659D01*
X16379Y-25599D01*
X16369Y-25351D01*
X16293Y-25167D01*
X16190Y-25130D01*
X16119Y-25201D01*
X16119Y-25059D01*
X16082Y-24956D01*
X15849Y-24870D01*
X15601Y-24880D01*
X15417Y-24956D01*
X15400Y-25004D01*
X15400Y-24121D01*
X15301Y-23882D01*
X15118Y-23699D01*
X14879Y-23600D01*
X14621Y-23599D01*
X14602Y-23607D01*
X14497Y-23502D01*
X14383Y-23426D01*
X14250Y-23400D01*
X14141Y-23400D01*
X14149Y-23379D01*
X14150Y-23121D01*
X14051Y-22882D01*
X13868Y-22699D01*
X13629Y-22600D01*
X13371Y-22599D01*
X13132Y-22698D01*
X12949Y-22881D01*
X12850Y-23120D01*
X12849Y-23378D01*
X12858Y-23400D01*
X11742Y-23400D01*
X11742Y-23208D01*
X11704Y-23116D01*
X11633Y-23046D01*
X11541Y-23008D01*
X11442Y-23007D01*
X10458Y-23007D01*
X10366Y-23045D01*
X10296Y-23116D01*
X10258Y-23208D01*
X10257Y-23307D01*
X10257Y-24291D01*
X10295Y-24383D01*
X10366Y-24453D01*
X10458Y-24491D01*
X10557Y-24492D01*
X11541Y-24492D01*
X11633Y-24454D01*
X11703Y-24383D01*
X11741Y-24291D01*
X11742Y-24192D01*
X11742Y-24100D01*
X13500Y-24100D01*
X14105Y-24100D01*
X14107Y-24102D01*
X14100Y-24120D01*
X14099Y-24378D01*
X14198Y-24617D01*
X14381Y-24800D01*
X14620Y-24899D01*
X14878Y-24900D01*
X15117Y-24801D01*
X15300Y-24618D01*
X15399Y-24379D01*
X15400Y-24121D01*
X15400Y-25004D01*
X15380Y-25059D01*
X15750Y-25429D01*
X16119Y-25059D01*
X16119Y-25201D01*
X15820Y-25500D01*
X15826Y-25505D01*
X15755Y-25576D01*
X15750Y-25570D01*
X15744Y-25576D01*
X15673Y-25505D01*
X15679Y-25500D01*
X15309Y-25130D01*
X15206Y-25167D01*
X15120Y-25400D01*
X15130Y-25648D01*
X15134Y-25659D01*
X14303Y-25659D01*
X14303Y-27222D01*
X23696Y-27222D01*
X23696Y-30624D01*
X23626Y-30624D01*
X23396Y-30719D01*
X23220Y-30895D01*
X23125Y-31125D01*
X23124Y-31373D01*
X23129Y-31384D01*
X23100Y-31355D01*
X23100Y-30308D01*
X23117Y-30301D01*
X23300Y-30118D01*
X23399Y-29879D01*
X23400Y-29621D01*
X23301Y-29382D01*
X23118Y-29199D01*
X22879Y-29100D01*
X22621Y-29099D01*
X22382Y-29198D01*
X22199Y-29381D01*
X22100Y-29620D01*
X22099Y-29878D01*
X22107Y-29897D01*
X21002Y-31002D01*
X20926Y-31116D01*
X20900Y-31250D01*
X20900Y-31349D01*
X20800Y-31349D01*
X20708Y-31387D01*
X20638Y-31458D01*
X20600Y-31550D01*
X20599Y-31649D01*
X20599Y-32449D01*
X20637Y-32541D01*
X20708Y-32611D01*
X20800Y-32649D01*
X20899Y-32650D01*
X21699Y-32650D01*
X21791Y-32612D01*
X21861Y-32541D01*
X21878Y-32501D01*
X21902Y-32564D01*
X22144Y-32654D01*
X22402Y-32644D01*
X22597Y-32564D01*
X22637Y-32458D01*
X22250Y-32070D01*
X22244Y-32076D01*
X22173Y-32005D01*
X22179Y-32000D01*
X22173Y-31994D01*
X22244Y-31923D01*
X22250Y-31929D01*
X22255Y-31923D01*
X22326Y-31994D01*
X22320Y-32000D01*
X22708Y-32387D01*
X22814Y-32347D01*
X22892Y-32137D01*
X23252Y-32497D01*
X23252Y-32497D01*
X23366Y-32573D01*
X23499Y-32600D01*
X23499Y-32599D01*
X23500Y-32600D01*
X24691Y-32600D01*
X24698Y-32617D01*
X24865Y-32784D01*
X24862Y-32791D01*
X25250Y-33179D01*
X25637Y-32791D01*
X25634Y-32784D01*
X25800Y-32618D01*
X25899Y-32379D01*
X25900Y-32121D01*
X25900Y-33241D01*
X25894Y-33097D01*
X25814Y-32902D01*
X25708Y-32862D01*
X25320Y-33250D01*
X25708Y-33637D01*
X25814Y-33597D01*
X25904Y-33355D01*
X25904Y-36730D01*
X25637Y-36730D01*
X25637Y-33708D01*
X25250Y-33320D01*
X25179Y-33391D01*
X25179Y-33250D01*
X24791Y-32862D01*
X24685Y-32902D01*
X24595Y-33144D01*
X24605Y-33402D01*
X24685Y-33597D01*
X24791Y-33637D01*
X25179Y-33250D01*
X25179Y-33391D01*
X24862Y-33708D01*
X24902Y-33814D01*
X25144Y-33904D01*
X25402Y-33894D01*
X25597Y-33814D01*
X25637Y-33708D01*
X25637Y-36730D01*
X24379Y-36730D01*
X24379Y-33349D01*
X24369Y-33101D01*
X24293Y-32917D01*
X24190Y-32880D01*
X24119Y-32951D01*
X24119Y-32809D01*
X24082Y-32706D01*
X23849Y-32620D01*
X23601Y-32630D01*
X23417Y-32706D01*
X23380Y-32809D01*
X23750Y-33179D01*
X24119Y-32809D01*
X24119Y-32951D01*
X23820Y-33250D01*
X24190Y-33619D01*
X24293Y-33582D01*
X24379Y-33349D01*
X24379Y-36730D01*
X24119Y-36730D01*
X24119Y-33690D01*
X23750Y-33320D01*
X23679Y-33391D01*
X23679Y-33250D01*
X23309Y-32880D01*
X23206Y-32917D01*
X23120Y-33150D01*
X23130Y-33398D01*
X23206Y-33582D01*
X23309Y-33619D01*
X23679Y-33250D01*
X23679Y-33391D01*
X23380Y-33690D01*
X23417Y-33793D01*
X23650Y-33879D01*
X23898Y-33869D01*
X24082Y-33793D01*
X24119Y-33690D01*
X24119Y-36730D01*
X23546Y-36730D01*
X23546Y-36322D01*
X23546Y-34759D01*
X22900Y-34759D01*
X22894Y-34597D01*
X22814Y-34402D01*
X22708Y-34362D01*
X22320Y-34750D01*
X22326Y-34755D01*
X22322Y-34759D01*
X22177Y-34759D01*
X22173Y-34755D01*
X22179Y-34750D01*
X22173Y-34744D01*
X22244Y-34673D01*
X22250Y-34679D01*
X22637Y-34291D01*
X22597Y-34185D01*
X22355Y-34095D01*
X22097Y-34105D01*
X21902Y-34185D01*
X21878Y-34248D01*
X21862Y-34208D01*
X21791Y-34138D01*
X21699Y-34100D01*
X21600Y-34099D01*
X20800Y-34099D01*
X20708Y-34137D01*
X20638Y-34208D01*
X20600Y-34300D01*
X20599Y-34399D01*
X20599Y-34759D01*
X20400Y-34759D01*
X20400Y-29621D01*
X20301Y-29382D01*
X20118Y-29199D01*
X19879Y-29100D01*
X19621Y-29099D01*
X19382Y-29198D01*
X19199Y-29381D01*
X19100Y-29620D01*
X19099Y-29878D01*
X19198Y-30117D01*
X19381Y-30300D01*
X19620Y-30399D01*
X19878Y-30400D01*
X20117Y-30301D01*
X20300Y-30118D01*
X20399Y-29879D01*
X20400Y-29621D01*
X20400Y-34759D01*
X18374Y-34759D01*
X18375Y-34626D01*
X18280Y-34396D01*
X18104Y-34220D01*
X18100Y-34218D01*
X18100Y-34058D01*
X18117Y-34051D01*
X18300Y-33868D01*
X18399Y-33629D01*
X18400Y-33371D01*
X18301Y-33132D01*
X18118Y-32949D01*
X18100Y-32941D01*
X18100Y-32781D01*
X18103Y-32780D01*
X18279Y-32604D01*
X18374Y-32374D01*
X18375Y-32126D01*
X18280Y-31896D01*
X18104Y-31720D01*
X17906Y-31638D01*
X18117Y-31551D01*
X18300Y-31368D01*
X18399Y-31129D01*
X18400Y-30871D01*
X18301Y-30632D01*
X18118Y-30449D01*
X18100Y-30441D01*
X18100Y-30281D01*
X18103Y-30280D01*
X18279Y-30104D01*
X18374Y-29874D01*
X18375Y-29626D01*
X18280Y-29396D01*
X18104Y-29220D01*
X17874Y-29125D01*
X17626Y-29124D01*
X17396Y-29219D01*
X17220Y-29395D01*
X17125Y-29625D01*
X17124Y-29873D01*
X17219Y-30103D01*
X17395Y-30279D01*
X17400Y-30281D01*
X17400Y-30441D01*
X17382Y-30448D01*
X17199Y-30631D01*
X17100Y-30870D01*
X17099Y-31128D01*
X17107Y-31147D01*
X16379Y-31875D01*
X16379Y-29849D01*
X16369Y-29601D01*
X16293Y-29417D01*
X16190Y-29380D01*
X16119Y-29451D01*
X16119Y-29309D01*
X16082Y-29206D01*
X15849Y-29120D01*
X15601Y-29130D01*
X15417Y-29206D01*
X15380Y-29309D01*
X15750Y-29679D01*
X16119Y-29309D01*
X16119Y-29451D01*
X15820Y-29750D01*
X16190Y-30119D01*
X16293Y-30082D01*
X16379Y-29849D01*
X16379Y-31875D01*
X16355Y-31900D01*
X16281Y-31900D01*
X16280Y-31896D01*
X16119Y-31735D01*
X16119Y-30190D01*
X15750Y-29820D01*
X15679Y-29891D01*
X15679Y-29750D01*
X15309Y-29380D01*
X15206Y-29417D01*
X15120Y-29650D01*
X15130Y-29898D01*
X15206Y-30082D01*
X15309Y-30119D01*
X15679Y-29750D01*
X15679Y-29891D01*
X15380Y-30190D01*
X15417Y-30293D01*
X15650Y-30379D01*
X15898Y-30369D01*
X16082Y-30293D01*
X16119Y-30190D01*
X16119Y-31735D01*
X16104Y-31720D01*
X15874Y-31625D01*
X15626Y-31624D01*
X15400Y-31718D01*
X15400Y-30871D01*
X15301Y-30632D01*
X15118Y-30449D01*
X14879Y-30350D01*
X14621Y-30349D01*
X14382Y-30448D01*
X14199Y-30631D01*
X14191Y-30650D01*
X14154Y-30650D01*
X14154Y-26355D01*
X14144Y-26097D01*
X14064Y-25902D01*
X13958Y-25862D01*
X13887Y-25933D01*
X13887Y-25791D01*
X13847Y-25685D01*
X13605Y-25595D01*
X13347Y-25605D01*
X13152Y-25685D01*
X13112Y-25791D01*
X13500Y-26179D01*
X13887Y-25791D01*
X13887Y-25933D01*
X13570Y-26250D01*
X13958Y-26637D01*
X14064Y-26597D01*
X14154Y-26355D01*
X14154Y-30650D01*
X13887Y-30650D01*
X13887Y-26708D01*
X13500Y-26320D01*
X13429Y-26391D01*
X13429Y-26250D01*
X13041Y-25862D01*
X12935Y-25902D01*
X12845Y-26144D01*
X12855Y-26402D01*
X12935Y-26597D01*
X13041Y-26637D01*
X13429Y-26250D01*
X13429Y-26391D01*
X13112Y-26708D01*
X13152Y-26814D01*
X13394Y-26904D01*
X13652Y-26894D01*
X13847Y-26814D01*
X13887Y-26708D01*
X13887Y-30650D01*
X11658Y-30650D01*
X11629Y-30580D01*
X11420Y-30371D01*
X11148Y-30258D01*
X10853Y-30257D01*
X10580Y-30370D01*
X10371Y-30579D01*
X10258Y-30851D01*
X10257Y-31146D01*
X10370Y-31419D01*
X10579Y-31628D01*
X10851Y-31741D01*
X11146Y-31742D01*
X11419Y-31629D01*
X11628Y-31420D01*
X11658Y-31350D01*
X14191Y-31350D01*
X14198Y-31367D01*
X14381Y-31550D01*
X14620Y-31649D01*
X14878Y-31650D01*
X15117Y-31551D01*
X15300Y-31368D01*
X15399Y-31129D01*
X15400Y-30871D01*
X15400Y-31718D01*
X15396Y-31719D01*
X15220Y-31895D01*
X15125Y-32125D01*
X15124Y-32373D01*
X15219Y-32603D01*
X15395Y-32779D01*
X15625Y-32874D01*
X15873Y-32875D01*
X16103Y-32780D01*
X16279Y-32604D01*
X16281Y-32600D01*
X16500Y-32600D01*
X16633Y-32573D01*
X16633Y-32573D01*
X16747Y-32497D01*
X17128Y-32116D01*
X17125Y-32125D01*
X17124Y-32373D01*
X17219Y-32603D01*
X17395Y-32779D01*
X17400Y-32781D01*
X17400Y-32941D01*
X17382Y-32948D01*
X17199Y-33131D01*
X17100Y-33370D01*
X17099Y-33628D01*
X17198Y-33867D01*
X17381Y-34050D01*
X17400Y-34058D01*
X17400Y-34218D01*
X17396Y-34219D01*
X17220Y-34395D01*
X17125Y-34625D01*
X17124Y-34759D01*
X16375Y-34759D01*
X16369Y-34601D01*
X16293Y-34417D01*
X16190Y-34380D01*
X16119Y-34451D01*
X16119Y-34309D01*
X16082Y-34206D01*
X15849Y-34120D01*
X15601Y-34130D01*
X15417Y-34206D01*
X15400Y-34254D01*
X15400Y-33371D01*
X15301Y-33132D01*
X15118Y-32949D01*
X14879Y-32850D01*
X14621Y-32849D01*
X14602Y-32857D01*
X14497Y-32752D01*
X14383Y-32676D01*
X14250Y-32650D01*
X14141Y-32650D01*
X14149Y-32629D01*
X14150Y-32371D01*
X14051Y-32132D01*
X13868Y-31949D01*
X13629Y-31850D01*
X13371Y-31849D01*
X13132Y-31948D01*
X12949Y-32131D01*
X12850Y-32370D01*
X12849Y-32628D01*
X12858Y-32650D01*
X11742Y-32650D01*
X11742Y-32458D01*
X11704Y-32366D01*
X11633Y-32296D01*
X11541Y-32258D01*
X11442Y-32257D01*
X10458Y-32257D01*
X10366Y-32295D01*
X10296Y-32366D01*
X10258Y-32458D01*
X10257Y-32557D01*
X10257Y-33541D01*
X10295Y-33633D01*
X10366Y-33703D01*
X10458Y-33741D01*
X10557Y-33742D01*
X11541Y-33742D01*
X11633Y-33704D01*
X11703Y-33633D01*
X11741Y-33541D01*
X11742Y-33442D01*
X11742Y-33350D01*
X13500Y-33350D01*
X14105Y-33350D01*
X14107Y-33352D01*
X14100Y-33370D01*
X14099Y-33628D01*
X14198Y-33867D01*
X14381Y-34050D01*
X14620Y-34149D01*
X14878Y-34150D01*
X15117Y-34051D01*
X15300Y-33868D01*
X15399Y-33629D01*
X15400Y-33371D01*
X15400Y-34254D01*
X15380Y-34309D01*
X15750Y-34679D01*
X16119Y-34309D01*
X16119Y-34451D01*
X15820Y-34750D01*
X15826Y-34755D01*
X15822Y-34759D01*
X15677Y-34759D01*
X15673Y-34755D01*
X15679Y-34750D01*
X15309Y-34380D01*
X15206Y-34417D01*
X15120Y-34650D01*
X15124Y-34759D01*
X14153Y-34759D01*
X14153Y-35598D01*
X14144Y-35347D01*
X14064Y-35152D01*
X13958Y-35112D01*
X13887Y-35183D01*
X13887Y-35041D01*
X13847Y-34935D01*
X13605Y-34845D01*
X13347Y-34855D01*
X13152Y-34935D01*
X13112Y-35041D01*
X13500Y-35429D01*
X13887Y-35041D01*
X13887Y-35183D01*
X13570Y-35500D01*
X13958Y-35887D01*
X14064Y-35847D01*
X14153Y-35606D01*
X14153Y-36322D01*
X23546Y-36322D01*
X23546Y-36730D01*
X13887Y-36730D01*
X13887Y-35958D01*
X13500Y-35570D01*
X13429Y-35641D01*
X13429Y-35500D01*
X13041Y-35112D01*
X12935Y-35152D01*
X12845Y-35394D01*
X12855Y-35652D01*
X12935Y-35847D01*
X13041Y-35887D01*
X13429Y-35500D01*
X13429Y-35641D01*
X13112Y-35958D01*
X13152Y-36064D01*
X13394Y-36154D01*
X13652Y-36144D01*
X13847Y-36064D01*
X13887Y-35958D01*
X13887Y-36730D01*
X9269Y-36730D01*
X9269Y-36250D01*
X9269Y-18769D01*
X27730Y-18769D01*
X27730Y-36200D01*
X27730Y-36250D01*
X27730Y-36730D01*
M02*
