<?xml version="1.0" standalone="no"?>
 <!DOCTYPE svg PUBLIC "-//W3C//DTD SVG 1.1//EN" 
 "http://www.w3.org/Graphics/SVG/1.1/DTD/svg11.dtd"> 
<svg xmlns="http://www.w3.org/2000/svg" version="1.1" 
    width="41.9989cm" height="29.7002cm" viewBox="0 0 165350 116930 ">
<title>SVG Picture created as AD8495_Thermocouple_PCB_x1_30_11_13-F_SilkS.svg date 2014/01/08 11:02:59 </title>
  <desc>Picture generated by PCBNEW </desc>
<g style="fill:#000000; fill-opacity:1;stroke:#000000; stroke-opacity:1;
stroke-linecap:round; stroke-linejoin:round; "
 transform="translate(0 0) scale(1 1)">
</g>
<g style="fill:#000000; fill-opacity:0.0; 
stroke:#000000; stroke-width:39.3701; stroke-opacity:1; 
stroke-linecap:round; stroke-linejoin:round;">
<path d="M4000 4000
L161350 4000
L161350 112930
L4000 112930
L4000 4000
" />
<path d="M4700 4700
L160650 4700
L160650 112230
L4700 112230
L4700 4700
" />
<path d="M26470 4000
L26470 4700
" />
<path d="M15382 4552
L15097 4552
" />
<path d="M15240 4552
L15240 4052
L15192 4123
L15144 4171
L15097 4195
" />
<path d="M26470 112930
L26470 112230
" />
<path d="M15382 112782
L15097 112782
" />
<path d="M15240 112782
L15240 112282
L15192 112353
L15144 112401
L15097 112425
" />
<path d="M48940 4000
L48940 4700
" />
<path d="M37567 4100
L37590 4076
L37638 4052
L37757 4052
L37805 4076
L37829 4100
L37852 4147
L37852 4195
L37829 4266
L37543 4552
L37852 4552
" />
<path d="M48940 112930
L48940 112230
" />
<path d="M37567 112330
L37590 112306
L37638 112282
L37757 112282
L37805 112306
L37829 112330
L37852 112377
L37852 112425
L37829 112496
L37543 112782
L37852 112782
" />
<path d="M71410 4000
L71410 4700
" />
<path d="M60013 4052
L60322 4052
L60156 4242
L60227 4242
L60275 4266
L60299 4290
L60322 4338
L60322 4457
L60299 4504
L60275 4528
L60227 4552
L60084 4552
L60037 4528
L60013 4504
" />
<path d="M71410 112930
L71410 112230
" />
<path d="M60013 112282
L60322 112282
L60156 112472
L60227 112472
L60275 112496
L60299 112520
L60322 112568
L60322 112687
L60299 112734
L60275 112758
L60227 112782
L60084 112782
L60037 112758
L60013 112734
" />
<path d="M93880 4000
L93880 4700
" />
<path d="M82745 4219
L82745 4552
" />
<path d="M82626 4028
L82507 4385
L82816 4385
" />
<path d="M93880 112930
L93880 112230
" />
<path d="M82745 112449
L82745 112782
" />
<path d="M82626 112258
L82507 112615
L82816 112615
" />
<path d="M116350 4000
L116350 4700
" />
<path d="M105239 4052
L105000 4052
L104977 4290
L105000 4266
L105048 4242
L105167 4242
L105215 4266
L105239 4290
L105262 4338
L105262 4457
L105239 4504
L105215 4528
L105167 4552
L105048 4552
L105000 4528
L104977 4504
" />
<path d="M116350 112930
L116350 112230
" />
<path d="M105239 112282
L105000 112282
L104977 112520
L105000 112496
L105048 112472
L105167 112472
L105215 112496
L105239 112520
L105262 112568
L105262 112687
L105239 112734
L105215 112758
L105167 112782
L105048 112782
L105000 112758
L104977 112734
" />
<path d="M138820 4000
L138820 4700
" />
<path d="M127685 4052
L127590 4052
L127542 4076
L127518 4100
L127470 4171
L127447 4266
L127447 4457
L127470 4504
L127494 4528
L127542 4552
L127637 4552
L127685 4528
L127709 4504
L127732 4457
L127732 4338
L127709 4290
L127685 4266
L127637 4242
L127542 4242
L127494 4266
L127470 4290
L127447 4338
" />
<path d="M138820 112930
L138820 112230
" />
<path d="M127685 112282
L127590 112282
L127542 112306
L127518 112330
L127470 112401
L127447 112496
L127447 112687
L127470 112734
L127494 112758
L127542 112782
L127637 112782
L127685 112758
L127709 112734
L127732 112687
L127732 112568
L127709 112520
L127685 112496
L127637 112472
L127542 112472
L127494 112496
L127470 112520
L127447 112568
" />
<path d="M149893 4052
L150226 4052
L150012 4552
" />
<path d="M149893 112282
L150226 112282
L150012 112782
" />
<path d="M4000 25780
L4700 25780
" />
<path d="M4230 14949
L4469 14949
" />
<path d="M4183 15092
L4350 14592
L4516 15092
" />
<path d="M161350 25780
L160650 25780
" />
<path d="M160880 14949
L161119 14949
" />
<path d="M160833 15092
L161000 14592
L161166 15092
" />
<path d="M4000 47560
L4700 47560
" />
<path d="M4385 36610
L4457 36634
L4480 36658
L4504 36705
L4504 36777
L4480 36824
L4457 36848
L4409 36872
L4219 36872
L4219 36372
L4385 36372
L4433 36396
L4457 36420
L4480 36467
L4480 36515
L4457 36562
L4433 36586
L4385 36610
L4219 36610
" />
<path d="M161350 47560
L160650 47560
" />
<path d="M161035 36610
L161107 36634
L161130 36658
L161154 36705
L161154 36777
L161130 36824
L161107 36848
L161059 36872
L160869 36872
L160869 36372
L161035 36372
L161083 36396
L161107 36420
L161130 36467
L161130 36515
L161107 36562
L161083 36586
L161035 36610
L160869 36610
" />
<path d="M4000 69340
L4700 69340
" />
<path d="M4504 58604
L4480 58628
L4409 58652
L4361 58652
L4290 58628
L4242 58580
L4219 58533
L4195 58438
L4195 58366
L4219 58271
L4242 58223
L4290 58176
L4361 58152
L4409 58152
L4480 58176
L4504 58200
" />
<path d="M161350 69340
L160650 69340
" />
<path d="M161154 58604
L161130 58628
L161059 58652
L161011 58652
L160940 58628
L160892 58580
L160869 58533
L160845 58438
L160845 58366
L160869 58271
L160892 58223
L160940 58176
L161011 58152
L161059 58152
L161130 58176
L161154 58200
" />
<path d="M4000 91120
L4700 91120
" />
<path d="M4219 80432
L4219 79932
L4338 79932
L4409 79956
L4457 80003
L4480 80051
L4504 80146
L4504 80218
L4480 80313
L4457 80360
L4409 80408
L4338 80432
L4219 80432
" />
<path d="M161350 91120
L160650 91120
" />
<path d="M160869 80432
L160869 79932
L160988 79932
L161059 79956
L161107 80003
L161130 80051
L161154 80146
L161154 80218
L161130 80313
L161107 80360
L161059 80408
L160988 80432
L160869 80432
" />
<path d="M4242 101950
L4409 101950
" />
<path d="M4480 102212
L4242 102212
L4242 101712
L4480 101712
" />
<path d="M160892 101950
L161059 101950
" />
<path d="M161130 102212
L160892 102212
L160892 101712
L161130 101712
" />
<path d="M127800 110672
L127875 110072
L128017 110072
L128100 110101
L128150 110158
L128171 110215
L128185 110330
L128175 110415
L128132 110530
L128096 110587
L128032 110644
L127942 110672
L127800 110672
" />
<path d="M128657 110672
L128696 110358
L128675 110301
L128621 110272
L128507 110272
L128446 110301
" />
<path d="M128660 110644
L128600 110672
L128457 110672
L128403 110644
L128382 110587
L128389 110530
L128425 110472
L128485 110444
L128628 110444
L128689 110415
" />
<path d="M128907 110272
L129135 110272
" />
<path d="M129017 110072
L128953 110587
L128975 110644
L129028 110672
L129085 110672
" />
<path d="M129517 110644
L129457 110672
L129342 110672
L129289 110644
L129267 110587
L129296 110358
L129332 110301
L129392 110272
L129507 110272
L129560 110301
L129582 110358
L129575 110415
L129282 110472
" />
<path d="M129807 110615
L129832 110644
L129800 110672
L129775 110644
L129807 110615
L129800 110672
" />
<path d="M129846 110301
L129871 110330
L129839 110358
L129814 110330
L129846 110301
L129839 110358
" />
<path d="M130671 110330
L130617 110301
L130592 110272
L130571 110215
L130575 110187
L130610 110130
L130642 110101
L130703 110072
L130817 110072
L130871 110101
L130896 110130
L130917 110187
L130914 110215
L130878 110272
L130846 110301
L130785 110330
L130671 110330
L130610 110358
L130578 110387
L130542 110444
L130528 110558
L130550 110615
L130575 110644
L130628 110672
L130742 110672
L130803 110644
L130835 110615
L130871 110558
L130885 110444
L130864 110387
L130839 110358
L130785 110330
" />
<path d="M131621 110272
L131557 110787
L131521 110844
L131460 110872
L131432 110872
" />
<path d="M131646 110072
L131614 110101
L131639 110130
L131671 110101
L131646 110072
L131639 110130
" />
<path d="M132114 110672
L132153 110358
L132132 110301
L132078 110272
L131964 110272
L131903 110301
" />
<path d="M132117 110644
L132057 110672
L131914 110672
L131860 110644
L131839 110587
L131846 110530
L131882 110472
L131942 110444
L132085 110444
L132146 110415
" />
<path d="M132450 110272
L132400 110672
" />
<path d="M132442 110330
L132475 110301
L132535 110272
L132621 110272
L132675 110301
L132696 110358
L132657 110672
" />
<path d="M133439 110130
L133471 110101
L133532 110072
L133675 110072
L133728 110101
L133753 110130
L133775 110187
L133767 110244
L133728 110330
L133342 110672
L133714 110672
" />
<path d="M134160 110072
L134217 110072
L134271 110101
L134296 110130
L134317 110187
L134332 110301
L134314 110444
L134271 110558
L134235 110615
L134203 110644
L134142 110672
L134085 110672
L134032 110644
L134007 110615
L133985 110558
L133971 110444
L133989 110301
L134032 110187
L134067 110130
L134100 110101
L134160 110072
" />
<path d="M134857 110672
L134514 110672
" />
<path d="M134685 110672
L134760 110072
L134692 110158
L134628 110215
L134567 110244
" />
<path d="M135421 110272
L135371 110672
" />
<path d="M135307 110044
L135110 110472
L135482 110472
" />
<path d="M119392 111872
L119392 111272
" />
<path d="M119735 111872
L119478 111530
" />
<path d="M119735 111272
L119392 111615
" />
<path d="M119992 111872
L119992 111472
" />
<path d="M119992 111272
L119964 111301
L119992 111330
L120021 111301
L119992 111272
L119992 111330
" />
<path d="M120621 111815
L120592 111844
L120507 111872
L120450 111872
L120364 111844
L120307 111787
L120278 111730
L120250 111615
L120250 111530
L120278 111415
L120307 111358
L120364 111301
L120450 111272
L120507 111272
L120592 111301
L120621 111330
" />
<path d="M121135 111872
L121135 111558
L121107 111501
L121050 111472
L120935 111472
L120878 111501
" />
<path d="M121135 111844
L121078 111872
L120935 111872
L120878 111844
L120850 111787
L120850 111730
L120878 111672
L120935 111644
L121078 111644
L121135 111615
" />
<path d="M121678 111872
L121678 111272
" />
<path d="M121678 111844
L121621 111872
L121507 111872
L121450 111844
L121421 111815
L121392 111758
L121392 111587
L121421 111530
L121450 111501
L121507 111472
L121621 111472
L121678 111501
" />
<path d="M122421 111558
L122621 111558
" />
<path d="M122707 111872
L122421 111872
L122421 111272
L122707 111272
" />
<path d="M122964 111815
L122992 111844
L122964 111872
L122935 111844
L122964 111815
L122964 111872
" />
<path d="M123249 111872
L123249 111272
L123392 111272
L123478 111301
L123535 111358
L123564 111415
L123592 111530
L123592 111615
L123564 111730
L123535 111787
L123478 111844
L123392 111872
L123249 111872
" />
<path d="M123849 111815
L123878 111844
L123849 111872
L123821 111844
L123849 111815
L123849 111872
" />
<path d="M124107 111701
L124392 111701
" />
<path d="M124049 111872
L124249 111272
L124449 111872
" />
<path d="M124649 111815
L124678 111844
L124649 111872
L124621 111844
L124649 111815
L124649 111872
" />
<path d="M152942 110672
L152778 110387
" />
<path d="M152600 110672
L152675 110072
L152903 110072
L152957 110101
L152982 110130
L153003 110187
L152992 110272
L152957 110330
L152925 110358
L152864 110387
L152635 110387
" />
<path d="M153432 110644
L153371 110672
L153257 110672
L153203 110644
L153182 110587
L153210 110358
L153246 110301
L153307 110272
L153421 110272
L153475 110301
L153496 110358
L153489 110415
L153196 110472
" />
<path d="M153707 110272
L153800 110672
L153992 110272
" />
<path d="M154178 110615
L154203 110644
L154171 110672
L154146 110644
L154178 110615
L154171 110672
" />
<path d="M154217 110301
L154242 110330
L154210 110358
L154185 110330
L154217 110301
L154210 110358
" />
<path d="M119364 110644
L119450 110672
L119592 110672
L119650 110644
L119678 110615
L119707 110558
L119707 110501
L119678 110444
L119650 110415
L119592 110387
L119478 110358
L119421 110330
L119392 110301
L119364 110244
L119364 110187
L119392 110130
L119421 110101
L119478 110072
L119621 110072
L119707 110101
" />
<path d="M119964 110672
L119964 110272
" />
<path d="M119964 110072
L119935 110101
L119964 110130
L119992 110101
L119964 110072
L119964 110130
" />
<path d="M120192 110272
L120507 110272
L120192 110672
L120507 110672
" />
<path d="M120964 110644
L120907 110672
L120792 110672
L120735 110644
L120707 110587
L120707 110358
L120735 110301
L120792 110272
L120907 110272
L120964 110301
L120992 110358
L120992 110415
L120707 110472
" />
<path d="M121250 110615
L121278 110644
L121250 110672
L121221 110644
L121250 110615
L121250 110672
" />
<path d="M121250 110301
L121278 110330
L121250 110358
L121221 110330
L121250 110301
L121250 110358
" />
<path d="M121964 110501
L122250 110501
" />
<path d="M121907 110672
L122107 110072
L122307 110672
" />
<path d="M122450 110072
L122821 110072
L122621 110301
L122707 110301
L122764 110330
L122792 110358
L122821 110415
L122821 110558
L122792 110615
L122764 110644
L122707 110672
L122535 110672
L122478 110644
L122450 110615
" />
<path d="M152592 111872
L152592 111272
" />
<path d="M153135 111872
L153135 111272
" />
<path d="M153135 111844
L153078 111872
L152964 111872
L152907 111844
L152878 111815
L152850 111758
L152850 111587
L152878 111530
L152907 111501
L152964 111472
L153078 111472
L153135 111501
" />
<path d="M153421 111815
L153450 111844
L153421 111872
L153392 111844
L153421 111815
L153421 111872
" />
<path d="M153421 111501
L153450 111530
L153421 111558
L153392 111530
L153421 111501
L153421 111558
" />
<path d="M154478 111872
L154135 111872
" />
<path d="M154307 111872
L154307 111272
L154249 111358
L154192 111415
L154135 111444
" />
<path d="M155164 111244
L154650 112015
" />
<path d="M155678 111872
L155335 111872
" />
<path d="M155507 111872
L155507 111272
L155449 111358
L155392 111415
L155335 111444
" />
<path d="M119389 108872
L119732 108872
" />
<path d="M119485 109472
L119560 108872
" />
<path d="M119857 109472
L119907 109072
" />
<path d="M119932 108872
L119900 108901
L119925 108930
L119957 108901
L119932 108872
L119925 108930
" />
<path d="M120107 109072
L120335 109072
" />
<path d="M120217 108872
L120153 109387
L120175 109444
L120228 109472
L120285 109472
" />
<path d="M120571 109472
L120517 109444
L120496 109387
L120560 108872
" />
<path d="M121032 109444
L120971 109472
L120857 109472
L120803 109444
L120782 109387
L120810 109158
L120846 109101
L120907 109072
L121021 109072
L121075 109101
L121096 109158
L121089 109215
L120796 109272
" />
<path d="M121321 109415
L121346 109444
L121314 109472
L121289 109444
L121321 109415
L121314 109472
" />
<path d="M121360 109101
L121385 109130
L121353 109158
L121328 109130
L121360 109101
L121353 109158
" />
<path d="M119592 106758
L119392 106758
" />
<path d="M119392 107072
L119392 106472
L119678 106472
" />
<path d="M119907 107072
L119907 106672
" />
<path d="M119907 106472
L119878 106501
L119907 106530
L119935 106501
L119907 106472
L119907 106530
" />
<path d="M120278 107072
L120221 107044
L120192 106987
L120192 106472
" />
<path d="M120735 107044
L120678 107072
L120564 107072
L120507 107044
L120478 106987
L120478 106758
L120507 106701
L120564 106672
L120678 106672
L120735 106701
L120764 106758
L120764 106815
L120478 106872
" />
<path d="M121021 107015
L121050 107044
L121021 107072
L120992 107044
L121021 107015
L121021 107072
" />
<path d="M121021 106701
L121050 106730
L121021 106758
L120992 106730
L121021 106701
L121021 106758
" />
<path d="M121735 106901
L122021 106901
" />
<path d="M121678 107072
L121878 106472
L122078 107072
" />
<path d="M122278 107072
L122278 106472
L122421 106472
L122507 106501
L122564 106558
L122592 106615
L122621 106730
L122621 106815
L122592 106930
L122564 106987
L122507 107044
L122421 107072
L122278 107072
" />
<path d="M122964 106730
L122907 106701
L122878 106672
L122850 106615
L122850 106587
L122878 106530
L122907 106501
L122964 106472
L123078 106472
L123135 106501
L123164 106530
L123192 106587
L123192 106615
L123164 106672
L123135 106701
L123078 106730
L122964 106730
L122907 106758
L122878 106787
L122850 106844
L122850 106958
L122878 107015
L122907 107044
L122964 107072
L123078 107072
L123135 107044
L123164 107015
L123192 106958
L123192 106844
L123164 106787
L123135 106758
L123078 106730
" />
<path d="M123707 106672
L123707 107072
" />
<path d="M123564 106444
L123421 106872
L123792 106872
" />
<path d="M124050 107072
L124164 107072
L124221 107044
L124250 107015
L124307 106930
L124335 106815
L124335 106587
L124307 106530
L124278 106501
L124221 106472
L124107 106472
L124050 106501
L124021 106530
L123992 106587
L123992 106730
L124021 106787
L124050 106815
L124107 106844
L124221 106844
L124278 106815
L124307 106787
L124335 106730
" />
<path d="M124878 106472
L124592 106472
L124564 106758
L124592 106730
L124650 106701
L124792 106701
L124850 106730
L124878 106758
L124907 106815
L124907 106958
L124878 107015
L124850 107044
L124792 107072
L124650 107072
L124592 107044
L124564 107015
" />
<path d="M125021 107130
L125478 107130
" />
<path d="M125535 106472
L125878 106472
" />
<path d="M125707 107072
L125707 106472
" />
<path d="M126078 107072
L126078 106472
" />
<path d="M126335 107072
L126335 106758
L126307 106701
L126250 106672
L126164 106672
L126107 106701
L126078 106730
" />
<path d="M126850 107044
L126792 107072
L126678 107072
L126621 107044
L126592 106987
L126592 106758
L126621 106701
L126678 106672
L126792 106672
L126850 106701
L126878 106758
L126878 106815
L126592 106872
" />
<path d="M127135 107072
L127135 106672
" />
<path d="M127135 106787
L127164 106730
L127192 106701
L127250 106672
L127307 106672
" />
<path d="M127507 107072
L127507 106672
" />
<path d="M127507 106730
L127535 106701
L127592 106672
L127678 106672
L127735 106701
L127764 106758
L127764 107072
" />
<path d="M127764 106758
L127792 106701
L127850 106672
L127935 106672
L127992 106701
L128021 106758
L128021 107072
" />
<path d="M128392 107072
L128335 107044
L128307 107015
L128278 106958
L128278 106787
L128307 106730
L128335 106701
L128392 106672
L128478 106672
L128535 106701
L128564 106730
L128592 106787
L128592 106958
L128564 107015
L128535 107044
L128478 107072
L128392 107072
" />
<path d="M129107 107044
L129050 107072
L128935 107072
L128878 107044
L128850 107015
L128821 106958
L128821 106787
L128850 106730
L128878 106701
L128935 106672
L129050 106672
L129107 106701
" />
<path d="M129450 107072
L129392 107044
L129364 107015
L129335 106958
L129335 106787
L129364 106730
L129392 106701
L129450 106672
L129535 106672
L129592 106701
L129621 106730
L129650 106787
L129650 106958
L129621 107015
L129592 107044
L129535 107072
L129450 107072
" />
<path d="M130164 106672
L130164 107072
" />
<path d="M129907 106672
L129907 106987
L129935 107044
L129992 107072
L130078 107072
L130135 107044
L130164 107015
" />
<path d="M130450 106672
L130450 107272
" />
<path d="M130450 106701
L130507 106672
L130621 106672
L130678 106701
L130707 106730
L130735 106787
L130735 106958
L130707 107015
L130678 107044
L130621 107072
L130507 107072
L130450 107044
" />
<path d="M131078 107072
L131021 107044
L130992 106987
L130992 106472
" />
<path d="M131535 107044
L131478 107072
L131364 107072
L131307 107044
L131278 106987
L131278 106758
L131307 106701
L131364 106672
L131478 106672
L131535 106701
L131564 106758
L131564 106815
L131278 106872
" />
<path d="M131678 107130
L132135 107130
" />
<path d="M132278 107072
L132278 106472
L132507 106472
L132564 106501
L132592 106530
L132621 106587
L132621 106672
L132592 106730
L132564 106758
L132507 106787
L132278 106787
" />
<path d="M133221 107015
L133192 107044
L133107 107072
L133050 107072
L132964 107044
L132907 106987
L132878 106930
L132850 106815
L132850 106730
L132878 106615
L132907 106558
L132964 106501
L133050 106472
L133107 106472
L133192 106501
L133221 106530
" />
<path d="M133678 106758
L133764 106787
L133792 106815
L133821 106872
L133821 106958
L133792 107015
L133764 107044
L133707 107072
L133478 107072
L133478 106472
L133678 106472
L133735 106501
L133764 106530
L133792 106587
L133792 106644
L133764 106701
L133735 106730
L133678 106758
L133478 106758
" />
<path d="M133935 107130
L134392 107130
" />
<path d="M134478 107072
L134792 106672
" />
<path d="M134478 106672
L134792 107072
" />
<path d="M135335 107072
L134992 107072
" />
<path d="M135164 107072
L135164 106472
L135107 106558
L135050 106615
L134992 106644
" />
<path d="M135450 107130
L135907 107130
" />
<path d="M135992 106472
L136364 106472
L136164 106701
L136250 106701
L136307 106730
L136335 106758
L136364 106815
L136364 106958
L136335 107015
L136307 107044
L136250 107072
L136078 107072
L136021 107044
L135992 107015
" />
<path d="M136735 106472
L136792 106472
L136850 106501
L136878 106530
L136907 106587
L136935 106701
L136935 106844
L136907 106958
L136878 107015
L136850 107044
L136792 107072
L136735 107072
L136678 107044
L136650 107015
L136621 106958
L136592 106844
L136592 106701
L136621 106587
L136650 106530
L136678 106501
L136735 106472
" />
<path d="M137050 107130
L137507 107130
" />
<path d="M137964 107072
L137621 107072
" />
<path d="M137792 107072
L137792 106472
L137735 106558
L137678 106615
L137621 106644
" />
<path d="M138535 107072
L138192 107072
" />
<path d="M138364 107072
L138364 106472
L138307 106558
L138250 106615
L138192 106644
" />
<path d="M138650 107130
L139107 107130
" />
<path d="M139564 107072
L139221 107072
" />
<path d="M139392 107072
L139392 106472
L139335 106558
L139278 106615
L139221 106644
" />
<path d="M139764 106472
L140135 106472
L139935 106701
L140021 106701
L140078 106730
L140107 106758
L140135 106815
L140135 106958
L140107 107015
L140078 107044
L140021 107072
L139850 107072
L139792 107044
L139764 107015
" />
<path d="M140392 107015
L140421 107044
L140392 107072
L140364 107044
L140392 107015
L140392 107072
" />
<path d="M140678 107072
L140678 106472
" />
<path d="M140735 106844
L140907 107072
" />
<path d="M140907 106672
L140678 106901
" />
<path d="M141164 107072
L141164 106672
" />
<path d="M141164 106472
L141135 106501
L141164 106530
L141192 106501
L141164 106472
L141164 106530
" />
<path d="M141707 107044
L141650 107072
L141535 107072
L141478 107044
L141450 107015
L141421 106958
L141421 106787
L141450 106730
L141478 106701
L141535 106672
L141650 106672
L141707 106701
" />
<path d="M142221 107072
L142221 106758
L142192 106701
L142135 106672
L142021 106672
L141964 106701
" />
<path d="M142221 107044
L142164 107072
L142021 107072
L141964 107044
L141935 106987
L141935 106930
L141964 106872
L142021 106844
L142164 106844
L142221 106815
" />
<path d="M142764 107072
L142764 106472
" />
<path d="M142764 107044
L142707 107072
L142592 107072
L142535 107044
L142507 107015
L142478 106958
L142478 106787
L142507 106730
L142535 106701
L142592 106672
L142707 106672
L142764 106701
" />
<path d="M142907 107130
L143364 107130
" />
<path d="M143507 106672
L143507 107272
" />
<path d="M143507 106701
L143564 106672
L143678 106672
L143735 106701
L143764 106730
L143792 106787
L143792 106958
L143764 107015
L143735 107044
L143678 107072
L143564 107072
L143507 107044
" />
<path d="M144307 107044
L144250 107072
L144135 107072
L144078 107044
L144050 107015
L144021 106958
L144021 106787
L144050 106730
L144078 106701
L144135 106672
L144250 106672
L144307 106701
" />
<path d="M144564 107072
L144564 106472
" />
<path d="M144564 106701
L144621 106672
L144735 106672
L144792 106701
L144821 106730
L144850 106787
L144850 106958
L144821 107015
L144792 107044
L144735 107072
L144621 107072
L144564 107044
" />
<path d="M119364 108244
L119450 108272
L119592 108272
L119650 108244
L119678 108215
L119707 108158
L119707 108101
L119678 108044
L119650 108015
L119592 107987
L119478 107958
L119421 107930
L119392 107901
L119364 107844
L119364 107787
L119392 107730
L119421 107701
L119478 107672
L119621 107672
L119707 107701
" />
<path d="M119964 108272
L119964 107672
" />
<path d="M120221 108272
L120221 107958
L120192 107901
L120135 107872
L120050 107872
L119992 107901
L119964 107930
" />
<path d="M120735 108244
L120678 108272
L120564 108272
L120507 108244
L120478 108187
L120478 107958
L120507 107901
L120564 107872
L120678 107872
L120735 107901
L120764 107958
L120764 108015
L120478 108072
" />
<path d="M121250 108244
L121192 108272
L121078 108272
L121021 108244
L120992 108187
L120992 107958
L121021 107901
L121078 107872
L121192 107872
L121250 107901
L121278 107958
L121278 108015
L120992 108072
" />
<path d="M121450 107872
L121678 107872
" />
<path d="M121535 107672
L121535 108187
L121564 108244
L121621 108272
L121678 108272
" />
<path d="M121878 108215
L121907 108244
L121878 108272
L121850 108244
L121878 108215
L121878 108272
" />
<path d="M121878 107901
L121907 107930
L121878 107958
L121850 107930
L121878 107901
L121878 107958
" />
<path d="M118650 106230
L118650 112230
" />
<path d="M118650 106230
L160650 106230
" />
<path d="M118650 106230
L160650 106230
" />
<path d="M118650 108630
L160650 108630
" />
<path d="M151850 109830
L151850 112230
" />
<path d="M118650 111030
L160650 111030
" />
<path d="M118650 109830
L160650 109830
" />
<path d="M125250 109830
L125250 111030
" />
</g>
<g style="fill:#FFFF00; fill-opacity:0.0; 
stroke:#FFFF00; stroke-width:39.3701; stroke-opacity:1; 
stroke-linecap:round; stroke-linejoin:round;">
<path d="M9000 27500
L28000 27500
" />
<path d="M9000 18500
L9000 27500
" />
<path d="M28000 18500
L9000 18500
" />
<path d="M28000 27500
L28000 18500
" />
<path d="M28000 27500
L9000 27500
" />
<path d="M9000 18500
L28000 18500
" />
</g>
<g style="fill:#009F9F; fill-opacity:0.0; 
stroke:#009F9F; stroke-width:118.11; stroke-opacity:1; 
stroke-linecap:round; stroke-linejoin:round;">
<path d="M13894 19148
L14232 19148
" />
<path d="M14063 19739
L14063 19148
" />
<path d="M14428 19739
L14428 19148
" />
<path d="M14681 19739
L14681 19429
L14653 19373
L14597 19345
L14513 19345
L14456 19373
L14428 19401
" />
<path d="M15188 19710
L15131 19739
L15019 19739
L14963 19710
L14935 19654
L14935 19429
L14963 19373
L15019 19345
L15131 19345
L15188 19373
L15216 19429
L15216 19485
L14935 19542
" />
<path d="M15469 19739
L15469 19345
" />
<path d="M15469 19457
L15497 19401
L15525 19373
L15581 19345
L15638 19345
" />
<path d="M15834 19739
L15834 19345
" />
<path d="M15834 19401
L15863 19373
L15919 19345
L16003 19345
L16059 19373
L16088 19429
L16088 19739
" />
<path d="M16088 19429
L16116 19373
L16172 19345
L16256 19345
L16312 19373
L16341 19429
L16341 19739
" />
<path d="M16706 19739
L16650 19710
L16622 19682
L16594 19626
L16594 19457
L16622 19401
L16650 19373
L16706 19345
L16791 19345
L16847 19373
L16875 19401
L16903 19457
L16903 19626
L16875 19682
L16847 19710
L16791 19739
L16706 19739
" />
<path d="M17409 19710
L17353 19739
L17241 19739
L17184 19710
L17156 19682
L17128 19626
L17128 19457
L17156 19401
L17184 19373
L17241 19345
L17353 19345
L17409 19373
" />
<path d="M17747 19739
L17690 19710
L17662 19682
L17634 19626
L17634 19457
L17662 19401
L17690 19373
L17747 19345
L17831 19345
L17887 19373
L17915 19401
L17944 19457
L17944 19626
L17915 19682
L17887 19710
L17831 19739
L17747 19739
" />
<path d="M18450 19345
L18450 19739
" />
<path d="M18197 19345
L18197 19654
L18225 19710
L18281 19739
L18365 19739
L18422 19710
L18450 19682
" />
<path d="M18731 19345
L18731 19935
" />
<path d="M18731 19373
L18787 19345
L18900 19345
L18956 19373
L18984 19401
L19012 19457
L19012 19626
L18984 19682
L18956 19710
L18900 19739
L18787 19739
L18731 19710
" />
<path d="M19350 19739
L19293 19710
L19265 19654
L19265 19148
" />
<path d="M19800 19710
L19743 19739
L19631 19739
L19575 19710
L19546 19654
L19546 19429
L19575 19373
L19631 19345
L19743 19345
L19800 19373
L19828 19429
L19828 19485
L19546 19542
" />
<path d="M20868 19682
L20840 19710
L20756 19739
L20699 19739
L20615 19710
L20559 19654
L20531 19598
L20503 19485
L20503 19401
L20531 19289
L20559 19232
L20615 19176
L20699 19148
L20756 19148
L20840 19176
L20868 19204
" />
<path d="M21206 19739
L21149 19710
L21121 19682
L21093 19626
L21093 19457
L21121 19401
L21149 19373
L21206 19345
L21290 19345
L21346 19373
L21374 19401
L21402 19457
L21402 19626
L21374 19682
L21346 19710
L21290 19739
L21206 19739
" />
<path d="M21656 19345
L21656 19739
" />
<path d="M21656 19401
L21684 19373
L21740 19345
L21824 19345
L21881 19373
L21909 19429
L21909 19739
" />
<path d="M22134 19345
L22274 19739
L22415 19345
" />
<path d="M22865 19710
L22809 19739
L22696 19739
L22640 19710
L22612 19654
L22612 19429
L22640 19373
L22696 19345
L22809 19345
L22865 19373
L22893 19429
L22893 19485
L22612 19542
" />
<path d="M23146 19739
L23146 19345
" />
<path d="M23146 19457
L23174 19401
L23202 19373
L23258 19345
L23315 19345
" />
<path d="M23483 19710
L23540 19739
L23652 19739
L23708 19710
L23737 19654
L23737 19626
L23708 19570
L23652 19542
L23568 19542
L23512 19514
L23483 19457
L23483 19429
L23512 19373
L23568 19345
L23652 19345
L23708 19373
" />
<path d="M23990 19739
L23990 19345
" />
<path d="M23990 19148
L23962 19176
L23990 19204
L24018 19176
L23990 19148
L23990 19204
" />
<path d="M24355 19739
L24299 19710
L24271 19682
L24243 19626
L24243 19457
L24271 19401
L24299 19373
L24355 19345
L24440 19345
L24496 19373
L24524 19401
L24552 19457
L24552 19626
L24524 19682
L24496 19710
L24440 19739
L24355 19739
" />
<path d="M24805 19345
L24805 19739
" />
<path d="M24805 19401
L24833 19373
L24890 19345
L24974 19345
L25030 19373
L25058 19429
L25058 19739
" />
<path d="M25733 19345
L25874 19739
L26014 19345
" />
<path d="M26549 19739
L26211 19739
" />
<path d="M26380 19739
L26380 19148
L26324 19232
L26267 19289
L26211 19317
" />
<path d="M26350 23776
L26293 23748
L26209 23748
L26125 23776
L26068 23832
L26040 23889
L26012 24001
L26012 24085
L26040 24198
L26068 24254
L26125 24310
L26209 24339
L26265 24339
L26350 24310
L26378 24282
L26378 24085
L26265 24085
" />
<path d="M26631 24339
L26631 23748
L26968 24339
L26968 23748
" />
<path d="M27249 24339
L27249 23748
L27390 23748
L27474 23776
L27531 23832
L27559 23889
L27587 24001
L27587 24085
L27559 24198
L27531 24254
L27474 24310
L27390 24339
L27249 24339
" />
<path d="M26209 22748
L26321 22748
L26378 22776
L26434 22832
L26462 22945
L26462 23142
L26434 23254
L26378 23310
L26321 23339
L26209 23339
L26153 23310
L26096 23254
L26068 23142
L26068 22945
L26096 22832
L26153 22776
L26209 22748
" />
<path d="M26715 22748
L26715 23226
L26743 23282
L26771 23310
L26828 23339
L26940 23339
L26996 23310
L27024 23282
L27053 23226
L27053 22748
" />
<path d="M27249 22748
L27587 22748
" />
<path d="M27418 23339
L27418 22748
" />
<path d="M23639 25748
L23357 25748
L23329 26029
L23357 26001
L23414 25973
L23554 25973
L23611 26001
L23639 26029
L23667 26085
L23667 26226
L23639 26282
L23611 26310
L23554 26339
L23414 26339
L23357 26310
L23329 26282
" />
<path d="M23920 26339
L23920 25945
" />
<path d="M23920 26001
L23948 25973
L24004 25945
L24089 25945
L24145 25973
L24173 26029
L24173 26339
" />
<path d="M24173 26029
L24201 25973
L24257 25945
L24342 25945
L24398 25973
L24426 26029
L24426 26339
" />
<path d="M24623 25748
L24820 26339
L25017 25748
" />
<path d="M25635 25720
L25129 26479
" />
<path d="M26170 26282
L26142 26310
L26057 26339
L26001 26339
L25917 26310
L25860 26254
L25832 26198
L25804 26085
L25804 26001
L25832 25889
L25860 25832
L25917 25776
L26001 25748
L26057 25748
L26142 25776
L26170 25804
" />
<path d="M25971 22014
L26421 22014
" />
<path d="M26196 22239
L26196 21789
" />
<path d="M26618 21648
L26815 22239
L27012 21648
" />
</g>
<g style="fill:#009F9F; fill-opacity:0.0; 
stroke:#009F9F; stroke-width:106; stroke-opacity:1; 
stroke-linecap:round; stroke-linejoin:round;">
<path d="M25535 21312
L24830 21312
" />
<path d="M25535 21070
L25132 21252
" />
<path d="M24830 21070
L25233 21312
" />
<path d="M25535 20666
L25535 20909
" />
<path d="M25535 20788
L24830 20788
L24931 20828
L24998 20868
L25031 20909
" />
</g>
<g style="fill:#009F9F; fill-opacity:0.0; 
stroke:#009F9F; stroke-width:100; stroke-opacity:1; 
stroke-linecap:round; stroke-linejoin:round;">
<path d="M23838 24942
L23914 24942
L23952 24971
L23990 25028
L24009 25142
L24009 25342
L23990 25457
L23952 25514
L23914 25542
L23838 25542
L23800 25514
L23761 25457
L23742 25342
L23742 25142
L23761 25028
L23800 24971
L23838 24942
" />
<path d="M24180 24942
L24180 25428
L24200 25485
L24219 25514
L24257 25542
L24333 25542
L24371 25514
L24390 25485
L24409 25428
L24409 24942
" />
<path d="M24542 24942
L24771 24942
" />
<path d="M24657 25542
L24657 24942
" />
<path d="M24904 25542
L24904 24942
L25057 24942
L25095 24971
L25114 25000
L25133 25057
L25133 25142
L25114 25200
L25095 25228
L25057 25257
L24904 25257
" />
<path d="M25304 24942
L25304 25428
L25323 25485
L25342 25514
L25380 25542
L25457 25542
L25495 25514
L25514 25485
L25533 25428
L25533 24942
" />
<path d="M25666 24942
L25895 24942
" />
<path d="M25780 25542
L25780 24942
" />
</g>
<g style="fill:#009F9F; fill-opacity:0.0; 
stroke:#009F9F; stroke-width:107; stroke-opacity:1; 
stroke-linecap:round; stroke-linejoin:round;">
<path d="M12675 25865
L11994 25865
L11994 25702
L12027 25662
L12059 25641
L12124 25621
L12221 25621
L12286 25641
L12318 25662
L12351 25702
L12351 25865
" />
<path d="M12675 25213
L12675 25458
" />
<path d="M12675 25336
L11994 25336
L12091 25376
L12156 25417
L12189 25458
" />
</g>
<g style="fill:#009F9F; fill-opacity:0.0; 
stroke:#009F9F; stroke-width:100; stroke-opacity:1; 
stroke-linecap:round; stroke-linejoin:round;">
<path d="M9471 19392
L9700 19392
" />
<path d="M9585 19992
L9585 19392
" />
<path d="M9833 19992
L9833 19392
" />
<path d="M10004 19992
L10004 19678
L9985 19621
L9947 19592
L9890 19592
L9852 19621
L9833 19650
" />
<path d="M10347 19964
L10309 19992
L10233 19992
L10195 19964
L10176 19907
L10176 19678
L10195 19621
L10233 19592
L10309 19592
L10347 19621
L10366 19678
L10366 19735
L10176 19792
" />
<path d="M10538 19992
L10538 19592
" />
<path d="M10538 19707
L10557 19650
L10576 19621
L10614 19592
L10652 19592
" />
<path d="M10785 19992
L10785 19592
" />
<path d="M10785 19650
L10804 19621
L10842 19592
L10900 19592
L10938 19621
L10957 19678
L10957 19992
" />
<path d="M10957 19678
L10976 19621
L11014 19592
L11071 19592
L11109 19621
L11128 19678
L11128 19992
" />
<path d="M11376 19992
L11338 19964
L11319 19935
L11300 19878
L11300 19707
L11319 19650
L11338 19621
L11376 19592
L11433 19592
L11471 19621
L11490 19650
L11509 19707
L11509 19878
L11490 19935
L11471 19964
L11433 19992
L11376 19992
" />
<path d="M11852 19964
L11814 19992
L11738 19992
L11700 19964
L11680 19935
L11661 19878
L11661 19707
L11680 19650
L11700 19621
L11738 19592
L11814 19592
L11852 19621
" />
<path d="M12080 19992
L12042 19964
L12023 19935
L12004 19878
L12004 19707
L12023 19650
L12042 19621
L12080 19592
L12138 19592
L12176 19621
L12195 19650
L12214 19707
L12214 19878
L12195 19935
L12176 19964
L12138 19992
L12080 19992
" />
<path d="M12557 19592
L12557 19992
" />
<path d="M12385 19592
L12385 19907
L12404 19964
L12442 19992
L12500 19992
L12538 19964
L12557 19935
" />
<path d="M12747 19592
L12747 20192
" />
<path d="M12747 19621
L12785 19592
L12861 19592
L12900 19621
L12919 19650
L12938 19707
L12938 19878
L12919 19935
L12900 19964
L12861 19992
L12785 19992
L12747 19964
" />
<path d="M13166 19992
L13128 19964
L13109 19907
L13109 19392
" />
<path d="M13471 19964
L13433 19992
L13357 19992
L13319 19964
L13300 19907
L13300 19678
L13319 19621
L13357 19592
L13433 19592
L13471 19621
L13490 19678
L13490 19735
L13300 19792
" />
</g>
<g style="fill:#009F9F; fill-opacity:0.0; 
stroke:#009F9F; stroke-width:120; stroke-opacity:1; 
stroke-linecap:round; stroke-linejoin:round;">
<path d="M10871 25514
L11328 25514
" />
<path d="M13014 20978
L13014 20521
" />
<path d="M13242 20749
L12785 20749
" />
</g>
<g style="fill:#009F9F; fill-opacity:0.0; 
stroke:#009F9F; stroke-width:80; stroke-opacity:1; 
stroke-linecap:round; stroke-linejoin:round;">
<path d="M16166 21972
L16000 21710
" />
<path d="M15880 21972
L15880 21422
L16071 21422
L16119 21448
L16142 21475
L16166 21527
L16166 21605
L16142 21658
L16119 21684
L16071 21710
L15880 21710
" />
<path d="M16357 21475
L16380 21448
L16428 21422
L16547 21422
L16595 21448
L16619 21475
L16642 21527
L16642 21579
L16619 21658
L16333 21972
L16642 21972
" />
<path d="M16166 24472
L16000 24210
" />
<path d="M15880 24472
L15880 23922
L16071 23922
L16119 23948
L16142 23975
L16166 24027
L16166 24105
L16142 24158
L16119 24184
L16071 24210
L15880 24210
" />
<path d="M16333 23922
L16642 23922
L16476 24132
L16547 24132
L16595 24158
L16619 24184
L16642 24236
L16642 24367
L16619 24420
L16595 24446
L16547 24472
L16404 24472
L16357 24446
L16333 24420
" />
<path d="M13722 24833
L13460 25000
" />
<path d="M13722 25119
L13172 25119
L13172 24928
L13198 24880
L13225 24857
L13277 24833
L13355 24833
L13408 24857
L13434 24880
L13460 24928
L13460 25119
" />
<path d="M13722 24357
L13722 24642
" />
<path d="M13722 24500
L13172 24500
L13251 24547
L13303 24595
L13329 24642
" />
<path d="M21166 20722
L21000 20460
" />
<path d="M20880 20722
L20880 20172
L21071 20172
L21119 20198
L21142 20225
L21166 20277
L21166 20355
L21142 20408
L21119 20434
L21071 20460
L20880 20460
" />
<path d="M21595 20355
L21595 20722
" />
<path d="M21476 20146
L21357 20539
L21666 20539
" />
</g>
<g style="fill:#009F9F; fill-opacity:0.0; 
stroke:#009F9F; stroke-width:60; stroke-opacity:1; 
stroke-linecap:round; stroke-linejoin:round;">
<path d="M20049 23415
L20049 23734
L20068 23771
L20087 23790
L20124 23809
L20199 23809
L20237 23790
L20256 23771
L20274 23734
L20274 23415
" />
<path d="M20668 23809
L20443 23809
" />
<path d="M20556 23809
L20556 23415
L20518 23471
L20481 23509
L20443 23528
" />
</g>
<g style="fill:#009F9F; fill-opacity:0.0; 
stroke:#009F9F; stroke-width:50; stroke-opacity:1; 
stroke-linecap:round; stroke-linejoin:round;">
<path d="M18408 25146
L18596 25146
" />
<path d="M18371 25259
L18502 24865
L18633 25259
" />
<path d="M18765 25259
L18765 24865
L18858 24865
L18915 24884
L18952 24921
L18971 24959
L18990 25034
L18990 25090
L18971 25165
L18952 25203
L18915 25240
L18858 25259
L18765 25259
" />
<path d="M19215 25034
L19177 25015
L19159 24996
L19140 24959
L19140 24940
L19159 24903
L19177 24884
L19215 24865
L19290 24865
L19328 24884
L19346 24903
L19365 24940
L19365 24959
L19346 24996
L19328 25015
L19290 25034
L19215 25034
L19177 25053
L19159 25071
L19140 25109
L19140 25184
L19159 25221
L19177 25240
L19215 25259
L19290 25259
L19328 25240
L19346 25221
L19365 25184
L19365 25109
L19346 25071
L19328 25053
L19290 25034
" />
<path d="M19703 24996
L19703 25259
" />
<path d="M19609 24846
L19515 25128
L19759 25128
" />
<path d="M19928 25259
L20003 25259
L20041 25240
L20059 25221
L20097 25165
L20116 25090
L20116 24940
L20097 24903
L20078 24884
L20041 24865
L19965 24865
L19928 24884
L19909 24903
L19890 24940
L19890 25034
L19909 25071
L19928 25090
L19965 25109
L20041 25109
L20078 25090
L20097 25071
L20116 25034
" />
<path d="M20472 24865
L20284 24865
L20266 25053
L20284 25034
L20322 25015
L20416 25015
L20453 25034
L20472 25053
L20491 25090
L20491 25184
L20472 25221
L20453 25240
L20416 25259
L20322 25259
L20284 25240
L20266 25221
" />
</g>
<g style="fill:#009F9F; fill-opacity:0.0; 
stroke:#009F9F; stroke-width:80; stroke-opacity:1; 
stroke-linecap:round; stroke-linejoin:round;">
<path d="M21741 26539
L21725 26560
L21675 26582
L21641 26582
L21591 26560
L21558 26517
L21541 26475
L21525 26389
L21525 26325
L21541 26239
L21558 26196
L21591 26153
L21641 26132
L21675 26132
L21725 26153
L21741 26175
" />
<path d="M22058 26132
L21891 26132
L21875 26346
L21891 26325
L21925 26303
L22008 26303
L22041 26325
L22058 26346
L22075 26389
L22075 26496
L22058 26539
L22041 26560
L22008 26582
L21925 26582
L21891 26560
L21875 26539
" />
</g>
<g style="fill:#009F9F; fill-opacity:0.0; 
stroke:#009F9F; stroke-width:113; stroke-opacity:1; 
stroke-linecap:round; stroke-linejoin:round;">
</g>
<g style="fill:#009F9F; fill-opacity:0.0; 
stroke:#009F9F; stroke-width:112.5; stroke-opacity:1; 
stroke-linecap:round; stroke-linejoin:round;">
<path d="M20278 26410
L20621 26410
" />
<path d="M20450 26582
L20450 26239
" />
</g>
<g style="fill:#009F9F; fill-opacity:0.0; 
stroke:#009F9F; stroke-width:113; stroke-opacity:1; 
stroke-linecap:round; stroke-linejoin:round;">
</g>
<g style="fill:#009F9F; fill-opacity:0.0; 
stroke:#009F9F; stroke-width:80; stroke-opacity:1; 
stroke-linecap:round; stroke-linejoin:round;">
<path d="M21691 23789
L21675 23810
L21625 23832
L21591 23832
L21541 23810
L21508 23767
L21491 23725
L21475 23639
L21475 23575
L21491 23489
L21508 23446
L21541 23403
L21591 23382
L21625 23382
L21675 23403
L21691 23425
" />
<path d="M21991 23382
L21925 23382
L21891 23403
L21875 23425
L21841 23489
L21825 23575
L21825 23746
L21841 23789
L21858 23810
L21891 23832
L21958 23832
L21991 23810
L22008 23789
L22025 23746
L22025 23639
L22008 23596
L21991 23575
L21958 23553
L21891 23553
L21858 23575
L21841 23596
L21825 23639
" />
</g>
<g style="fill:#009F9F; fill-opacity:0.0; 
stroke:#009F9F; stroke-width:113; stroke-opacity:1; 
stroke-linecap:round; stroke-linejoin:round;">
</g>
<g style="fill:#009F9F; fill-opacity:0.0; 
stroke:#009F9F; stroke-width:112.5; stroke-opacity:1; 
stroke-linecap:round; stroke-linejoin:round;">
<path d="M20578 21560
L20921 21560
" />
<path d="M20750 21732
L20750 21389
" />
</g>
<g style="fill:#009F9F; fill-opacity:0.0; 
stroke:#009F9F; stroke-width:113; stroke-opacity:1; 
stroke-linecap:round; stroke-linejoin:round;">
</g>
<g style="fill:#009F9F; fill-opacity:0.0; 
stroke:#009F9F; stroke-width:80; stroke-opacity:1; 
stroke-linecap:round; stroke-linejoin:round;">
<path d="M16858 23173
L16839 23192
L16782 23211
L16744 23211
L16686 23192
L16648 23154
L16629 23116
L16610 23040
L16610 22983
L16629 22907
L16648 22869
L16686 22830
L16744 22811
L16782 22811
L16839 22830
L16858 22850
" />
<path d="M17010 22850
L17029 22830
L17067 22811
L17163 22811
L17201 22830
L17220 22850
L17239 22888
L17239 22926
L17220 22983
L16991 23211
L17239 23211
" />
<path d="M16508 25573
L16489 25592
L16432 25611
L16394 25611
L16336 25592
L16298 25554
L16279 25516
L16260 25440
L16260 25383
L16279 25307
L16298 25269
L16336 25230
L16394 25211
L16432 25211
L16489 25230
L16508 25250
" />
<path d="M16641 25211
L16889 25211
L16755 25364
L16813 25364
L16851 25383
L16870 25402
L16889 25440
L16889 25535
L16870 25573
L16851 25592
L16813 25611
L16698 25611
L16660 25592
L16641 25573
" />
<path d="M16858 20673
L16839 20692
L16782 20711
L16744 20711
L16686 20692
L16648 20654
L16629 20616
L16610 20540
L16610 20483
L16629 20407
L16648 20369
L16686 20330
L16744 20311
L16782 20311
L16839 20330
L16858 20350
" />
<path d="M17239 20711
L17010 20711
" />
<path d="M17125 20711
L17125 20311
L17086 20369
L17048 20407
L17010 20426
" />
<path d="M23923 23066
L23942 23085
L23961 23142
L23961 23180
L23942 23238
L23904 23276
L23866 23295
L23790 23314
L23733 23314
L23657 23295
L23619 23276
L23580 23238
L23561 23180
L23561 23142
L23580 23085
L23600 23066
" />
<path d="M23695 22723
L23961 22723
" />
<path d="M23542 22819
L23828 22914
L23828 22666
" />
</g>
<g style="fill:#009F9F; fill-opacity:0.0; 
stroke:#009F9F; stroke-width:120; stroke-opacity:1; 
stroke-linecap:round; stroke-linejoin:round;">
<path d="M24750 21500
L25750 21500
" />
<path d="M25750 21500
L25750 24500
" />
<path d="M25750 24500
L24750 24500
" />
<path d="M24750 24500
L24750 21500
" />
<path d="M25750 22500
L24750 22500
" />
</g>
<g style="fill:#009F9F; fill-opacity:0.0; 
stroke:#009F9F; stroke-width:150; stroke-opacity:1; 
stroke-linecap:round; stroke-linejoin:round;">
<path d="M12600 22650
L9500 22650
" />
<path d="M9500 24950
L9500 20550
" />
<path d="M9500 20550
L12600 20550
" />
<path d="M12600 20550
L12600 24950
" />
<path d="M12600 24950
L9500 24950
" />
</g>
<g style="fill:#009F9F; fill-opacity:0.0; 
stroke:#009F9F; stroke-width:120; stroke-opacity:1; 
stroke-linecap:round; stroke-linejoin:round;">
<path d="M14750 21750
L14950 21750
" />
<path d="M17750 21750
L17550 21750
" />
<path d="M17550 21750
L17550 21350
" />
<path d="M17550 21350
L14950 21350
" />
<path d="M14950 21350
L14950 22150
" />
<path d="M14950 22150
L17550 22150
" />
<path d="M17550 22150
L17550 21750
" />
<path d="M14950 21550
L15150 21350
" />
<path d="M14750 24250
L14950 24250
" />
<path d="M17750 24250
L17550 24250
" />
<path d="M17550 24250
L17550 23850
" />
<path d="M17550 23850
L14950 23850
" />
<path d="M14950 23850
L14950 24650
" />
<path d="M14950 24650
L17550 24650
" />
<path d="M17550 24650
L17550 24250
" />
<path d="M14950 24050
L15150 23850
" />
<path d="M13500 23250
L13500 23450
" />
<path d="M13500 26250
L13500 26050
" />
<path d="M13500 26050
L13900 26050
" />
<path d="M13900 26050
L13900 23450
" />
<path d="M13900 23450
L13100 23450
" />
<path d="M13100 23450
L13100 26050
" />
<path d="M13100 26050
L13500 26050
" />
<path d="M13700 23450
L13900 23650
" />
<path d="M19750 20500
L19950 20500
" />
<path d="M22750 20500
L22550 20500
" />
<path d="M22550 20500
L22550 20100
" />
<path d="M22550 20100
L19950 20100
" />
<path d="M19950 20100
L19950 20900
" />
<path d="M19950 20900
L22550 20900
" />
<path d="M22550 20900
L22550 20500
" />
<path d="M19950 20300
L20150 20100
" />
</g>
<g style="fill:#009F9F; fill-opacity:0.0; 
stroke:#009F9F; stroke-width:80; stroke-opacity:1; 
stroke-linecap:round; stroke-linejoin:round;">
<path d="M19125 23375
L18625 22900
" />
<path d="M18625 23375
L19875 23375
" />
<path d="M19875 23375
L19875 22125
" />
<path d="M19875 22125
L18625 22125
" />
<path d="M18625 22125
L18625 23375
" />
</g>
<g style="fill:#009F9F; fill-opacity:0.0; 
stroke:#009F9F; stroke-width:50; stroke-opacity:1; 
stroke-linecap:round; stroke-linejoin:round;">
<circle cx="21750" cy="25500" r="1250" /> 
<circle cx="21750" cy="22750" r="1250" /> 
</g>
<g style="fill:#009F9F; fill-opacity:0.0; 
stroke:#009F9F; stroke-width:150; stroke-opacity:1; 
stroke-linecap:round; stroke-linejoin:round;">
<path d="M15250 22500
L15250 23500
" />
<path d="M15250 23500
L18250 23500
" />
<path d="M18250 23500
L18250 22500
" />
<path d="M18250 22500
L15250 22500
" />
</g>
<g style="fill:#009F9F; fill-opacity:0.0; 
stroke:#009F9F; stroke-width:120; stroke-opacity:1; 
stroke-linecap:round; stroke-linejoin:round;">
<path d="M15250 22750
L15500 22500
" />
</g>
<g style="fill:#009F9F; fill-opacity:0.0; 
stroke:#009F9F; stroke-width:150; stroke-opacity:1; 
stroke-linecap:round; stroke-linejoin:round;">
<path d="M18250 26000
L18250 25000
" />
<path d="M18250 25000
L15250 25000
" />
<path d="M15250 25000
L15250 26000
" />
<path d="M15250 26000
L18250 26000
" />
</g>
<g style="fill:#009F9F; fill-opacity:0.0; 
stroke:#009F9F; stroke-width:120; stroke-opacity:1; 
stroke-linecap:round; stroke-linejoin:round;">
<path d="M18250 25750
L18000 26000
" />
</g>
<g style="fill:#009F9F; fill-opacity:0.0; 
stroke:#009F9F; stroke-width:150; stroke-opacity:1; 
stroke-linecap:round; stroke-linejoin:round;">
<path d="M15250 20000
L15250 21000
" />
<path d="M15250 21000
L18250 21000
" />
<path d="M18250 21000
L18250 20000
" />
<path d="M18250 20000
L15250 20000
" />
</g>
<g style="fill:#009F9F; fill-opacity:0.0; 
stroke:#009F9F; stroke-width:120; stroke-opacity:1; 
stroke-linecap:round; stroke-linejoin:round;">
<path d="M15250 20250
L15500 20000
" />
</g>
<g style="fill:#009F9F; fill-opacity:0.0; 
stroke:#009F9F; stroke-width:150; stroke-opacity:1; 
stroke-linecap:round; stroke-linejoin:round;">
<path d="M24250 21500
L23250 21500
" />
<path d="M23250 21500
L23250 24500
" />
<path d="M23250 24500
L24250 24500
" />
<path d="M24250 24500
L24250 21500
" />
</g>
<g style="fill:#009F9F; fill-opacity:0.0; 
stroke:#009F9F; stroke-width:120; stroke-opacity:1; 
stroke-linecap:round; stroke-linejoin:round;">
<path d="M24000 21500
L24250 21750
" />
</g>
<g style="fill:#7F7F00; fill-opacity:0.0; 
stroke:#7F7F00; stroke-width:39.3701; stroke-opacity:1; 
stroke-linecap:round; stroke-linejoin:round;">
</g>
<g style="fill:#7F7F00; fill-opacity:1.0; 
stroke:#7F7F00; stroke-width:39.3701; stroke-opacity:1; 
stroke-linecap:round; stroke-linejoin:round;">
<polyline style="fill-rule:evenodd;"
points="24869,21619
25630,21619
25630,22380
24869,22380
24869,21619
" /> 
<circle cx="25250" cy="23000" r="380.315" /> 
<circle cx="25250" cy="24000" r="380.315" /> 
<polyline style="fill-rule:evenodd;"
points="11472,24222
10527,24222
10527,23277
11472,23277
11472,24222
" /> 
<circle cx="11000" cy="21750" r="472.315" /> 
<circle cx="14750" cy="21750" r="380.315" /> 
<circle cx="17750" cy="21750" r="380.315" /> 
<circle cx="14750" cy="24250" r="380.315" /> 
<circle cx="17750" cy="24250" r="380.315" /> 
<circle cx="13500" cy="23250" r="380.315" /> 
<circle cx="13500" cy="26250" r="380.315" /> 
<circle cx="19750" cy="20500" r="380.315" /> 
<circle cx="22750" cy="20500" r="380.315" /> 
<polyline style="fill-rule:evenodd;"
points="20869,25880
20869,25119
21630,25119
21630,25880
20869,25880
" /> 
<circle cx="22250" cy="25500" r="380.315" /> 
<polyline style="fill-rule:evenodd;"
points="20869,23130
20869,22369
21630,22369
21630,23130
20869,23130
" /> 
<circle cx="22250" cy="22750" r="380.315" /> 
<circle cx="15750" cy="23000" r="355.315" /> 
<circle cx="17750" cy="23000" r="355.315" /> 
<circle cx="17750" cy="25500" r="355.315" /> 
<circle cx="15750" cy="25500" r="355.315" /> 
<circle cx="15750" cy="20500" r="355.315" /> 
<circle cx="17750" cy="20500" r="355.315" /> 
<circle cx="23750" cy="22000" r="355.315" /> 
<circle cx="23750" cy="24000" r="355.315" /> 
</g> 
</svg>
