<?xml version="1.0" standalone="no"?>
 <!DOCTYPE svg PUBLIC "-//W3C//DTD SVG 1.1//EN" 
 "http://www.w3.org/Graphics/SVG/1.1/DTD/svg11.dtd"> 
<svg xmlns="http://www.w3.org/2000/svg" version="1.1" 
    width="41.9989cm" height="29.7002cm" viewBox="0 0 165350 116930 ">
<title>SVG Picture created as AD8495_Thermocouple_PCB_x1_30_11_13-B_Cu.svg date 2014/01/08 11:02:59 </title>
  <desc>Picture generated by PCBNEW </desc>
<g style="fill:#000000; fill-opacity:1;stroke:#000000; stroke-opacity:1;
stroke-linecap:round; stroke-linejoin:round; "
 transform="translate(0 0) scale(1 1)">
</g>
<g style="fill:#000000; fill-opacity:0.0; 
stroke:#000000; stroke-width:39.3701; stroke-opacity:1; 
stroke-linecap:round; stroke-linejoin:round;">
<path d="M4000 4000
L161350 4000
L161350 112930
L4000 112930
L4000 4000
" />
<path d="M4700 4700
L160650 4700
L160650 112230
L4700 112230
L4700 4700
" />
<path d="M26470 4000
L26470 4700
" />
<path d="M15382 4552
L15097 4552
" />
<path d="M15240 4552
L15240 4052
L15192 4123
L15144 4171
L15097 4195
" />
<path d="M26470 112930
L26470 112230
" />
<path d="M15382 112782
L15097 112782
" />
<path d="M15240 112782
L15240 112282
L15192 112353
L15144 112401
L15097 112425
" />
<path d="M48940 4000
L48940 4700
" />
<path d="M37567 4100
L37590 4076
L37638 4052
L37757 4052
L37805 4076
L37829 4100
L37852 4147
L37852 4195
L37829 4266
L37543 4552
L37852 4552
" />
<path d="M48940 112930
L48940 112230
" />
<path d="M37567 112330
L37590 112306
L37638 112282
L37757 112282
L37805 112306
L37829 112330
L37852 112377
L37852 112425
L37829 112496
L37543 112782
L37852 112782
" />
<path d="M71410 4000
L71410 4700
" />
<path d="M60013 4052
L60322 4052
L60156 4242
L60227 4242
L60275 4266
L60299 4290
L60322 4338
L60322 4457
L60299 4504
L60275 4528
L60227 4552
L60084 4552
L60037 4528
L60013 4504
" />
<path d="M71410 112930
L71410 112230
" />
<path d="M60013 112282
L60322 112282
L60156 112472
L60227 112472
L60275 112496
L60299 112520
L60322 112568
L60322 112687
L60299 112734
L60275 112758
L60227 112782
L60084 112782
L60037 112758
L60013 112734
" />
<path d="M93880 4000
L93880 4700
" />
<path d="M82745 4219
L82745 4552
" />
<path d="M82626 4028
L82507 4385
L82816 4385
" />
<path d="M93880 112930
L93880 112230
" />
<path d="M82745 112449
L82745 112782
" />
<path d="M82626 112258
L82507 112615
L82816 112615
" />
<path d="M116350 4000
L116350 4700
" />
<path d="M105239 4052
L105000 4052
L104977 4290
L105000 4266
L105048 4242
L105167 4242
L105215 4266
L105239 4290
L105262 4338
L105262 4457
L105239 4504
L105215 4528
L105167 4552
L105048 4552
L105000 4528
L104977 4504
" />
<path d="M116350 112930
L116350 112230
" />
<path d="M105239 112282
L105000 112282
L104977 112520
L105000 112496
L105048 112472
L105167 112472
L105215 112496
L105239 112520
L105262 112568
L105262 112687
L105239 112734
L105215 112758
L105167 112782
L105048 112782
L105000 112758
L104977 112734
" />
<path d="M138820 4000
L138820 4700
" />
<path d="M127685 4052
L127590 4052
L127542 4076
L127518 4100
L127470 4171
L127447 4266
L127447 4457
L127470 4504
L127494 4528
L127542 4552
L127637 4552
L127685 4528
L127709 4504
L127732 4457
L127732 4338
L127709 4290
L127685 4266
L127637 4242
L127542 4242
L127494 4266
L127470 4290
L127447 4338
" />
<path d="M138820 112930
L138820 112230
" />
<path d="M127685 112282
L127590 112282
L127542 112306
L127518 112330
L127470 112401
L127447 112496
L127447 112687
L127470 112734
L127494 112758
L127542 112782
L127637 112782
L127685 112758
L127709 112734
L127732 112687
L127732 112568
L127709 112520
L127685 112496
L127637 112472
L127542 112472
L127494 112496
L127470 112520
L127447 112568
" />
<path d="M149893 4052
L150226 4052
L150012 4552
" />
<path d="M149893 112282
L150226 112282
L150012 112782
" />
<path d="M4000 25780
L4700 25780
" />
<path d="M4230 14949
L4469 14949
" />
<path d="M4183 15092
L4350 14592
L4516 15092
" />
<path d="M161350 25780
L160650 25780
" />
<path d="M160880 14949
L161119 14949
" />
<path d="M160833 15092
L161000 14592
L161166 15092
" />
<path d="M4000 47560
L4700 47560
" />
<path d="M4385 36610
L4457 36634
L4480 36658
L4504 36705
L4504 36777
L4480 36824
L4457 36848
L4409 36872
L4219 36872
L4219 36372
L4385 36372
L4433 36396
L4457 36420
L4480 36467
L4480 36515
L4457 36562
L4433 36586
L4385 36610
L4219 36610
" />
<path d="M161350 47560
L160650 47560
" />
<path d="M161035 36610
L161107 36634
L161130 36658
L161154 36705
L161154 36777
L161130 36824
L161107 36848
L161059 36872
L160869 36872
L160869 36372
L161035 36372
L161083 36396
L161107 36420
L161130 36467
L161130 36515
L161107 36562
L161083 36586
L161035 36610
L160869 36610
" />
<path d="M4000 69340
L4700 69340
" />
<path d="M4504 58604
L4480 58628
L4409 58652
L4361 58652
L4290 58628
L4242 58580
L4219 58533
L4195 58438
L4195 58366
L4219 58271
L4242 58223
L4290 58176
L4361 58152
L4409 58152
L4480 58176
L4504 58200
" />
<path d="M161350 69340
L160650 69340
" />
<path d="M161154 58604
L161130 58628
L161059 58652
L161011 58652
L160940 58628
L160892 58580
L160869 58533
L160845 58438
L160845 58366
L160869 58271
L160892 58223
L160940 58176
L161011 58152
L161059 58152
L161130 58176
L161154 58200
" />
<path d="M4000 91120
L4700 91120
" />
<path d="M4219 80432
L4219 79932
L4338 79932
L4409 79956
L4457 80003
L4480 80051
L4504 80146
L4504 80218
L4480 80313
L4457 80360
L4409 80408
L4338 80432
L4219 80432
" />
<path d="M161350 91120
L160650 91120
" />
<path d="M160869 80432
L160869 79932
L160988 79932
L161059 79956
L161107 80003
L161130 80051
L161154 80146
L161154 80218
L161130 80313
L161107 80360
L161059 80408
L160988 80432
L160869 80432
" />
<path d="M4242 101950
L4409 101950
" />
<path d="M4480 102212
L4242 102212
L4242 101712
L4480 101712
" />
<path d="M160892 101950
L161059 101950
" />
<path d="M161130 102212
L160892 102212
L160892 101712
L161130 101712
" />
<path d="M127800 110672
L127875 110072
L128017 110072
L128100 110101
L128150 110158
L128171 110215
L128185 110330
L128175 110415
L128132 110530
L128096 110587
L128032 110644
L127942 110672
L127800 110672
" />
<path d="M128657 110672
L128696 110358
L128675 110301
L128621 110272
L128507 110272
L128446 110301
" />
<path d="M128660 110644
L128600 110672
L128457 110672
L128403 110644
L128382 110587
L128389 110530
L128425 110472
L128485 110444
L128628 110444
L128689 110415
" />
<path d="M128907 110272
L129135 110272
" />
<path d="M129017 110072
L128953 110587
L128975 110644
L129028 110672
L129085 110672
" />
<path d="M129517 110644
L129457 110672
L129342 110672
L129289 110644
L129267 110587
L129296 110358
L129332 110301
L129392 110272
L129507 110272
L129560 110301
L129582 110358
L129575 110415
L129282 110472
" />
<path d="M129807 110615
L129832 110644
L129800 110672
L129775 110644
L129807 110615
L129800 110672
" />
<path d="M129846 110301
L129871 110330
L129839 110358
L129814 110330
L129846 110301
L129839 110358
" />
<path d="M130671 110330
L130617 110301
L130592 110272
L130571 110215
L130575 110187
L130610 110130
L130642 110101
L130703 110072
L130817 110072
L130871 110101
L130896 110130
L130917 110187
L130914 110215
L130878 110272
L130846 110301
L130785 110330
L130671 110330
L130610 110358
L130578 110387
L130542 110444
L130528 110558
L130550 110615
L130575 110644
L130628 110672
L130742 110672
L130803 110644
L130835 110615
L130871 110558
L130885 110444
L130864 110387
L130839 110358
L130785 110330
" />
<path d="M131621 110272
L131557 110787
L131521 110844
L131460 110872
L131432 110872
" />
<path d="M131646 110072
L131614 110101
L131639 110130
L131671 110101
L131646 110072
L131639 110130
" />
<path d="M132114 110672
L132153 110358
L132132 110301
L132078 110272
L131964 110272
L131903 110301
" />
<path d="M132117 110644
L132057 110672
L131914 110672
L131860 110644
L131839 110587
L131846 110530
L131882 110472
L131942 110444
L132085 110444
L132146 110415
" />
<path d="M132450 110272
L132400 110672
" />
<path d="M132442 110330
L132475 110301
L132535 110272
L132621 110272
L132675 110301
L132696 110358
L132657 110672
" />
<path d="M133439 110130
L133471 110101
L133532 110072
L133675 110072
L133728 110101
L133753 110130
L133775 110187
L133767 110244
L133728 110330
L133342 110672
L133714 110672
" />
<path d="M134160 110072
L134217 110072
L134271 110101
L134296 110130
L134317 110187
L134332 110301
L134314 110444
L134271 110558
L134235 110615
L134203 110644
L134142 110672
L134085 110672
L134032 110644
L134007 110615
L133985 110558
L133971 110444
L133989 110301
L134032 110187
L134067 110130
L134100 110101
L134160 110072
" />
<path d="M134857 110672
L134514 110672
" />
<path d="M134685 110672
L134760 110072
L134692 110158
L134628 110215
L134567 110244
" />
<path d="M135421 110272
L135371 110672
" />
<path d="M135307 110044
L135110 110472
L135482 110472
" />
<path d="M119392 111872
L119392 111272
" />
<path d="M119735 111872
L119478 111530
" />
<path d="M119735 111272
L119392 111615
" />
<path d="M119992 111872
L119992 111472
" />
<path d="M119992 111272
L119964 111301
L119992 111330
L120021 111301
L119992 111272
L119992 111330
" />
<path d="M120621 111815
L120592 111844
L120507 111872
L120450 111872
L120364 111844
L120307 111787
L120278 111730
L120250 111615
L120250 111530
L120278 111415
L120307 111358
L120364 111301
L120450 111272
L120507 111272
L120592 111301
L120621 111330
" />
<path d="M121135 111872
L121135 111558
L121107 111501
L121050 111472
L120935 111472
L120878 111501
" />
<path d="M121135 111844
L121078 111872
L120935 111872
L120878 111844
L120850 111787
L120850 111730
L120878 111672
L120935 111644
L121078 111644
L121135 111615
" />
<path d="M121678 111872
L121678 111272
" />
<path d="M121678 111844
L121621 111872
L121507 111872
L121450 111844
L121421 111815
L121392 111758
L121392 111587
L121421 111530
L121450 111501
L121507 111472
L121621 111472
L121678 111501
" />
<path d="M122421 111558
L122621 111558
" />
<path d="M122707 111872
L122421 111872
L122421 111272
L122707 111272
" />
<path d="M122964 111815
L122992 111844
L122964 111872
L122935 111844
L122964 111815
L122964 111872
" />
<path d="M123249 111872
L123249 111272
L123392 111272
L123478 111301
L123535 111358
L123564 111415
L123592 111530
L123592 111615
L123564 111730
L123535 111787
L123478 111844
L123392 111872
L123249 111872
" />
<path d="M123849 111815
L123878 111844
L123849 111872
L123821 111844
L123849 111815
L123849 111872
" />
<path d="M124107 111701
L124392 111701
" />
<path d="M124049 111872
L124249 111272
L124449 111872
" />
<path d="M124649 111815
L124678 111844
L124649 111872
L124621 111844
L124649 111815
L124649 111872
" />
<path d="M152942 110672
L152778 110387
" />
<path d="M152600 110672
L152675 110072
L152903 110072
L152957 110101
L152982 110130
L153003 110187
L152992 110272
L152957 110330
L152925 110358
L152864 110387
L152635 110387
" />
<path d="M153432 110644
L153371 110672
L153257 110672
L153203 110644
L153182 110587
L153210 110358
L153246 110301
L153307 110272
L153421 110272
L153475 110301
L153496 110358
L153489 110415
L153196 110472
" />
<path d="M153707 110272
L153800 110672
L153992 110272
" />
<path d="M154178 110615
L154203 110644
L154171 110672
L154146 110644
L154178 110615
L154171 110672
" />
<path d="M154217 110301
L154242 110330
L154210 110358
L154185 110330
L154217 110301
L154210 110358
" />
<path d="M119364 110644
L119450 110672
L119592 110672
L119650 110644
L119678 110615
L119707 110558
L119707 110501
L119678 110444
L119650 110415
L119592 110387
L119478 110358
L119421 110330
L119392 110301
L119364 110244
L119364 110187
L119392 110130
L119421 110101
L119478 110072
L119621 110072
L119707 110101
" />
<path d="M119964 110672
L119964 110272
" />
<path d="M119964 110072
L119935 110101
L119964 110130
L119992 110101
L119964 110072
L119964 110130
" />
<path d="M120192 110272
L120507 110272
L120192 110672
L120507 110672
" />
<path d="M120964 110644
L120907 110672
L120792 110672
L120735 110644
L120707 110587
L120707 110358
L120735 110301
L120792 110272
L120907 110272
L120964 110301
L120992 110358
L120992 110415
L120707 110472
" />
<path d="M121250 110615
L121278 110644
L121250 110672
L121221 110644
L121250 110615
L121250 110672
" />
<path d="M121250 110301
L121278 110330
L121250 110358
L121221 110330
L121250 110301
L121250 110358
" />
<path d="M121964 110501
L122250 110501
" />
<path d="M121907 110672
L122107 110072
L122307 110672
" />
<path d="M122450 110072
L122821 110072
L122621 110301
L122707 110301
L122764 110330
L122792 110358
L122821 110415
L122821 110558
L122792 110615
L122764 110644
L122707 110672
L122535 110672
L122478 110644
L122450 110615
" />
<path d="M152592 111872
L152592 111272
" />
<path d="M153135 111872
L153135 111272
" />
<path d="M153135 111844
L153078 111872
L152964 111872
L152907 111844
L152878 111815
L152850 111758
L152850 111587
L152878 111530
L152907 111501
L152964 111472
L153078 111472
L153135 111501
" />
<path d="M153421 111815
L153450 111844
L153421 111872
L153392 111844
L153421 111815
L153421 111872
" />
<path d="M153421 111501
L153450 111530
L153421 111558
L153392 111530
L153421 111501
L153421 111558
" />
<path d="M154478 111872
L154135 111872
" />
<path d="M154307 111872
L154307 111272
L154249 111358
L154192 111415
L154135 111444
" />
<path d="M155164 111244
L154650 112015
" />
<path d="M155678 111872
L155335 111872
" />
<path d="M155507 111872
L155507 111272
L155449 111358
L155392 111415
L155335 111444
" />
<path d="M119389 108872
L119732 108872
" />
<path d="M119485 109472
L119560 108872
" />
<path d="M119857 109472
L119907 109072
" />
<path d="M119932 108872
L119900 108901
L119925 108930
L119957 108901
L119932 108872
L119925 108930
" />
<path d="M120107 109072
L120335 109072
" />
<path d="M120217 108872
L120153 109387
L120175 109444
L120228 109472
L120285 109472
" />
<path d="M120571 109472
L120517 109444
L120496 109387
L120560 108872
" />
<path d="M121032 109444
L120971 109472
L120857 109472
L120803 109444
L120782 109387
L120810 109158
L120846 109101
L120907 109072
L121021 109072
L121075 109101
L121096 109158
L121089 109215
L120796 109272
" />
<path d="M121321 109415
L121346 109444
L121314 109472
L121289 109444
L121321 109415
L121314 109472
" />
<path d="M121360 109101
L121385 109130
L121353 109158
L121328 109130
L121360 109101
L121353 109158
" />
<path d="M119592 106758
L119392 106758
" />
<path d="M119392 107072
L119392 106472
L119678 106472
" />
<path d="M119907 107072
L119907 106672
" />
<path d="M119907 106472
L119878 106501
L119907 106530
L119935 106501
L119907 106472
L119907 106530
" />
<path d="M120278 107072
L120221 107044
L120192 106987
L120192 106472
" />
<path d="M120735 107044
L120678 107072
L120564 107072
L120507 107044
L120478 106987
L120478 106758
L120507 106701
L120564 106672
L120678 106672
L120735 106701
L120764 106758
L120764 106815
L120478 106872
" />
<path d="M121021 107015
L121050 107044
L121021 107072
L120992 107044
L121021 107015
L121021 107072
" />
<path d="M121021 106701
L121050 106730
L121021 106758
L120992 106730
L121021 106701
L121021 106758
" />
<path d="M121735 106901
L122021 106901
" />
<path d="M121678 107072
L121878 106472
L122078 107072
" />
<path d="M122278 107072
L122278 106472
L122421 106472
L122507 106501
L122564 106558
L122592 106615
L122621 106730
L122621 106815
L122592 106930
L122564 106987
L122507 107044
L122421 107072
L122278 107072
" />
<path d="M122964 106730
L122907 106701
L122878 106672
L122850 106615
L122850 106587
L122878 106530
L122907 106501
L122964 106472
L123078 106472
L123135 106501
L123164 106530
L123192 106587
L123192 106615
L123164 106672
L123135 106701
L123078 106730
L122964 106730
L122907 106758
L122878 106787
L122850 106844
L122850 106958
L122878 107015
L122907 107044
L122964 107072
L123078 107072
L123135 107044
L123164 107015
L123192 106958
L123192 106844
L123164 106787
L123135 106758
L123078 106730
" />
<path d="M123707 106672
L123707 107072
" />
<path d="M123564 106444
L123421 106872
L123792 106872
" />
<path d="M124050 107072
L124164 107072
L124221 107044
L124250 107015
L124307 106930
L124335 106815
L124335 106587
L124307 106530
L124278 106501
L124221 106472
L124107 106472
L124050 106501
L124021 106530
L123992 106587
L123992 106730
L124021 106787
L124050 106815
L124107 106844
L124221 106844
L124278 106815
L124307 106787
L124335 106730
" />
<path d="M124878 106472
L124592 106472
L124564 106758
L124592 106730
L124650 106701
L124792 106701
L124850 106730
L124878 106758
L124907 106815
L124907 106958
L124878 107015
L124850 107044
L124792 107072
L124650 107072
L124592 107044
L124564 107015
" />
<path d="M125021 107130
L125478 107130
" />
<path d="M125535 106472
L125878 106472
" />
<path d="M125707 107072
L125707 106472
" />
<path d="M126078 107072
L126078 106472
" />
<path d="M126335 107072
L126335 106758
L126307 106701
L126250 106672
L126164 106672
L126107 106701
L126078 106730
" />
<path d="M126850 107044
L126792 107072
L126678 107072
L126621 107044
L126592 106987
L126592 106758
L126621 106701
L126678 106672
L126792 106672
L126850 106701
L126878 106758
L126878 106815
L126592 106872
" />
<path d="M127135 107072
L127135 106672
" />
<path d="M127135 106787
L127164 106730
L127192 106701
L127250 106672
L127307 106672
" />
<path d="M127507 107072
L127507 106672
" />
<path d="M127507 106730
L127535 106701
L127592 106672
L127678 106672
L127735 106701
L127764 106758
L127764 107072
" />
<path d="M127764 106758
L127792 106701
L127850 106672
L127935 106672
L127992 106701
L128021 106758
L128021 107072
" />
<path d="M128392 107072
L128335 107044
L128307 107015
L128278 106958
L128278 106787
L128307 106730
L128335 106701
L128392 106672
L128478 106672
L128535 106701
L128564 106730
L128592 106787
L128592 106958
L128564 107015
L128535 107044
L128478 107072
L128392 107072
" />
<path d="M129107 107044
L129050 107072
L128935 107072
L128878 107044
L128850 107015
L128821 106958
L128821 106787
L128850 106730
L128878 106701
L128935 106672
L129050 106672
L129107 106701
" />
<path d="M129450 107072
L129392 107044
L129364 107015
L129335 106958
L129335 106787
L129364 106730
L129392 106701
L129450 106672
L129535 106672
L129592 106701
L129621 106730
L129650 106787
L129650 106958
L129621 107015
L129592 107044
L129535 107072
L129450 107072
" />
<path d="M130164 106672
L130164 107072
" />
<path d="M129907 106672
L129907 106987
L129935 107044
L129992 107072
L130078 107072
L130135 107044
L130164 107015
" />
<path d="M130450 106672
L130450 107272
" />
<path d="M130450 106701
L130507 106672
L130621 106672
L130678 106701
L130707 106730
L130735 106787
L130735 106958
L130707 107015
L130678 107044
L130621 107072
L130507 107072
L130450 107044
" />
<path d="M131078 107072
L131021 107044
L130992 106987
L130992 106472
" />
<path d="M131535 107044
L131478 107072
L131364 107072
L131307 107044
L131278 106987
L131278 106758
L131307 106701
L131364 106672
L131478 106672
L131535 106701
L131564 106758
L131564 106815
L131278 106872
" />
<path d="M131678 107130
L132135 107130
" />
<path d="M132278 107072
L132278 106472
L132507 106472
L132564 106501
L132592 106530
L132621 106587
L132621 106672
L132592 106730
L132564 106758
L132507 106787
L132278 106787
" />
<path d="M133221 107015
L133192 107044
L133107 107072
L133050 107072
L132964 107044
L132907 106987
L132878 106930
L132850 106815
L132850 106730
L132878 106615
L132907 106558
L132964 106501
L133050 106472
L133107 106472
L133192 106501
L133221 106530
" />
<path d="M133678 106758
L133764 106787
L133792 106815
L133821 106872
L133821 106958
L133792 107015
L133764 107044
L133707 107072
L133478 107072
L133478 106472
L133678 106472
L133735 106501
L133764 106530
L133792 106587
L133792 106644
L133764 106701
L133735 106730
L133678 106758
L133478 106758
" />
<path d="M133935 107130
L134392 107130
" />
<path d="M134478 107072
L134792 106672
" />
<path d="M134478 106672
L134792 107072
" />
<path d="M135335 107072
L134992 107072
" />
<path d="M135164 107072
L135164 106472
L135107 106558
L135050 106615
L134992 106644
" />
<path d="M135450 107130
L135907 107130
" />
<path d="M135992 106472
L136364 106472
L136164 106701
L136250 106701
L136307 106730
L136335 106758
L136364 106815
L136364 106958
L136335 107015
L136307 107044
L136250 107072
L136078 107072
L136021 107044
L135992 107015
" />
<path d="M136735 106472
L136792 106472
L136850 106501
L136878 106530
L136907 106587
L136935 106701
L136935 106844
L136907 106958
L136878 107015
L136850 107044
L136792 107072
L136735 107072
L136678 107044
L136650 107015
L136621 106958
L136592 106844
L136592 106701
L136621 106587
L136650 106530
L136678 106501
L136735 106472
" />
<path d="M137050 107130
L137507 107130
" />
<path d="M137964 107072
L137621 107072
" />
<path d="M137792 107072
L137792 106472
L137735 106558
L137678 106615
L137621 106644
" />
<path d="M138535 107072
L138192 107072
" />
<path d="M138364 107072
L138364 106472
L138307 106558
L138250 106615
L138192 106644
" />
<path d="M138650 107130
L139107 107130
" />
<path d="M139564 107072
L139221 107072
" />
<path d="M139392 107072
L139392 106472
L139335 106558
L139278 106615
L139221 106644
" />
<path d="M139764 106472
L140135 106472
L139935 106701
L140021 106701
L140078 106730
L140107 106758
L140135 106815
L140135 106958
L140107 107015
L140078 107044
L140021 107072
L139850 107072
L139792 107044
L139764 107015
" />
<path d="M140392 107015
L140421 107044
L140392 107072
L140364 107044
L140392 107015
L140392 107072
" />
<path d="M140678 107072
L140678 106472
" />
<path d="M140735 106844
L140907 107072
" />
<path d="M140907 106672
L140678 106901
" />
<path d="M141164 107072
L141164 106672
" />
<path d="M141164 106472
L141135 106501
L141164 106530
L141192 106501
L141164 106472
L141164 106530
" />
<path d="M141707 107044
L141650 107072
L141535 107072
L141478 107044
L141450 107015
L141421 106958
L141421 106787
L141450 106730
L141478 106701
L141535 106672
L141650 106672
L141707 106701
" />
<path d="M142221 107072
L142221 106758
L142192 106701
L142135 106672
L142021 106672
L141964 106701
" />
<path d="M142221 107044
L142164 107072
L142021 107072
L141964 107044
L141935 106987
L141935 106930
L141964 106872
L142021 106844
L142164 106844
L142221 106815
" />
<path d="M142764 107072
L142764 106472
" />
<path d="M142764 107044
L142707 107072
L142592 107072
L142535 107044
L142507 107015
L142478 106958
L142478 106787
L142507 106730
L142535 106701
L142592 106672
L142707 106672
L142764 106701
" />
<path d="M142907 107130
L143364 107130
" />
<path d="M143507 106672
L143507 107272
" />
<path d="M143507 106701
L143564 106672
L143678 106672
L143735 106701
L143764 106730
L143792 106787
L143792 106958
L143764 107015
L143735 107044
L143678 107072
L143564 107072
L143507 107044
" />
<path d="M144307 107044
L144250 107072
L144135 107072
L144078 107044
L144050 107015
L144021 106958
L144021 106787
L144050 106730
L144078 106701
L144135 106672
L144250 106672
L144307 106701
" />
<path d="M144564 107072
L144564 106472
" />
<path d="M144564 106701
L144621 106672
L144735 106672
L144792 106701
L144821 106730
L144850 106787
L144850 106958
L144821 107015
L144792 107044
L144735 107072
L144621 107072
L144564 107044
" />
<path d="M119364 108244
L119450 108272
L119592 108272
L119650 108244
L119678 108215
L119707 108158
L119707 108101
L119678 108044
L119650 108015
L119592 107987
L119478 107958
L119421 107930
L119392 107901
L119364 107844
L119364 107787
L119392 107730
L119421 107701
L119478 107672
L119621 107672
L119707 107701
" />
<path d="M119964 108272
L119964 107672
" />
<path d="M120221 108272
L120221 107958
L120192 107901
L120135 107872
L120050 107872
L119992 107901
L119964 107930
" />
<path d="M120735 108244
L120678 108272
L120564 108272
L120507 108244
L120478 108187
L120478 107958
L120507 107901
L120564 107872
L120678 107872
L120735 107901
L120764 107958
L120764 108015
L120478 108072
" />
<path d="M121250 108244
L121192 108272
L121078 108272
L121021 108244
L120992 108187
L120992 107958
L121021 107901
L121078 107872
L121192 107872
L121250 107901
L121278 107958
L121278 108015
L120992 108072
" />
<path d="M121450 107872
L121678 107872
" />
<path d="M121535 107672
L121535 108187
L121564 108244
L121621 108272
L121678 108272
" />
<path d="M121878 108215
L121907 108244
L121878 108272
L121850 108244
L121878 108215
L121878 108272
" />
<path d="M121878 107901
L121907 107930
L121878 107958
L121850 107930
L121878 107901
L121878 107958
" />
<path d="M118650 106230
L118650 112230
" />
<path d="M118650 106230
L160650 106230
" />
<path d="M118650 106230
L160650 106230
" />
<path d="M118650 108630
L160650 108630
" />
<path d="M151850 109830
L151850 112230
" />
<path d="M118650 111030
L160650 111030
" />
<path d="M118650 109830
L160650 109830
" />
<path d="M125250 109830
L125250 111030
" />
</g>
<g style="fill:#FFFF00; fill-opacity:0.0; 
stroke:#FFFF00; stroke-width:39.3701; stroke-opacity:1; 
stroke-linecap:round; stroke-linejoin:round;">
<path d="M9000 27500
L28000 27500
" />
<path d="M9000 18500
L9000 27500
" />
<path d="M28000 18500
L9000 18500
" />
<path d="M28000 27500
L28000 18500
" />
<path d="M28000 27500
L9000 27500
" />
<path d="M9000 18500
L28000 18500
" />
</g>
<g style="fill:#009F00; fill-opacity:0.0; 
stroke:#009F00; stroke-width:118.11; stroke-opacity:1; 
stroke-linecap:round; stroke-linejoin:round;">
<path d="M23246 26739
L23246 26345
" />
<path d="M23246 26457
L23218 26401
L23190 26373
L23133 26345
L23077 26345
" />
<path d="M22655 26710
L22712 26739
L22824 26739
L22880 26710
L22908 26654
L22908 26429
L22880 26373
L22824 26345
L22712 26345
L22655 26373
L22627 26429
L22627 26485
L22908 26542
" />
<path d="M22374 26514
L21924 26514
" />
<path d="M21643 26739
L21643 26345
" />
<path d="M21643 26148
L21671 26176
L21643 26204
L21615 26176
L21643 26148
L21643 26204
" />
<path d="M21362 26345
L21362 26739
" />
<path d="M21362 26401
L21334 26373
L21277 26345
L21193 26345
L21137 26373
L21109 26429
L21109 26739
" />
<path d="M20827 26345
L20827 26739
" />
<path d="M20827 26401
L20799 26373
L20743 26345
L20659 26345
L20602 26373
L20574 26429
L20574 26739
" />
<path d="M20209 26739
L20265 26710
L20293 26682
L20321 26626
L20321 26457
L20293 26401
L20265 26373
L20209 26345
L20124 26345
L20068 26373
L20040 26401
L20012 26457
L20012 26626
L20040 26682
L20068 26710
L20124 26739
L20209 26739
" />
<path d="M19815 26345
L19674 26739
L19534 26345
" />
<path d="M19056 26739
L19056 26429
L19084 26373
L19140 26345
L19253 26345
L19309 26373
" />
<path d="M19056 26710
L19112 26739
L19253 26739
L19309 26710
L19337 26654
L19337 26598
L19309 26542
L19253 26514
L19112 26514
L19056 26485
" />
<path d="M18859 26345
L18634 26345
" />
<path d="M18775 26148
L18775 26654
L18746 26710
L18690 26739
L18634 26739
" />
<path d="M18437 26739
L18437 26345
" />
<path d="M18437 26148
L18465 26176
L18437 26204
L18409 26176
L18437 26148
L18437 26204
" />
<path d="M18071 26739
L18128 26710
L18156 26682
L18184 26626
L18184 26457
L18156 26401
L18128 26373
L18071 26345
L17987 26345
L17931 26373
L17903 26401
L17875 26457
L17875 26626
L17903 26682
L17931 26710
L17987 26739
L18071 26739
" />
<path d="M17622 26345
L17622 26739
" />
<path d="M17622 26401
L17593 26373
L17537 26345
L17453 26345
L17397 26373
L17368 26429
L17368 26739
" />
<path d="M17087 26682
L17059 26710
L17087 26739
L17115 26710
L17087 26682
L17087 26739
" />
<path d="M16553 26710
L16609 26739
L16722 26739
L16778 26710
L16806 26682
L16834 26626
L16834 26457
L16806 26401
L16778 26373
L16722 26345
L16609 26345
L16553 26373
" />
<path d="M16215 26739
L16272 26710
L16300 26682
L16328 26626
L16328 26457
L16300 26401
L16272 26373
L16215 26345
L16131 26345
L16075 26373
L16047 26401
L16019 26457
L16019 26626
L16047 26682
L16075 26710
L16131 26739
L16215 26739
" />
<path d="M15766 26682
L15737 26710
L15766 26739
L15794 26710
L15766 26682
L15766 26739
" />
<path d="M15231 26345
L15231 26739
" />
<path d="M15484 26345
L15484 26654
L15456 26710
L15400 26739
L15316 26739
L15259 26710
L15231 26682
" />
<path d="M14950 26739
L14950 26148
" />
<path d="M14894 26514
L14725 26739
" />
<path d="M14725 26345
L14950 26570
" />
</g>
<g style="fill:#7F7F00; fill-opacity:0.0; 
stroke:#7F7F00; stroke-width:39.3701; stroke-opacity:1; 
stroke-linecap:round; stroke-linejoin:round;">
</g>
<g style="fill:#7F7F00; fill-opacity:1.0; 
stroke:#7F7F00; stroke-width:39.3701; stroke-opacity:1; 
stroke-linecap:round; stroke-linejoin:round;">
<polyline style="fill-rule:evenodd;"
points="24869,21619
25630,21619
25630,22380
24869,22380
24869,21619
" /> 
<circle cx="25250" cy="23000" r="380.315" /> 
<circle cx="25250" cy="24000" r="380.315" /> 
<polyline style="fill-rule:evenodd;"
points="11472,24222
10527,24222
10527,23277
11472,23277
11472,24222
" /> 
<circle cx="11000" cy="21750" r="472.315" /> 
<circle cx="14750" cy="21750" r="380.315" /> 
<circle cx="17750" cy="21750" r="380.315" /> 
<circle cx="14750" cy="24250" r="380.315" /> 
<circle cx="17750" cy="24250" r="380.315" /> 
<circle cx="13500" cy="23250" r="380.315" /> 
<circle cx="13500" cy="26250" r="380.315" /> 
<circle cx="19750" cy="20500" r="380.315" /> 
<circle cx="22750" cy="20500" r="380.315" /> 
<polyline style="fill-rule:evenodd;"
points="20869,25880
20869,25119
21630,25119
21630,25880
20869,25880
" /> 
<circle cx="22250" cy="25500" r="380.315" /> 
<polyline style="fill-rule:evenodd;"
points="20869,23130
20869,22369
21630,22369
21630,23130
20869,23130
" /> 
<circle cx="22250" cy="22750" r="380.315" /> 
<circle cx="15750" cy="23000" r="355.315" /> 
<circle cx="17750" cy="23000" r="355.315" /> 
<circle cx="17750" cy="25500" r="355.315" /> 
<circle cx="15750" cy="25500" r="355.315" /> 
<circle cx="15750" cy="20500" r="355.315" /> 
<circle cx="17750" cy="20500" r="355.315" /> 
<circle cx="23750" cy="22000" r="355.315" /> 
<circle cx="23750" cy="24000" r="355.315" /> 
</g>
<g style="fill:#BFBFBF; fill-opacity:1.0; 
stroke:#BFBFBF; stroke-width:39.3701; stroke-opacity:1; 
stroke-linecap:round; stroke-linejoin:round;">
<circle cx="19250" cy="24500" r="155.315" /> 
</g>
<g style="fill:#009F00; fill-opacity:1.0; 
stroke:#009F00; stroke-width:200; stroke-opacity:1; 
stroke-linecap:round; stroke-linejoin:round;">
<path d="M19250 24500
L22250 24500
" />
<path d="M23750 24000
L22250 24000
" />
<path d="M22250 25500
L22250 24500
" />
<path d="M22250 24500
L22250 24000
" />
<path d="M22250 24000
L22250 22750
" />
<path d="M23750 24000
L25250 24000
" />
<path d="M13500 26250
L13500 26000
" />
<path d="M14000 25500
L15750 25500
" />
<path d="M13500 26000
L14000 25500
" />
<path d="M15750 25500
L15750 24250
" />
<path d="M15750 22000
L15750 20500
" />
<path d="M15000 22750
L15750 22000
" />
<path d="M15000 23500
L15000 22750
" />
<path d="M15750 24250
L15000 23500
" />
<path d="M25250 23000
L23500 23000
" />
<path d="M22750 22250
L22750 20500
" />
<path d="M23500 23000
L22750 22250
" />
<path d="M21250 22750
L21250 22000
" />
<path d="M21250 22000
L22750 20500
" />
<path d="M11000 21750
L14750 21750
" />
<path d="M13500 23250
L13500 23750
" />
<path d="M11000 23750
L13500 23750
" />
<path d="M13500 23750
L14250 23750
" />
<path d="M14250 23750
L14750 24250
" />
</g>
<g style="fill:#009F00; fill-opacity:1.0; 
stroke:#009F00; stroke-width:100; stroke-opacity:1; 
stroke-linecap:round; stroke-linejoin:round;">
<path d="M14250 23750
L14750 24250
" />
</g>
<g style="fill:#009F00; fill-opacity:1.0; 
stroke:#009F00; stroke-width:200; stroke-opacity:1; 
stroke-linecap:round; stroke-linejoin:round;">
<path d="M17750 25500
L17750 24250
" />
<path d="M17750 24250
L17750 23000
" />
<path d="M17750 21750
L17750 20500
" />
<path d="M15750 23000
L16500 23000
" />
<path d="M16500 23000
L17750 21750
" />
<path d="M25250 22000
L23750 22000
" />
</g>
<g style="fill:#009F00; fill-opacity:1.0; 
stroke:#009F00; stroke-width:39.3701; stroke-opacity:1; 
stroke-linecap:round; stroke-linejoin:round;">
<polyline style="fill-rule:evenodd;"
points="27730,27230
25904,27230
25904,24105
25900,23991
25900,22871
25801,22632
25784,22615
25791,22612
25861,22541
25899,22449
25900,22350
25900,21550
25862,21458
25791,21388
25699,21350
25600,21349
24800,21349
24708,21387
24638,21458
24600,21550
24599,21649
24599,21650
24281,21650
24280,21646
24104,21470
23874,21375
23626,21374
23396,21469
23220,21645
23125,21875
23124,22123
23129,22134
23100,22105
23100,21058
23117,21051
23300,20868
23399,20629
23400,20371
23301,20132
23118,19949
22879,19850
22621,19849
22382,19948
22199,20131
22100,20370
22099,20628
22107,20647
21002,21752
20926,21866
20900,22000
20900,22099
20800,22099
20708,22137
20638,22208
20600,22300
20599,22399
20599,23199
20637,23291
20708,23361
20800,23399
20899,23400
21699,23400
21791,23362
21861,23291
21878,23251
21902,23314
22144,23404
22402,23394
22597,23314
22637,23208
22250,22820
22244,22826
22173,22755
22179,22750
22173,22744
22244,22673
22250,22679
22255,22673
22326,22744
22320,22750
22708,23137
22814,23097
22892,22887
23252,23247
23252,23247
23366,23323
23499,23350
23499,23349
23500,23350
24691,23350
24698,23367
24865,23534
24862,23541
25250,23929
25637,23541
25634,23534
25800,23368
25899,23129
25900,22871
25900,23991
25894,23847
25814,23652
25708,23612
25320,24000
25708,24387
25814,24347
25904,24105
25904,27230
25637,27230
25637,24458
25250,24070
25179,24141
25179,24000
24791,23612
24685,23652
24595,23894
24605,24152
24685,24347
24791,24387
25179,24000
25179,24141
24862,24458
24902,24564
25144,24654
25402,24644
25597,24564
25637,24458
25637,27230
24379,27230
24379,24099
24369,23851
24293,23667
24190,23630
24119,23701
24119,23559
24082,23456
23849,23370
23601,23380
23417,23456
23380,23559
23750,23929
24119,23559
24119,23701
23820,24000
24190,24369
24293,24332
24379,24099
24379,27230
24119,27230
24119,24440
23750,24070
23679,24141
23679,24000
23309,23630
23206,23667
23120,23900
23130,24148
23206,24332
23309,24369
23679,24000
23679,24141
23380,24440
23417,24543
23650,24629
23898,24619
24082,24543
24119,24440
24119,27230
23696,27230
23696,27222
23696,25659
22884,25659
22904,25605
22894,25347
22814,25152
22708,25112
22320,25500
22326,25505
22255,25576
22250,25570
22244,25576
22173,25505
22179,25500
22173,25494
22244,25423
22250,25429
22637,25041
22597,24935
22355,24845
22097,24855
21902,24935
21878,24998
21862,24958
21791,24888
21699,24850
21600,24849
20800,24849
20708,24887
20638,24958
20600,25050
20599,25149
20599,25659
20400,25659
20400,20371
20301,20132
20118,19949
19879,19850
19621,19849
19382,19948
19199,20131
19100,20370
19099,20628
19198,20867
19381,21050
19620,21149
19878,21150
20117,21051
20300,20868
20399,20629
20400,20371
20400,25659
18360,25659
18374,25624
18375,25376
18280,25146
18104,24970
18100,24968
18100,24808
18117,24801
18300,24618
18399,24379
18400,24121
18301,23882
18118,23699
18100,23691
18100,23531
18103,23530
18279,23354
18374,23124
18375,22876
18280,22646
18104,22470
17906,22388
18117,22301
18300,22118
18399,21879
18400,21621
18301,21382
18118,21199
18100,21191
18100,21031
18103,21030
18279,20854
18374,20624
18375,20376
18280,20146
18104,19970
17874,19875
17626,19874
17396,19969
17220,20145
17125,20375
17124,20623
17219,20853
17395,21029
17400,21031
17400,21191
17382,21198
17199,21381
17100,21620
17099,21878
17107,21897
16379,22625
16379,20599
16369,20351
16293,20167
16190,20130
16119,20201
16119,20059
16082,19956
15849,19870
15601,19880
15417,19956
15380,20059
15750,20429
16119,20059
16119,20201
15820,20500
16190,20869
16293,20832
16379,20599
16379,22625
16355,22650
16281,22650
16280,22646
16119,22485
16119,20940
15750,20570
15679,20641
15679,20500
15309,20130
15206,20167
15120,20400
15130,20648
15206,20832
15309,20869
15679,20500
15679,20641
15380,20940
15417,21043
15650,21129
15898,21119
16082,21043
16119,20940
16119,22485
16104,22470
15874,22375
15626,22374
15400,22468
15400,21621
15301,21382
15118,21199
14879,21100
14621,21099
14382,21198
14199,21381
14191,21400
11658,21400
11629,21330
11420,21121
11148,21008
10853,21007
10580,21120
10371,21329
10258,21601
10257,21896
10370,22169
10579,22378
10851,22491
11146,22492
11419,22379
11628,22170
11658,22100
14191,22100
14198,22117
14381,22300
14620,22399
14878,22400
15117,22301
15300,22118
15399,21879
15400,21621
15400,22468
15396,22469
15220,22645
15125,22875
15124,23123
15219,23353
15395,23529
15625,23624
15873,23625
16103,23530
16279,23354
16281,23350
16500,23350
16633,23323
16633,23323
16747,23247
17128,22866
17125,22875
17124,23123
17219,23353
17395,23529
17400,23531
17400,23691
17382,23698
17199,23881
17100,24120
17099,24378
17198,24617
17381,24800
17400,24808
17400,24968
17396,24969
17220,25145
17125,25375
17124,25623
17139,25659
16357,25659
16379,25599
16369,25351
16293,25167
16190,25130
16119,25201
16119,25059
16082,24956
15849,24870
15601,24880
15417,24956
15400,25004
15400,24121
15301,23882
15118,23699
14879,23600
14621,23599
14602,23607
14497,23502
14383,23426
14250,23400
14141,23400
14149,23379
14150,23121
14051,22882
13868,22699
13629,22600
13371,22599
13132,22698
12949,22881
12850,23120
12849,23378
12858,23400
11742,23400
11742,23208
11704,23116
11633,23046
11541,23008
11442,23007
10458,23007
10366,23045
10296,23116
10258,23208
10257,23307
10257,24291
10295,24383
10366,24453
10458,24491
10557,24492
11541,24492
11633,24454
11703,24383
11741,24291
11742,24192
11742,24100
13500,24100
14105,24100
14107,24102
14100,24120
14099,24378
14198,24617
14381,24800
14620,24899
14878,24900
15117,24801
15300,24618
15399,24379
15400,24121
15400,25004
15380,25059
15750,25429
16119,25059
16119,25201
15820,25500
15826,25505
15755,25576
15750,25570
15744,25576
15673,25505
15679,25500
15309,25130
15206,25167
15120,25400
15130,25648
15134,25659
14303,25659
14303,27222
23696,27222
23696,27230
14154,27230
14154,26355
14144,26097
14064,25902
13958,25862
13887,25933
13887,25791
13847,25685
13605,25595
13347,25605
13152,25685
13112,25791
13500,26179
13887,25791
13887,25933
13570,26250
13958,26637
14064,26597
14154,26355
14154,27230
13887,27230
13887,26708
13500,26320
13429,26391
13429,26250
13041,25862
12935,25902
12845,26144
12855,26402
12935,26597
13041,26637
13429,26250
13429,26391
13112,26708
13152,26814
13394,26904
13652,26894
13847,26814
13887,26708
13887,27230
9269,27230
9269,18769
27730,18769
27730,27230
" /> 
</g>
<g style="fill:#009F00; fill-opacity:0.0; 
stroke:#009F00; stroke-width:100; stroke-opacity:1; 
stroke-linecap:round; stroke-linejoin:round;">
<polyline fill="none;"
points="27730,27230
25904,27230
25904,24105
25900,23991
25900,22871
25801,22632
25784,22615
25791,22612
25861,22541
25899,22449
25900,22350
25900,21550
25862,21458
25791,21388
25699,21350
25600,21349
24800,21349
24708,21387
24638,21458
24600,21550
24599,21649
24599,21650
24281,21650
24280,21646
24104,21470
23874,21375
23626,21374
23396,21469
23220,21645
23125,21875
23124,22123
23129,22134
23100,22105
23100,21058
23117,21051
23300,20868
23399,20629
23400,20371
23301,20132
23118,19949
22879,19850
22621,19849
22382,19948
22199,20131
22100,20370
22099,20628
22107,20647
21002,21752
20926,21866
20900,22000
20900,22099
20800,22099
20708,22137
20638,22208
20600,22300
20599,22399
20599,23199
20637,23291
20708,23361
20800,23399
20899,23400
21699,23400
21791,23362
21861,23291
21878,23251
21902,23314
22144,23404
22402,23394
22597,23314
22637,23208
22250,22820
22244,22826
22173,22755
22179,22750
22173,22744
22244,22673
22250,22679
22255,22673
22326,22744
22320,22750
22708,23137
22814,23097
22892,22887
23252,23247
23252,23247
23366,23323
23499,23350
23499,23349
23500,23350
24691,23350
24698,23367
24865,23534
24862,23541
25250,23929
25637,23541
25634,23534
25800,23368
25899,23129
25900,22871
25900,23991
25894,23847
25814,23652
25708,23612
25320,24000
25708,24387
25814,24347
25904,24105
25904,27230
25637,27230
25637,24458
25250,24070
25179,24141
25179,24000
24791,23612
24685,23652
24595,23894
24605,24152
24685,24347
24791,24387
25179,24000
25179,24141
24862,24458
24902,24564
25144,24654
25402,24644
25597,24564
25637,24458
25637,27230
24379,27230
24379,24099
24369,23851
24293,23667
24190,23630
24119,23701
24119,23559
24082,23456
23849,23370
23601,23380
23417,23456
23380,23559
23750,23929
24119,23559
24119,23701
23820,24000
24190,24369
24293,24332
24379,24099
24379,27230
24119,27230
24119,24440
23750,24070
23679,24141
23679,24000
23309,23630
23206,23667
23120,23900
23130,24148
23206,24332
23309,24369
23679,24000
23679,24141
23380,24440
23417,24543
23650,24629
23898,24619
24082,24543
24119,24440
24119,27230
23696,27230
23696,27222
23696,25659
22884,25659
22904,25605
22894,25347
22814,25152
22708,25112
22320,25500
22326,25505
22255,25576
22250,25570
22244,25576
22173,25505
22179,25500
22173,25494
22244,25423
22250,25429
22637,25041
22597,24935
22355,24845
22097,24855
21902,24935
21878,24998
21862,24958
21791,24888
21699,24850
21600,24849
20800,24849
20708,24887
20638,24958
20600,25050
20599,25149
20599,25659
20400,25659
20400,20371
20301,20132
20118,19949
19879,19850
19621,19849
19382,19948
19199,20131
19100,20370
19099,20628
19198,20867
19381,21050
19620,21149
19878,21150
20117,21051
20300,20868
20399,20629
20400,20371
20400,25659
18360,25659
18374,25624
18375,25376
18280,25146
18104,24970
18100,24968
18100,24808
18117,24801
18300,24618
18399,24379
18400,24121
18301,23882
18118,23699
18100,23691
18100,23531
18103,23530
18279,23354
18374,23124
18375,22876
18280,22646
18104,22470
17906,22388
18117,22301
18300,22118
18399,21879
18400,21621
18301,21382
18118,21199
18100,21191
18100,21031
18103,21030
18279,20854
18374,20624
18375,20376
18280,20146
18104,19970
17874,19875
17626,19874
17396,19969
17220,20145
17125,20375
17124,20623
17219,20853
17395,21029
17400,21031
17400,21191
17382,21198
17199,21381
17100,21620
17099,21878
17107,21897
16379,22625
16379,20599
16369,20351
16293,20167
16190,20130
16119,20201
16119,20059
16082,19956
15849,19870
15601,19880
15417,19956
15380,20059
15750,20429
16119,20059
16119,20201
15820,20500
16190,20869
16293,20832
16379,20599
16379,22625
16355,22650
16281,22650
16280,22646
16119,22485
16119,20940
15750,20570
15679,20641
15679,20500
15309,20130
15206,20167
15120,20400
15130,20648
15206,20832
15309,20869
15679,20500
15679,20641
15380,20940
15417,21043
15650,21129
15898,21119
16082,21043
16119,20940
16119,22485
16104,22470
15874,22375
15626,22374
15400,22468
15400,21621
15301,21382
15118,21199
14879,21100
14621,21099
14382,21198
14199,21381
14191,21400
11658,21400
11629,21330
11420,21121
11148,21008
10853,21007
10580,21120
10371,21329
10258,21601
10257,21896
10370,22169
10579,22378
10851,22491
11146,22492
11419,22379
11628,22170
11658,22100
14191,22100
14198,22117
14381,22300
14620,22399
14878,22400
15117,22301
15300,22118
15399,21879
15400,21621
15400,22468
15396,22469
15220,22645
15125,22875
15124,23123
15219,23353
15395,23529
15625,23624
15873,23625
16103,23530
16279,23354
16281,23350
16500,23350
16633,23323
16633,23323
16747,23247
17128,22866
17125,22875
17124,23123
17219,23353
17395,23529
17400,23531
17400,23691
17382,23698
17199,23881
17100,24120
17099,24378
17198,24617
17381,24800
17400,24808
17400,24968
17396,24969
17220,25145
17125,25375
17124,25623
17139,25659
16357,25659
16379,25599
16369,25351
16293,25167
16190,25130
16119,25201
16119,25059
16082,24956
15849,24870
15601,24880
15417,24956
15400,25004
15400,24121
15301,23882
15118,23699
14879,23600
14621,23599
14602,23607
14497,23502
14383,23426
14250,23400
14141,23400
14149,23379
14150,23121
14051,22882
13868,22699
13629,22600
13371,22599
13132,22698
12949,22881
12850,23120
12849,23378
12858,23400
11742,23400
11742,23208
11704,23116
11633,23046
11541,23008
11442,23007
10458,23007
10366,23045
10296,23116
10258,23208
10257,23307
10257,24291
10295,24383
10366,24453
10458,24491
10557,24492
11541,24492
11633,24454
11703,24383
11741,24291
11742,24192
11742,24100
13500,24100
14105,24100
14107,24102
14100,24120
14099,24378
14198,24617
14381,24800
14620,24899
14878,24900
15117,24801
15300,24618
15399,24379
15400,24121
15400,25004
15380,25059
15750,25429
16119,25059
16119,25201
15820,25500
15826,25505
15755,25576
15750,25570
15744,25576
15673,25505
15679,25500
15309,25130
15206,25167
15120,25400
15130,25648
15134,25659
14303,25659
14303,27222
23696,27222
23696,27230
14154,27230
14154,26355
14144,26097
14064,25902
13958,25862
13887,25933
13887,25791
13847,25685
13605,25595
13347,25605
13152,25685
13112,25791
13500,26179
13887,25791
13887,25933
13570,26250
13958,26637
14064,26597
14154,26355
14154,27230
13887,27230
13887,26708
13500,26320
13429,26391
13429,26250
13041,25862
12935,25902
12845,26144
12855,26402
12935,26597
13041,26637
13429,26250
13429,26391
13112,26708
13152,26814
13394,26904
13652,26894
13847,26814
13887,26708
13887,27230
9269,27230
9269,18769
27730,18769
27730,27230
" /> 
</g>
<g style="fill:#FFFFFF; fill-opacity:0.0; 
stroke:#FFFFFF; stroke-width:39.3701; stroke-opacity:1; 
stroke-linecap:round; stroke-linejoin:round;">
</g>
<g style="fill:#FFFFFF; fill-opacity:1.0; 
stroke:#FFFFFF; stroke-width:39.3701; stroke-opacity:1; 
stroke-linecap:round; stroke-linejoin:round;">
<circle cx="19250" cy="24500" r="105.315" /> 
<circle cx="25250" cy="22000" r="177.315" /> 
<circle cx="25250" cy="23000" r="177.315" /> 
<circle cx="25250" cy="24000" r="177.315" /> 
<circle cx="11000" cy="23750" r="177.315" /> 
<circle cx="11000" cy="21750" r="177.315" /> 
<circle cx="14750" cy="21750" r="137.815" /> 
<circle cx="17750" cy="21750" r="137.815" /> 
<circle cx="14750" cy="24250" r="137.815" /> 
<circle cx="17750" cy="24250" r="137.815" /> 
<circle cx="13500" cy="23250" r="137.815" /> 
<circle cx="13500" cy="26250" r="137.815" /> 
<circle cx="19750" cy="20500" r="137.815" /> 
<circle cx="22750" cy="20500" r="137.815" /> 
<circle cx="21250" cy="25500" r="137.815" /> 
<circle cx="22250" cy="25500" r="137.815" /> 
<circle cx="21250" cy="22750" r="137.815" /> 
<circle cx="22250" cy="22750" r="137.815" /> 
<circle cx="15750" cy="23000" r="137.815" /> 
<circle cx="17750" cy="23000" r="137.815" /> 
<circle cx="17750" cy="25500" r="137.815" /> 
<circle cx="15750" cy="25500" r="137.815" /> 
<circle cx="15750" cy="20500" r="137.815" /> 
<circle cx="17750" cy="20500" r="137.815" /> 
<circle cx="23750" cy="22000" r="137.815" /> 
<circle cx="23750" cy="24000" r="137.815" /> 
</g> 
</svg>
