M48
INCH,TZ
T1C0.025
T2C0.032
T3C0.039
%
G90
G05
T1
X019250Y-024500
X019250Y-033750
T2
X013500Y-023250
X013500Y-026250
X013500Y-032500
X013500Y-035500
X014750Y-021750
X014750Y-024250
X014750Y-031000
X014750Y-033500
X015750Y-020500
X015750Y-023000
X015750Y-025500
X015750Y-029750
X015750Y-032250
X015750Y-034750
X017750Y-020500
X017750Y-021750
X017750Y-023000
X017750Y-024250
X017750Y-025500
X017750Y-029750
X017750Y-031000
X017750Y-032250
X017750Y-033500
X017750Y-034750
X019750Y-020500
X019750Y-029750
X021250Y-022750
X021250Y-025500
X021250Y-032000
X021250Y-034750
X022250Y-022750
X022250Y-025500
X022250Y-032000
X022250Y-034750
X022750Y-020500
X022750Y-029750
X023750Y-022000
X023750Y-024000
X023750Y-031250
X023750Y-033250
T3
X011000Y-021750
X011000Y-023750
X011000Y-031000
X011000Y-033000
X025250Y-022000
X025250Y-023000
X025250Y-024000
X025250Y-031250
X025250Y-032250
X025250Y-033250
T0
M30
