G04 (created by PCBNEW (2013-07-07 BZR 4022)-stable) date 07/12/2013 13:23:06*
%MOIN*%
G04 Gerber Fmt 3.4, Leading zero omitted, Abs format*
%FSLAX34Y34*%
G01*
G70*
G90*
G04 APERTURE LIST*
%ADD10C,0.00590551*%
%ADD11C,0.011811*%
%ADD12C,0.015*%
%ADD13C,0.012*%
%ADD14C,0.005*%
%ADD15C,0.008*%
%ADD16C,0.01125*%
%ADD17C,0.0113*%
%ADD18C,0.006*%
%ADD19C,0.0107*%
%ADD20C,0.01*%
%ADD21C,0.0106*%
G04 APERTURE END LIST*
G54D10*
G54D11*
X25971Y-31264D02*
X26421Y-31264D01*
X26196Y-31489D02*
X26196Y-31039D01*
X26618Y-30898D02*
X26815Y-31489D01*
X27012Y-30898D01*
X23639Y-34998D02*
X23357Y-34998D01*
X23329Y-35279D01*
X23357Y-35251D01*
X23414Y-35223D01*
X23554Y-35223D01*
X23611Y-35251D01*
X23639Y-35279D01*
X23667Y-35335D01*
X23667Y-35476D01*
X23639Y-35532D01*
X23611Y-35560D01*
X23554Y-35589D01*
X23414Y-35589D01*
X23357Y-35560D01*
X23329Y-35532D01*
X23920Y-35589D02*
X23920Y-35195D01*
X23920Y-35251D02*
X23948Y-35223D01*
X24004Y-35195D01*
X24089Y-35195D01*
X24145Y-35223D01*
X24173Y-35279D01*
X24173Y-35589D01*
X24173Y-35279D02*
X24201Y-35223D01*
X24257Y-35195D01*
X24342Y-35195D01*
X24398Y-35223D01*
X24426Y-35279D01*
X24426Y-35589D01*
X24623Y-34998D02*
X24820Y-35589D01*
X25017Y-34998D01*
X25635Y-34970D02*
X25129Y-35729D01*
X26170Y-35532D02*
X26142Y-35560D01*
X26057Y-35589D01*
X26001Y-35589D01*
X25917Y-35560D01*
X25860Y-35504D01*
X25832Y-35448D01*
X25804Y-35335D01*
X25804Y-35251D01*
X25832Y-35139D01*
X25860Y-35082D01*
X25917Y-35026D01*
X26001Y-34998D01*
X26057Y-34998D01*
X26142Y-35026D01*
X26170Y-35054D01*
X26209Y-31998D02*
X26321Y-31998D01*
X26378Y-32026D01*
X26434Y-32082D01*
X26462Y-32195D01*
X26462Y-32392D01*
X26434Y-32504D01*
X26378Y-32560D01*
X26321Y-32589D01*
X26209Y-32589D01*
X26153Y-32560D01*
X26096Y-32504D01*
X26068Y-32392D01*
X26068Y-32195D01*
X26096Y-32082D01*
X26153Y-32026D01*
X26209Y-31998D01*
X26715Y-31998D02*
X26715Y-32476D01*
X26743Y-32532D01*
X26771Y-32560D01*
X26828Y-32589D01*
X26940Y-32589D01*
X26996Y-32560D01*
X27024Y-32532D01*
X27053Y-32476D01*
X27053Y-31998D01*
X27249Y-31998D02*
X27587Y-31998D01*
X27418Y-32589D02*
X27418Y-31998D01*
X26350Y-33026D02*
X26293Y-32998D01*
X26209Y-32998D01*
X26125Y-33026D01*
X26068Y-33082D01*
X26040Y-33139D01*
X26012Y-33251D01*
X26012Y-33335D01*
X26040Y-33448D01*
X26068Y-33504D01*
X26125Y-33560D01*
X26209Y-33589D01*
X26265Y-33589D01*
X26350Y-33560D01*
X26378Y-33532D01*
X26378Y-33335D01*
X26265Y-33335D01*
X26631Y-33589D02*
X26631Y-32998D01*
X26968Y-33589D01*
X26968Y-32998D01*
X27249Y-33589D02*
X27249Y-32998D01*
X27390Y-32998D01*
X27474Y-33026D01*
X27531Y-33082D01*
X27559Y-33139D01*
X27587Y-33251D01*
X27587Y-33335D01*
X27559Y-33448D01*
X27531Y-33504D01*
X27474Y-33560D01*
X27390Y-33589D01*
X27249Y-33589D01*
X13894Y-28398D02*
X14232Y-28398D01*
X14063Y-28989D02*
X14063Y-28398D01*
X14428Y-28989D02*
X14428Y-28398D01*
X14681Y-28989D02*
X14681Y-28679D01*
X14653Y-28623D01*
X14597Y-28595D01*
X14513Y-28595D01*
X14456Y-28623D01*
X14428Y-28651D01*
X15188Y-28960D02*
X15131Y-28989D01*
X15019Y-28989D01*
X14963Y-28960D01*
X14935Y-28904D01*
X14935Y-28679D01*
X14963Y-28623D01*
X15019Y-28595D01*
X15131Y-28595D01*
X15188Y-28623D01*
X15216Y-28679D01*
X15216Y-28735D01*
X14935Y-28792D01*
X15469Y-28989D02*
X15469Y-28595D01*
X15469Y-28707D02*
X15497Y-28651D01*
X15525Y-28623D01*
X15581Y-28595D01*
X15638Y-28595D01*
X15834Y-28989D02*
X15834Y-28595D01*
X15834Y-28651D02*
X15863Y-28623D01*
X15919Y-28595D01*
X16003Y-28595D01*
X16059Y-28623D01*
X16088Y-28679D01*
X16088Y-28989D01*
X16088Y-28679D02*
X16116Y-28623D01*
X16172Y-28595D01*
X16256Y-28595D01*
X16312Y-28623D01*
X16341Y-28679D01*
X16341Y-28989D01*
X16706Y-28989D02*
X16650Y-28960D01*
X16622Y-28932D01*
X16594Y-28876D01*
X16594Y-28707D01*
X16622Y-28651D01*
X16650Y-28623D01*
X16706Y-28595D01*
X16791Y-28595D01*
X16847Y-28623D01*
X16875Y-28651D01*
X16903Y-28707D01*
X16903Y-28876D01*
X16875Y-28932D01*
X16847Y-28960D01*
X16791Y-28989D01*
X16706Y-28989D01*
X17409Y-28960D02*
X17353Y-28989D01*
X17241Y-28989D01*
X17184Y-28960D01*
X17156Y-28932D01*
X17128Y-28876D01*
X17128Y-28707D01*
X17156Y-28651D01*
X17184Y-28623D01*
X17241Y-28595D01*
X17353Y-28595D01*
X17409Y-28623D01*
X17747Y-28989D02*
X17690Y-28960D01*
X17662Y-28932D01*
X17634Y-28876D01*
X17634Y-28707D01*
X17662Y-28651D01*
X17690Y-28623D01*
X17747Y-28595D01*
X17831Y-28595D01*
X17887Y-28623D01*
X17915Y-28651D01*
X17944Y-28707D01*
X17944Y-28876D01*
X17915Y-28932D01*
X17887Y-28960D01*
X17831Y-28989D01*
X17747Y-28989D01*
X18450Y-28595D02*
X18450Y-28989D01*
X18197Y-28595D02*
X18197Y-28904D01*
X18225Y-28960D01*
X18281Y-28989D01*
X18365Y-28989D01*
X18422Y-28960D01*
X18450Y-28932D01*
X18731Y-28595D02*
X18731Y-29185D01*
X18731Y-28623D02*
X18787Y-28595D01*
X18900Y-28595D01*
X18956Y-28623D01*
X18984Y-28651D01*
X19012Y-28707D01*
X19012Y-28876D01*
X18984Y-28932D01*
X18956Y-28960D01*
X18900Y-28989D01*
X18787Y-28989D01*
X18731Y-28960D01*
X19350Y-28989D02*
X19293Y-28960D01*
X19265Y-28904D01*
X19265Y-28398D01*
X19800Y-28960D02*
X19743Y-28989D01*
X19631Y-28989D01*
X19575Y-28960D01*
X19546Y-28904D01*
X19546Y-28679D01*
X19575Y-28623D01*
X19631Y-28595D01*
X19743Y-28595D01*
X19800Y-28623D01*
X19828Y-28679D01*
X19828Y-28735D01*
X19546Y-28792D01*
X20868Y-28932D02*
X20840Y-28960D01*
X20756Y-28989D01*
X20699Y-28989D01*
X20615Y-28960D01*
X20559Y-28904D01*
X20531Y-28848D01*
X20503Y-28735D01*
X20503Y-28651D01*
X20531Y-28539D01*
X20559Y-28482D01*
X20615Y-28426D01*
X20699Y-28398D01*
X20756Y-28398D01*
X20840Y-28426D01*
X20868Y-28454D01*
X21206Y-28989D02*
X21149Y-28960D01*
X21121Y-28932D01*
X21093Y-28876D01*
X21093Y-28707D01*
X21121Y-28651D01*
X21149Y-28623D01*
X21206Y-28595D01*
X21290Y-28595D01*
X21346Y-28623D01*
X21374Y-28651D01*
X21402Y-28707D01*
X21402Y-28876D01*
X21374Y-28932D01*
X21346Y-28960D01*
X21290Y-28989D01*
X21206Y-28989D01*
X21656Y-28595D02*
X21656Y-28989D01*
X21656Y-28651D02*
X21684Y-28623D01*
X21740Y-28595D01*
X21824Y-28595D01*
X21881Y-28623D01*
X21909Y-28679D01*
X21909Y-28989D01*
X22134Y-28595D02*
X22274Y-28989D01*
X22415Y-28595D01*
X22865Y-28960D02*
X22809Y-28989D01*
X22696Y-28989D01*
X22640Y-28960D01*
X22612Y-28904D01*
X22612Y-28679D01*
X22640Y-28623D01*
X22696Y-28595D01*
X22809Y-28595D01*
X22865Y-28623D01*
X22893Y-28679D01*
X22893Y-28735D01*
X22612Y-28792D01*
X23146Y-28989D02*
X23146Y-28595D01*
X23146Y-28707D02*
X23174Y-28651D01*
X23202Y-28623D01*
X23258Y-28595D01*
X23315Y-28595D01*
X23483Y-28960D02*
X23540Y-28989D01*
X23652Y-28989D01*
X23708Y-28960D01*
X23737Y-28904D01*
X23737Y-28876D01*
X23708Y-28820D01*
X23652Y-28792D01*
X23568Y-28792D01*
X23512Y-28764D01*
X23483Y-28707D01*
X23483Y-28679D01*
X23512Y-28623D01*
X23568Y-28595D01*
X23652Y-28595D01*
X23708Y-28623D01*
X23990Y-28989D02*
X23990Y-28595D01*
X23990Y-28398D02*
X23962Y-28426D01*
X23990Y-28454D01*
X24018Y-28426D01*
X23990Y-28398D01*
X23990Y-28454D01*
X24355Y-28989D02*
X24299Y-28960D01*
X24271Y-28932D01*
X24243Y-28876D01*
X24243Y-28707D01*
X24271Y-28651D01*
X24299Y-28623D01*
X24355Y-28595D01*
X24440Y-28595D01*
X24496Y-28623D01*
X24524Y-28651D01*
X24552Y-28707D01*
X24552Y-28876D01*
X24524Y-28932D01*
X24496Y-28960D01*
X24440Y-28989D01*
X24355Y-28989D01*
X24805Y-28595D02*
X24805Y-28989D01*
X24805Y-28651D02*
X24833Y-28623D01*
X24890Y-28595D01*
X24974Y-28595D01*
X25030Y-28623D01*
X25058Y-28679D01*
X25058Y-28989D01*
X25733Y-28595D02*
X25874Y-28989D01*
X26014Y-28595D01*
X26549Y-28989D02*
X26211Y-28989D01*
X26380Y-28989D02*
X26380Y-28398D01*
X26324Y-28482D01*
X26267Y-28539D01*
X26211Y-28567D01*
X13894Y-19148D02*
X14232Y-19148D01*
X14063Y-19739D02*
X14063Y-19148D01*
X14428Y-19739D02*
X14428Y-19148D01*
X14681Y-19739D02*
X14681Y-19429D01*
X14653Y-19373D01*
X14597Y-19345D01*
X14513Y-19345D01*
X14456Y-19373D01*
X14428Y-19401D01*
X15188Y-19710D02*
X15131Y-19739D01*
X15019Y-19739D01*
X14963Y-19710D01*
X14935Y-19654D01*
X14935Y-19429D01*
X14963Y-19373D01*
X15019Y-19345D01*
X15131Y-19345D01*
X15188Y-19373D01*
X15216Y-19429D01*
X15216Y-19485D01*
X14935Y-19542D01*
X15469Y-19739D02*
X15469Y-19345D01*
X15469Y-19457D02*
X15497Y-19401D01*
X15525Y-19373D01*
X15581Y-19345D01*
X15638Y-19345D01*
X15834Y-19739D02*
X15834Y-19345D01*
X15834Y-19401D02*
X15863Y-19373D01*
X15919Y-19345D01*
X16003Y-19345D01*
X16059Y-19373D01*
X16088Y-19429D01*
X16088Y-19739D01*
X16088Y-19429D02*
X16116Y-19373D01*
X16172Y-19345D01*
X16256Y-19345D01*
X16312Y-19373D01*
X16341Y-19429D01*
X16341Y-19739D01*
X16706Y-19739D02*
X16650Y-19710D01*
X16622Y-19682D01*
X16594Y-19626D01*
X16594Y-19457D01*
X16622Y-19401D01*
X16650Y-19373D01*
X16706Y-19345D01*
X16791Y-19345D01*
X16847Y-19373D01*
X16875Y-19401D01*
X16903Y-19457D01*
X16903Y-19626D01*
X16875Y-19682D01*
X16847Y-19710D01*
X16791Y-19739D01*
X16706Y-19739D01*
X17409Y-19710D02*
X17353Y-19739D01*
X17241Y-19739D01*
X17184Y-19710D01*
X17156Y-19682D01*
X17128Y-19626D01*
X17128Y-19457D01*
X17156Y-19401D01*
X17184Y-19373D01*
X17241Y-19345D01*
X17353Y-19345D01*
X17409Y-19373D01*
X17747Y-19739D02*
X17690Y-19710D01*
X17662Y-19682D01*
X17634Y-19626D01*
X17634Y-19457D01*
X17662Y-19401D01*
X17690Y-19373D01*
X17747Y-19345D01*
X17831Y-19345D01*
X17887Y-19373D01*
X17915Y-19401D01*
X17944Y-19457D01*
X17944Y-19626D01*
X17915Y-19682D01*
X17887Y-19710D01*
X17831Y-19739D01*
X17747Y-19739D01*
X18450Y-19345D02*
X18450Y-19739D01*
X18197Y-19345D02*
X18197Y-19654D01*
X18225Y-19710D01*
X18281Y-19739D01*
X18365Y-19739D01*
X18422Y-19710D01*
X18450Y-19682D01*
X18731Y-19345D02*
X18731Y-19935D01*
X18731Y-19373D02*
X18787Y-19345D01*
X18900Y-19345D01*
X18956Y-19373D01*
X18984Y-19401D01*
X19012Y-19457D01*
X19012Y-19626D01*
X18984Y-19682D01*
X18956Y-19710D01*
X18900Y-19739D01*
X18787Y-19739D01*
X18731Y-19710D01*
X19350Y-19739D02*
X19293Y-19710D01*
X19265Y-19654D01*
X19265Y-19148D01*
X19800Y-19710D02*
X19743Y-19739D01*
X19631Y-19739D01*
X19575Y-19710D01*
X19546Y-19654D01*
X19546Y-19429D01*
X19575Y-19373D01*
X19631Y-19345D01*
X19743Y-19345D01*
X19800Y-19373D01*
X19828Y-19429D01*
X19828Y-19485D01*
X19546Y-19542D01*
X20868Y-19682D02*
X20840Y-19710D01*
X20756Y-19739D01*
X20699Y-19739D01*
X20615Y-19710D01*
X20559Y-19654D01*
X20531Y-19598D01*
X20503Y-19485D01*
X20503Y-19401D01*
X20531Y-19289D01*
X20559Y-19232D01*
X20615Y-19176D01*
X20699Y-19148D01*
X20756Y-19148D01*
X20840Y-19176D01*
X20868Y-19204D01*
X21206Y-19739D02*
X21149Y-19710D01*
X21121Y-19682D01*
X21093Y-19626D01*
X21093Y-19457D01*
X21121Y-19401D01*
X21149Y-19373D01*
X21206Y-19345D01*
X21290Y-19345D01*
X21346Y-19373D01*
X21374Y-19401D01*
X21402Y-19457D01*
X21402Y-19626D01*
X21374Y-19682D01*
X21346Y-19710D01*
X21290Y-19739D01*
X21206Y-19739D01*
X21656Y-19345D02*
X21656Y-19739D01*
X21656Y-19401D02*
X21684Y-19373D01*
X21740Y-19345D01*
X21824Y-19345D01*
X21881Y-19373D01*
X21909Y-19429D01*
X21909Y-19739D01*
X22134Y-19345D02*
X22274Y-19739D01*
X22415Y-19345D01*
X22865Y-19710D02*
X22809Y-19739D01*
X22696Y-19739D01*
X22640Y-19710D01*
X22612Y-19654D01*
X22612Y-19429D01*
X22640Y-19373D01*
X22696Y-19345D01*
X22809Y-19345D01*
X22865Y-19373D01*
X22893Y-19429D01*
X22893Y-19485D01*
X22612Y-19542D01*
X23146Y-19739D02*
X23146Y-19345D01*
X23146Y-19457D02*
X23174Y-19401D01*
X23202Y-19373D01*
X23258Y-19345D01*
X23315Y-19345D01*
X23483Y-19710D02*
X23540Y-19739D01*
X23652Y-19739D01*
X23708Y-19710D01*
X23737Y-19654D01*
X23737Y-19626D01*
X23708Y-19570D01*
X23652Y-19542D01*
X23568Y-19542D01*
X23512Y-19514D01*
X23483Y-19457D01*
X23483Y-19429D01*
X23512Y-19373D01*
X23568Y-19345D01*
X23652Y-19345D01*
X23708Y-19373D01*
X23990Y-19739D02*
X23990Y-19345D01*
X23990Y-19148D02*
X23962Y-19176D01*
X23990Y-19204D01*
X24018Y-19176D01*
X23990Y-19148D01*
X23990Y-19204D01*
X24355Y-19739D02*
X24299Y-19710D01*
X24271Y-19682D01*
X24243Y-19626D01*
X24243Y-19457D01*
X24271Y-19401D01*
X24299Y-19373D01*
X24355Y-19345D01*
X24440Y-19345D01*
X24496Y-19373D01*
X24524Y-19401D01*
X24552Y-19457D01*
X24552Y-19626D01*
X24524Y-19682D01*
X24496Y-19710D01*
X24440Y-19739D01*
X24355Y-19739D01*
X24805Y-19345D02*
X24805Y-19739D01*
X24805Y-19401D02*
X24833Y-19373D01*
X24890Y-19345D01*
X24974Y-19345D01*
X25030Y-19373D01*
X25058Y-19429D01*
X25058Y-19739D01*
X25733Y-19345D02*
X25874Y-19739D01*
X26014Y-19345D01*
X26549Y-19739D02*
X26211Y-19739D01*
X26380Y-19739D02*
X26380Y-19148D01*
X26324Y-19232D01*
X26267Y-19289D01*
X26211Y-19317D01*
X26350Y-23776D02*
X26293Y-23748D01*
X26209Y-23748D01*
X26125Y-23776D01*
X26068Y-23832D01*
X26040Y-23889D01*
X26012Y-24001D01*
X26012Y-24085D01*
X26040Y-24198D01*
X26068Y-24254D01*
X26125Y-24310D01*
X26209Y-24339D01*
X26265Y-24339D01*
X26350Y-24310D01*
X26378Y-24282D01*
X26378Y-24085D01*
X26265Y-24085D01*
X26631Y-24339D02*
X26631Y-23748D01*
X26968Y-24339D01*
X26968Y-23748D01*
X27249Y-24339D02*
X27249Y-23748D01*
X27390Y-23748D01*
X27474Y-23776D01*
X27531Y-23832D01*
X27559Y-23889D01*
X27587Y-24001D01*
X27587Y-24085D01*
X27559Y-24198D01*
X27531Y-24254D01*
X27474Y-24310D01*
X27390Y-24339D01*
X27249Y-24339D01*
X26209Y-22748D02*
X26321Y-22748D01*
X26378Y-22776D01*
X26434Y-22832D01*
X26462Y-22945D01*
X26462Y-23142D01*
X26434Y-23254D01*
X26378Y-23310D01*
X26321Y-23339D01*
X26209Y-23339D01*
X26153Y-23310D01*
X26096Y-23254D01*
X26068Y-23142D01*
X26068Y-22945D01*
X26096Y-22832D01*
X26153Y-22776D01*
X26209Y-22748D01*
X26715Y-22748D02*
X26715Y-23226D01*
X26743Y-23282D01*
X26771Y-23310D01*
X26828Y-23339D01*
X26940Y-23339D01*
X26996Y-23310D01*
X27024Y-23282D01*
X27053Y-23226D01*
X27053Y-22748D01*
X27249Y-22748D02*
X27587Y-22748D01*
X27418Y-23339D02*
X27418Y-22748D01*
X23639Y-25748D02*
X23357Y-25748D01*
X23329Y-26029D01*
X23357Y-26001D01*
X23414Y-25973D01*
X23554Y-25973D01*
X23611Y-26001D01*
X23639Y-26029D01*
X23667Y-26085D01*
X23667Y-26226D01*
X23639Y-26282D01*
X23611Y-26310D01*
X23554Y-26339D01*
X23414Y-26339D01*
X23357Y-26310D01*
X23329Y-26282D01*
X23920Y-26339D02*
X23920Y-25945D01*
X23920Y-26001D02*
X23948Y-25973D01*
X24004Y-25945D01*
X24089Y-25945D01*
X24145Y-25973D01*
X24173Y-26029D01*
X24173Y-26339D01*
X24173Y-26029D02*
X24201Y-25973D01*
X24257Y-25945D01*
X24342Y-25945D01*
X24398Y-25973D01*
X24426Y-26029D01*
X24426Y-26339D01*
X24623Y-25748D02*
X24820Y-26339D01*
X25017Y-25748D01*
X25635Y-25720D02*
X25129Y-26479D01*
X26170Y-26282D02*
X26142Y-26310D01*
X26057Y-26339D01*
X26001Y-26339D01*
X25917Y-26310D01*
X25860Y-26254D01*
X25832Y-26198D01*
X25804Y-26085D01*
X25804Y-26001D01*
X25832Y-25889D01*
X25860Y-25832D01*
X25917Y-25776D01*
X26001Y-25748D01*
X26057Y-25748D01*
X26142Y-25776D01*
X26170Y-25804D01*
X25971Y-22014D02*
X26421Y-22014D01*
X26196Y-22239D02*
X26196Y-21789D01*
X26618Y-21648D02*
X26815Y-22239D01*
X27012Y-21648D01*
G54D12*
X24250Y-30750D02*
X23250Y-30750D01*
X23250Y-30750D02*
X23250Y-33750D01*
X23250Y-33750D02*
X24250Y-33750D01*
X24250Y-33750D02*
X24250Y-30750D01*
G54D13*
X24000Y-30750D02*
X24250Y-31000D01*
G54D12*
X15250Y-29250D02*
X15250Y-30250D01*
X15250Y-30250D02*
X18250Y-30250D01*
X18250Y-30250D02*
X18250Y-29250D01*
X18250Y-29250D02*
X15250Y-29250D01*
G54D13*
X15250Y-29500D02*
X15500Y-29250D01*
G54D12*
X18250Y-35250D02*
X18250Y-34250D01*
X18250Y-34250D02*
X15250Y-34250D01*
X15250Y-34250D02*
X15250Y-35250D01*
X15250Y-35250D02*
X18250Y-35250D01*
G54D13*
X18250Y-35000D02*
X18000Y-35250D01*
G54D12*
X15250Y-31750D02*
X15250Y-32750D01*
X15250Y-32750D02*
X18250Y-32750D01*
X18250Y-32750D02*
X18250Y-31750D01*
X18250Y-31750D02*
X15250Y-31750D01*
G54D13*
X15250Y-32000D02*
X15500Y-31750D01*
G54D14*
X23000Y-32000D02*
G75*
G03X23000Y-32000I-1250J0D01*
G74*
G01*
X23000Y-34750D02*
G75*
G03X23000Y-34750I-1250J0D01*
G74*
G01*
G54D15*
X19125Y-32625D02*
X18625Y-32150D01*
X18625Y-32625D02*
X19875Y-32625D01*
X19875Y-32625D02*
X19875Y-31375D01*
X19875Y-31375D02*
X18625Y-31375D01*
X18625Y-31375D02*
X18625Y-32625D01*
G54D13*
X19750Y-29750D02*
X19950Y-29750D01*
X22750Y-29750D02*
X22550Y-29750D01*
X22550Y-29750D02*
X22550Y-29350D01*
X22550Y-29350D02*
X19950Y-29350D01*
X19950Y-29350D02*
X19950Y-30150D01*
X19950Y-30150D02*
X22550Y-30150D01*
X22550Y-30150D02*
X22550Y-29750D01*
X19950Y-29550D02*
X20150Y-29350D01*
X13500Y-32500D02*
X13500Y-32700D01*
X13500Y-35500D02*
X13500Y-35300D01*
X13500Y-35300D02*
X13900Y-35300D01*
X13900Y-35300D02*
X13900Y-32700D01*
X13900Y-32700D02*
X13100Y-32700D01*
X13100Y-32700D02*
X13100Y-35300D01*
X13100Y-35300D02*
X13500Y-35300D01*
X13700Y-32700D02*
X13900Y-32900D01*
X14750Y-33500D02*
X14950Y-33500D01*
X17750Y-33500D02*
X17550Y-33500D01*
X17550Y-33500D02*
X17550Y-33100D01*
X17550Y-33100D02*
X14950Y-33100D01*
X14950Y-33100D02*
X14950Y-33900D01*
X14950Y-33900D02*
X17550Y-33900D01*
X17550Y-33900D02*
X17550Y-33500D01*
X14950Y-33300D02*
X15150Y-33100D01*
X14750Y-31000D02*
X14950Y-31000D01*
X17750Y-31000D02*
X17550Y-31000D01*
X17550Y-31000D02*
X17550Y-30600D01*
X17550Y-30600D02*
X14950Y-30600D01*
X14950Y-30600D02*
X14950Y-31400D01*
X14950Y-31400D02*
X17550Y-31400D01*
X17550Y-31400D02*
X17550Y-31000D01*
X14950Y-30800D02*
X15150Y-30600D01*
G54D12*
X12600Y-31900D02*
X9500Y-31900D01*
X9500Y-34200D02*
X9500Y-29800D01*
X9500Y-29800D02*
X12600Y-29800D01*
X12600Y-29800D02*
X12600Y-34200D01*
X12600Y-34200D02*
X9500Y-34200D01*
G54D13*
X24750Y-30750D02*
X25750Y-30750D01*
X25750Y-30750D02*
X25750Y-33750D01*
X25750Y-33750D02*
X24750Y-33750D01*
X24750Y-33750D02*
X24750Y-30750D01*
X25750Y-31750D02*
X24750Y-31750D01*
X24750Y-21500D02*
X25750Y-21500D01*
X25750Y-21500D02*
X25750Y-24500D01*
X25750Y-24500D02*
X24750Y-24500D01*
X24750Y-24500D02*
X24750Y-21500D01*
X25750Y-22500D02*
X24750Y-22500D01*
G54D12*
X12600Y-22650D02*
X9500Y-22650D01*
X9500Y-24950D02*
X9500Y-20550D01*
X9500Y-20550D02*
X12600Y-20550D01*
X12600Y-20550D02*
X12600Y-24950D01*
X12600Y-24950D02*
X9500Y-24950D01*
G54D13*
X14750Y-21750D02*
X14950Y-21750D01*
X17750Y-21750D02*
X17550Y-21750D01*
X17550Y-21750D02*
X17550Y-21350D01*
X17550Y-21350D02*
X14950Y-21350D01*
X14950Y-21350D02*
X14950Y-22150D01*
X14950Y-22150D02*
X17550Y-22150D01*
X17550Y-22150D02*
X17550Y-21750D01*
X14950Y-21550D02*
X15150Y-21350D01*
X14750Y-24250D02*
X14950Y-24250D01*
X17750Y-24250D02*
X17550Y-24250D01*
X17550Y-24250D02*
X17550Y-23850D01*
X17550Y-23850D02*
X14950Y-23850D01*
X14950Y-23850D02*
X14950Y-24650D01*
X14950Y-24650D02*
X17550Y-24650D01*
X17550Y-24650D02*
X17550Y-24250D01*
X14950Y-24050D02*
X15150Y-23850D01*
X13500Y-23250D02*
X13500Y-23450D01*
X13500Y-26250D02*
X13500Y-26050D01*
X13500Y-26050D02*
X13900Y-26050D01*
X13900Y-26050D02*
X13900Y-23450D01*
X13900Y-23450D02*
X13100Y-23450D01*
X13100Y-23450D02*
X13100Y-26050D01*
X13100Y-26050D02*
X13500Y-26050D01*
X13700Y-23450D02*
X13900Y-23650D01*
X19750Y-20500D02*
X19950Y-20500D01*
X22750Y-20500D02*
X22550Y-20500D01*
X22550Y-20500D02*
X22550Y-20100D01*
X22550Y-20100D02*
X19950Y-20100D01*
X19950Y-20100D02*
X19950Y-20900D01*
X19950Y-20900D02*
X22550Y-20900D01*
X22550Y-20900D02*
X22550Y-20500D01*
X19950Y-20300D02*
X20150Y-20100D01*
G54D15*
X19125Y-23375D02*
X18625Y-22900D01*
X18625Y-23375D02*
X19875Y-23375D01*
X19875Y-23375D02*
X19875Y-22125D01*
X19875Y-22125D02*
X18625Y-22125D01*
X18625Y-22125D02*
X18625Y-23375D01*
G54D14*
X23000Y-25500D02*
G75*
G03X23000Y-25500I-1250J0D01*
G74*
G01*
X23000Y-22750D02*
G75*
G03X23000Y-22750I-1250J0D01*
G74*
G01*
G54D12*
X15250Y-22500D02*
X15250Y-23500D01*
X15250Y-23500D02*
X18250Y-23500D01*
X18250Y-23500D02*
X18250Y-22500D01*
X18250Y-22500D02*
X15250Y-22500D01*
G54D13*
X15250Y-22750D02*
X15500Y-22500D01*
G54D12*
X18250Y-26000D02*
X18250Y-25000D01*
X18250Y-25000D02*
X15250Y-25000D01*
X15250Y-25000D02*
X15250Y-26000D01*
X15250Y-26000D02*
X18250Y-26000D01*
G54D13*
X18250Y-25750D02*
X18000Y-26000D01*
G54D12*
X15250Y-20000D02*
X15250Y-21000D01*
X15250Y-21000D02*
X18250Y-21000D01*
X18250Y-21000D02*
X18250Y-20000D01*
X18250Y-20000D02*
X15250Y-20000D01*
G54D13*
X15250Y-20250D02*
X15500Y-20000D01*
G54D12*
X24250Y-21500D02*
X23250Y-21500D01*
X23250Y-21500D02*
X23250Y-24500D01*
X23250Y-24500D02*
X24250Y-24500D01*
X24250Y-24500D02*
X24250Y-21500D01*
G54D13*
X24000Y-21500D02*
X24250Y-21750D01*
G54D15*
X23923Y-32316D02*
X23942Y-32335D01*
X23961Y-32392D01*
X23961Y-32430D01*
X23942Y-32488D01*
X23904Y-32526D01*
X23866Y-32545D01*
X23790Y-32564D01*
X23733Y-32564D01*
X23657Y-32545D01*
X23619Y-32526D01*
X23580Y-32488D01*
X23561Y-32430D01*
X23561Y-32392D01*
X23580Y-32335D01*
X23600Y-32316D01*
X23695Y-31973D02*
X23961Y-31973D01*
X23542Y-32069D02*
X23828Y-32164D01*
X23828Y-31916D01*
X16858Y-29923D02*
X16839Y-29942D01*
X16782Y-29961D01*
X16744Y-29961D01*
X16686Y-29942D01*
X16648Y-29904D01*
X16629Y-29866D01*
X16610Y-29790D01*
X16610Y-29733D01*
X16629Y-29657D01*
X16648Y-29619D01*
X16686Y-29580D01*
X16744Y-29561D01*
X16782Y-29561D01*
X16839Y-29580D01*
X16858Y-29600D01*
X17239Y-29961D02*
X17010Y-29961D01*
X17125Y-29961D02*
X17125Y-29561D01*
X17086Y-29619D01*
X17048Y-29657D01*
X17010Y-29676D01*
X16508Y-34823D02*
X16489Y-34842D01*
X16432Y-34861D01*
X16394Y-34861D01*
X16336Y-34842D01*
X16298Y-34804D01*
X16279Y-34766D01*
X16260Y-34690D01*
X16260Y-34633D01*
X16279Y-34557D01*
X16298Y-34519D01*
X16336Y-34480D01*
X16394Y-34461D01*
X16432Y-34461D01*
X16489Y-34480D01*
X16508Y-34500D01*
X16641Y-34461D02*
X16889Y-34461D01*
X16755Y-34614D01*
X16813Y-34614D01*
X16851Y-34633D01*
X16870Y-34652D01*
X16889Y-34690D01*
X16889Y-34785D01*
X16870Y-34823D01*
X16851Y-34842D01*
X16813Y-34861D01*
X16698Y-34861D01*
X16660Y-34842D01*
X16641Y-34823D01*
X16858Y-32423D02*
X16839Y-32442D01*
X16782Y-32461D01*
X16744Y-32461D01*
X16686Y-32442D01*
X16648Y-32404D01*
X16629Y-32366D01*
X16610Y-32290D01*
X16610Y-32233D01*
X16629Y-32157D01*
X16648Y-32119D01*
X16686Y-32080D01*
X16744Y-32061D01*
X16782Y-32061D01*
X16839Y-32080D01*
X16858Y-32100D01*
X17010Y-32100D02*
X17029Y-32080D01*
X17067Y-32061D01*
X17163Y-32061D01*
X17201Y-32080D01*
X17220Y-32100D01*
X17239Y-32138D01*
X17239Y-32176D01*
X17220Y-32233D01*
X16991Y-32461D01*
X17239Y-32461D01*
X21691Y-33039D02*
X21675Y-33060D01*
X21625Y-33082D01*
X21591Y-33082D01*
X21541Y-33060D01*
X21508Y-33017D01*
X21491Y-32975D01*
X21475Y-32889D01*
X21475Y-32825D01*
X21491Y-32739D01*
X21508Y-32696D01*
X21541Y-32653D01*
X21591Y-32632D01*
X21625Y-32632D01*
X21675Y-32653D01*
X21691Y-32675D01*
X21991Y-32632D02*
X21925Y-32632D01*
X21891Y-32653D01*
X21875Y-32675D01*
X21841Y-32739D01*
X21825Y-32825D01*
X21825Y-32996D01*
X21841Y-33039D01*
X21858Y-33060D01*
X21891Y-33082D01*
X21958Y-33082D01*
X21991Y-33060D01*
X22008Y-33039D01*
X22025Y-32996D01*
X22025Y-32889D01*
X22008Y-32846D01*
X21991Y-32825D01*
X21958Y-32803D01*
X21891Y-32803D01*
X21858Y-32825D01*
X21841Y-32846D01*
X21825Y-32889D01*
G54D16*
X20578Y-30810D02*
X20921Y-30810D01*
X20750Y-30982D02*
X20750Y-30639D01*
G54D17*
G54D15*
X21741Y-35789D02*
X21725Y-35810D01*
X21675Y-35832D01*
X21641Y-35832D01*
X21591Y-35810D01*
X21558Y-35767D01*
X21541Y-35725D01*
X21525Y-35639D01*
X21525Y-35575D01*
X21541Y-35489D01*
X21558Y-35446D01*
X21591Y-35403D01*
X21641Y-35382D01*
X21675Y-35382D01*
X21725Y-35403D01*
X21741Y-35425D01*
X22058Y-35382D02*
X21891Y-35382D01*
X21875Y-35596D01*
X21891Y-35575D01*
X21925Y-35553D01*
X22008Y-35553D01*
X22041Y-35575D01*
X22058Y-35596D01*
X22075Y-35639D01*
X22075Y-35746D01*
X22058Y-35789D01*
X22041Y-35810D01*
X22008Y-35832D01*
X21925Y-35832D01*
X21891Y-35810D01*
X21875Y-35789D01*
G54D16*
X20278Y-35660D02*
X20621Y-35660D01*
X20450Y-35832D02*
X20450Y-35489D01*
G54D17*
G54D18*
X20049Y-32665D02*
X20049Y-32984D01*
X20068Y-33021D01*
X20087Y-33040D01*
X20124Y-33059D01*
X20199Y-33059D01*
X20237Y-33040D01*
X20256Y-33021D01*
X20274Y-32984D01*
X20274Y-32665D01*
X20668Y-33059D02*
X20443Y-33059D01*
X20556Y-33059D02*
X20556Y-32665D01*
X20518Y-32721D01*
X20481Y-32759D01*
X20443Y-32778D01*
G54D14*
X18408Y-34396D02*
X18596Y-34396D01*
X18371Y-34509D02*
X18502Y-34115D01*
X18633Y-34509D01*
X18765Y-34509D02*
X18765Y-34115D01*
X18858Y-34115D01*
X18915Y-34134D01*
X18952Y-34171D01*
X18971Y-34209D01*
X18990Y-34284D01*
X18990Y-34340D01*
X18971Y-34415D01*
X18952Y-34453D01*
X18915Y-34490D01*
X18858Y-34509D01*
X18765Y-34509D01*
X19215Y-34284D02*
X19177Y-34265D01*
X19159Y-34246D01*
X19140Y-34209D01*
X19140Y-34190D01*
X19159Y-34153D01*
X19177Y-34134D01*
X19215Y-34115D01*
X19290Y-34115D01*
X19328Y-34134D01*
X19346Y-34153D01*
X19365Y-34190D01*
X19365Y-34209D01*
X19346Y-34246D01*
X19328Y-34265D01*
X19290Y-34284D01*
X19215Y-34284D01*
X19177Y-34303D01*
X19159Y-34321D01*
X19140Y-34359D01*
X19140Y-34434D01*
X19159Y-34471D01*
X19177Y-34490D01*
X19215Y-34509D01*
X19290Y-34509D01*
X19328Y-34490D01*
X19346Y-34471D01*
X19365Y-34434D01*
X19365Y-34359D01*
X19346Y-34321D01*
X19328Y-34303D01*
X19290Y-34284D01*
X19703Y-34246D02*
X19703Y-34509D01*
X19609Y-34096D02*
X19515Y-34378D01*
X19759Y-34378D01*
X19928Y-34509D02*
X20003Y-34509D01*
X20041Y-34490D01*
X20059Y-34471D01*
X20097Y-34415D01*
X20116Y-34340D01*
X20116Y-34190D01*
X20097Y-34153D01*
X20078Y-34134D01*
X20041Y-34115D01*
X19965Y-34115D01*
X19928Y-34134D01*
X19909Y-34153D01*
X19890Y-34190D01*
X19890Y-34284D01*
X19909Y-34321D01*
X19928Y-34340D01*
X19965Y-34359D01*
X20041Y-34359D01*
X20078Y-34340D01*
X20097Y-34321D01*
X20116Y-34284D01*
X20472Y-34115D02*
X20284Y-34115D01*
X20266Y-34303D01*
X20284Y-34284D01*
X20322Y-34265D01*
X20416Y-34265D01*
X20453Y-34284D01*
X20472Y-34303D01*
X20491Y-34340D01*
X20491Y-34434D01*
X20472Y-34471D01*
X20453Y-34490D01*
X20416Y-34509D01*
X20322Y-34509D01*
X20284Y-34490D01*
X20266Y-34471D01*
G54D15*
X21166Y-29972D02*
X21000Y-29710D01*
X20880Y-29972D02*
X20880Y-29422D01*
X21071Y-29422D01*
X21119Y-29448D01*
X21142Y-29475D01*
X21166Y-29527D01*
X21166Y-29605D01*
X21142Y-29658D01*
X21119Y-29684D01*
X21071Y-29710D01*
X20880Y-29710D01*
X21595Y-29605D02*
X21595Y-29972D01*
X21476Y-29396D02*
X21357Y-29789D01*
X21666Y-29789D01*
X13722Y-34083D02*
X13460Y-34250D01*
X13722Y-34369D02*
X13172Y-34369D01*
X13172Y-34178D01*
X13198Y-34130D01*
X13225Y-34107D01*
X13277Y-34083D01*
X13355Y-34083D01*
X13408Y-34107D01*
X13434Y-34130D01*
X13460Y-34178D01*
X13460Y-34369D01*
X13722Y-33607D02*
X13722Y-33892D01*
X13722Y-33750D02*
X13172Y-33750D01*
X13251Y-33797D01*
X13303Y-33845D01*
X13329Y-33892D01*
X16166Y-33722D02*
X16000Y-33460D01*
X15880Y-33722D02*
X15880Y-33172D01*
X16071Y-33172D01*
X16119Y-33198D01*
X16142Y-33225D01*
X16166Y-33277D01*
X16166Y-33355D01*
X16142Y-33408D01*
X16119Y-33434D01*
X16071Y-33460D01*
X15880Y-33460D01*
X16333Y-33172D02*
X16642Y-33172D01*
X16476Y-33382D01*
X16547Y-33382D01*
X16595Y-33408D01*
X16619Y-33434D01*
X16642Y-33486D01*
X16642Y-33617D01*
X16619Y-33670D01*
X16595Y-33696D01*
X16547Y-33722D01*
X16404Y-33722D01*
X16357Y-33696D01*
X16333Y-33670D01*
X16166Y-31222D02*
X16000Y-30960D01*
X15880Y-31222D02*
X15880Y-30672D01*
X16071Y-30672D01*
X16119Y-30698D01*
X16142Y-30725D01*
X16166Y-30777D01*
X16166Y-30855D01*
X16142Y-30908D01*
X16119Y-30934D01*
X16071Y-30960D01*
X15880Y-30960D01*
X16357Y-30725D02*
X16380Y-30698D01*
X16428Y-30672D01*
X16547Y-30672D01*
X16595Y-30698D01*
X16619Y-30725D01*
X16642Y-30777D01*
X16642Y-30829D01*
X16619Y-30908D01*
X16333Y-31222D01*
X16642Y-31222D01*
G54D19*
X12675Y-35115D02*
X11994Y-35115D01*
X11994Y-34952D01*
X12027Y-34912D01*
X12059Y-34891D01*
X12124Y-34871D01*
X12221Y-34871D01*
X12286Y-34891D01*
X12318Y-34912D01*
X12351Y-34952D01*
X12351Y-35115D01*
X12675Y-34463D02*
X12675Y-34708D01*
X12675Y-34586D02*
X11994Y-34586D01*
X12091Y-34626D01*
X12156Y-34667D01*
X12189Y-34708D01*
G54D20*
X9471Y-28642D02*
X9700Y-28642D01*
X9585Y-29242D02*
X9585Y-28642D01*
X9833Y-29242D02*
X9833Y-28642D01*
X10004Y-29242D02*
X10004Y-28928D01*
X9985Y-28871D01*
X9947Y-28842D01*
X9890Y-28842D01*
X9852Y-28871D01*
X9833Y-28900D01*
X10347Y-29214D02*
X10309Y-29242D01*
X10233Y-29242D01*
X10195Y-29214D01*
X10176Y-29157D01*
X10176Y-28928D01*
X10195Y-28871D01*
X10233Y-28842D01*
X10309Y-28842D01*
X10347Y-28871D01*
X10366Y-28928D01*
X10366Y-28985D01*
X10176Y-29042D01*
X10538Y-29242D02*
X10538Y-28842D01*
X10538Y-28957D02*
X10557Y-28900D01*
X10576Y-28871D01*
X10614Y-28842D01*
X10652Y-28842D01*
X10785Y-29242D02*
X10785Y-28842D01*
X10785Y-28900D02*
X10804Y-28871D01*
X10842Y-28842D01*
X10900Y-28842D01*
X10938Y-28871D01*
X10957Y-28928D01*
X10957Y-29242D01*
X10957Y-28928D02*
X10976Y-28871D01*
X11014Y-28842D01*
X11071Y-28842D01*
X11109Y-28871D01*
X11128Y-28928D01*
X11128Y-29242D01*
X11376Y-29242D02*
X11338Y-29214D01*
X11319Y-29185D01*
X11300Y-29128D01*
X11300Y-28957D01*
X11319Y-28900D01*
X11338Y-28871D01*
X11376Y-28842D01*
X11433Y-28842D01*
X11471Y-28871D01*
X11490Y-28900D01*
X11509Y-28957D01*
X11509Y-29128D01*
X11490Y-29185D01*
X11471Y-29214D01*
X11433Y-29242D01*
X11376Y-29242D01*
X11852Y-29214D02*
X11814Y-29242D01*
X11738Y-29242D01*
X11700Y-29214D01*
X11680Y-29185D01*
X11661Y-29128D01*
X11661Y-28957D01*
X11680Y-28900D01*
X11700Y-28871D01*
X11738Y-28842D01*
X11814Y-28842D01*
X11852Y-28871D01*
X12080Y-29242D02*
X12042Y-29214D01*
X12023Y-29185D01*
X12004Y-29128D01*
X12004Y-28957D01*
X12023Y-28900D01*
X12042Y-28871D01*
X12080Y-28842D01*
X12138Y-28842D01*
X12176Y-28871D01*
X12195Y-28900D01*
X12214Y-28957D01*
X12214Y-29128D01*
X12195Y-29185D01*
X12176Y-29214D01*
X12138Y-29242D01*
X12080Y-29242D01*
X12557Y-28842D02*
X12557Y-29242D01*
X12385Y-28842D02*
X12385Y-29157D01*
X12404Y-29214D01*
X12442Y-29242D01*
X12500Y-29242D01*
X12538Y-29214D01*
X12557Y-29185D01*
X12747Y-28842D02*
X12747Y-29442D01*
X12747Y-28871D02*
X12785Y-28842D01*
X12861Y-28842D01*
X12900Y-28871D01*
X12919Y-28900D01*
X12938Y-28957D01*
X12938Y-29128D01*
X12919Y-29185D01*
X12900Y-29214D01*
X12861Y-29242D01*
X12785Y-29242D01*
X12747Y-29214D01*
X13166Y-29242D02*
X13128Y-29214D01*
X13109Y-29157D01*
X13109Y-28642D01*
X13471Y-29214D02*
X13433Y-29242D01*
X13357Y-29242D01*
X13319Y-29214D01*
X13300Y-29157D01*
X13300Y-28928D01*
X13319Y-28871D01*
X13357Y-28842D01*
X13433Y-28842D01*
X13471Y-28871D01*
X13490Y-28928D01*
X13490Y-28985D01*
X13300Y-29042D01*
G54D13*
X10871Y-34764D02*
X11328Y-34764D01*
X13014Y-30228D02*
X13014Y-29771D01*
X13242Y-29999D02*
X12785Y-29999D01*
G54D21*
X25535Y-30562D02*
X24830Y-30562D01*
X25535Y-30320D02*
X25132Y-30502D01*
X24830Y-30320D02*
X25233Y-30562D01*
X25535Y-29916D02*
X25535Y-30159D01*
X25535Y-30038D02*
X24830Y-30038D01*
X24931Y-30078D01*
X24998Y-30118D01*
X25031Y-30159D01*
G54D20*
X23838Y-34192D02*
X23914Y-34192D01*
X23952Y-34221D01*
X23990Y-34278D01*
X24009Y-34392D01*
X24009Y-34592D01*
X23990Y-34707D01*
X23952Y-34764D01*
X23914Y-34792D01*
X23838Y-34792D01*
X23800Y-34764D01*
X23761Y-34707D01*
X23742Y-34592D01*
X23742Y-34392D01*
X23761Y-34278D01*
X23800Y-34221D01*
X23838Y-34192D01*
X24180Y-34192D02*
X24180Y-34678D01*
X24200Y-34735D01*
X24219Y-34764D01*
X24257Y-34792D01*
X24333Y-34792D01*
X24371Y-34764D01*
X24390Y-34735D01*
X24409Y-34678D01*
X24409Y-34192D01*
X24542Y-34192D02*
X24771Y-34192D01*
X24657Y-34792D02*
X24657Y-34192D01*
X24904Y-34792D02*
X24904Y-34192D01*
X25057Y-34192D01*
X25095Y-34221D01*
X25114Y-34250D01*
X25133Y-34307D01*
X25133Y-34392D01*
X25114Y-34450D01*
X25095Y-34478D01*
X25057Y-34507D01*
X24904Y-34507D01*
X25304Y-34192D02*
X25304Y-34678D01*
X25323Y-34735D01*
X25342Y-34764D01*
X25380Y-34792D01*
X25457Y-34792D01*
X25495Y-34764D01*
X25514Y-34735D01*
X25533Y-34678D01*
X25533Y-34192D01*
X25666Y-34192D02*
X25895Y-34192D01*
X25780Y-34792D02*
X25780Y-34192D01*
G54D21*
X25535Y-21312D02*
X24830Y-21312D01*
X25535Y-21070D02*
X25132Y-21252D01*
X24830Y-21070D02*
X25233Y-21312D01*
X25535Y-20666D02*
X25535Y-20909D01*
X25535Y-20788D02*
X24830Y-20788D01*
X24931Y-20828D01*
X24998Y-20868D01*
X25031Y-20909D01*
G54D20*
X23838Y-24942D02*
X23914Y-24942D01*
X23952Y-24971D01*
X23990Y-25028D01*
X24009Y-25142D01*
X24009Y-25342D01*
X23990Y-25457D01*
X23952Y-25514D01*
X23914Y-25542D01*
X23838Y-25542D01*
X23800Y-25514D01*
X23761Y-25457D01*
X23742Y-25342D01*
X23742Y-25142D01*
X23761Y-25028D01*
X23800Y-24971D01*
X23838Y-24942D01*
X24180Y-24942D02*
X24180Y-25428D01*
X24200Y-25485D01*
X24219Y-25514D01*
X24257Y-25542D01*
X24333Y-25542D01*
X24371Y-25514D01*
X24390Y-25485D01*
X24409Y-25428D01*
X24409Y-24942D01*
X24542Y-24942D02*
X24771Y-24942D01*
X24657Y-25542D02*
X24657Y-24942D01*
X24904Y-25542D02*
X24904Y-24942D01*
X25057Y-24942D01*
X25095Y-24971D01*
X25114Y-25000D01*
X25133Y-25057D01*
X25133Y-25142D01*
X25114Y-25200D01*
X25095Y-25228D01*
X25057Y-25257D01*
X24904Y-25257D01*
X25304Y-24942D02*
X25304Y-25428D01*
X25323Y-25485D01*
X25342Y-25514D01*
X25380Y-25542D01*
X25457Y-25542D01*
X25495Y-25514D01*
X25514Y-25485D01*
X25533Y-25428D01*
X25533Y-24942D01*
X25666Y-24942D02*
X25895Y-24942D01*
X25780Y-25542D02*
X25780Y-24942D01*
G54D19*
X12675Y-25865D02*
X11994Y-25865D01*
X11994Y-25702D01*
X12027Y-25662D01*
X12059Y-25641D01*
X12124Y-25621D01*
X12221Y-25621D01*
X12286Y-25641D01*
X12318Y-25662D01*
X12351Y-25702D01*
X12351Y-25865D01*
X12675Y-25213D02*
X12675Y-25458D01*
X12675Y-25336D02*
X11994Y-25336D01*
X12091Y-25376D01*
X12156Y-25417D01*
X12189Y-25458D01*
G54D20*
X9471Y-19392D02*
X9700Y-19392D01*
X9585Y-19992D02*
X9585Y-19392D01*
X9833Y-19992D02*
X9833Y-19392D01*
X10004Y-19992D02*
X10004Y-19678D01*
X9985Y-19621D01*
X9947Y-19592D01*
X9890Y-19592D01*
X9852Y-19621D01*
X9833Y-19650D01*
X10347Y-19964D02*
X10309Y-19992D01*
X10233Y-19992D01*
X10195Y-19964D01*
X10176Y-19907D01*
X10176Y-19678D01*
X10195Y-19621D01*
X10233Y-19592D01*
X10309Y-19592D01*
X10347Y-19621D01*
X10366Y-19678D01*
X10366Y-19735D01*
X10176Y-19792D01*
X10538Y-19992D02*
X10538Y-19592D01*
X10538Y-19707D02*
X10557Y-19650D01*
X10576Y-19621D01*
X10614Y-19592D01*
X10652Y-19592D01*
X10785Y-19992D02*
X10785Y-19592D01*
X10785Y-19650D02*
X10804Y-19621D01*
X10842Y-19592D01*
X10900Y-19592D01*
X10938Y-19621D01*
X10957Y-19678D01*
X10957Y-19992D01*
X10957Y-19678D02*
X10976Y-19621D01*
X11014Y-19592D01*
X11071Y-19592D01*
X11109Y-19621D01*
X11128Y-19678D01*
X11128Y-19992D01*
X11376Y-19992D02*
X11338Y-19964D01*
X11319Y-19935D01*
X11300Y-19878D01*
X11300Y-19707D01*
X11319Y-19650D01*
X11338Y-19621D01*
X11376Y-19592D01*
X11433Y-19592D01*
X11471Y-19621D01*
X11490Y-19650D01*
X11509Y-19707D01*
X11509Y-19878D01*
X11490Y-19935D01*
X11471Y-19964D01*
X11433Y-19992D01*
X11376Y-19992D01*
X11852Y-19964D02*
X11814Y-19992D01*
X11738Y-19992D01*
X11700Y-19964D01*
X11680Y-19935D01*
X11661Y-19878D01*
X11661Y-19707D01*
X11680Y-19650D01*
X11700Y-19621D01*
X11738Y-19592D01*
X11814Y-19592D01*
X11852Y-19621D01*
X12080Y-19992D02*
X12042Y-19964D01*
X12023Y-19935D01*
X12004Y-19878D01*
X12004Y-19707D01*
X12023Y-19650D01*
X12042Y-19621D01*
X12080Y-19592D01*
X12138Y-19592D01*
X12176Y-19621D01*
X12195Y-19650D01*
X12214Y-19707D01*
X12214Y-19878D01*
X12195Y-19935D01*
X12176Y-19964D01*
X12138Y-19992D01*
X12080Y-19992D01*
X12557Y-19592D02*
X12557Y-19992D01*
X12385Y-19592D02*
X12385Y-19907D01*
X12404Y-19964D01*
X12442Y-19992D01*
X12500Y-19992D01*
X12538Y-19964D01*
X12557Y-19935D01*
X12747Y-19592D02*
X12747Y-20192D01*
X12747Y-19621D02*
X12785Y-19592D01*
X12861Y-19592D01*
X12900Y-19621D01*
X12919Y-19650D01*
X12938Y-19707D01*
X12938Y-19878D01*
X12919Y-19935D01*
X12900Y-19964D01*
X12861Y-19992D01*
X12785Y-19992D01*
X12747Y-19964D01*
X13166Y-19992D02*
X13128Y-19964D01*
X13109Y-19907D01*
X13109Y-19392D01*
X13471Y-19964D02*
X13433Y-19992D01*
X13357Y-19992D01*
X13319Y-19964D01*
X13300Y-19907D01*
X13300Y-19678D01*
X13319Y-19621D01*
X13357Y-19592D01*
X13433Y-19592D01*
X13471Y-19621D01*
X13490Y-19678D01*
X13490Y-19735D01*
X13300Y-19792D01*
G54D13*
X10871Y-25514D02*
X11328Y-25514D01*
X13014Y-20978D02*
X13014Y-20521D01*
X13242Y-20749D02*
X12785Y-20749D01*
G54D15*
X16166Y-21972D02*
X16000Y-21710D01*
X15880Y-21972D02*
X15880Y-21422D01*
X16071Y-21422D01*
X16119Y-21448D01*
X16142Y-21475D01*
X16166Y-21527D01*
X16166Y-21605D01*
X16142Y-21658D01*
X16119Y-21684D01*
X16071Y-21710D01*
X15880Y-21710D01*
X16357Y-21475D02*
X16380Y-21448D01*
X16428Y-21422D01*
X16547Y-21422D01*
X16595Y-21448D01*
X16619Y-21475D01*
X16642Y-21527D01*
X16642Y-21579D01*
X16619Y-21658D01*
X16333Y-21972D01*
X16642Y-21972D01*
X16166Y-24472D02*
X16000Y-24210D01*
X15880Y-24472D02*
X15880Y-23922D01*
X16071Y-23922D01*
X16119Y-23948D01*
X16142Y-23975D01*
X16166Y-24027D01*
X16166Y-24105D01*
X16142Y-24158D01*
X16119Y-24184D01*
X16071Y-24210D01*
X15880Y-24210D01*
X16333Y-23922D02*
X16642Y-23922D01*
X16476Y-24132D01*
X16547Y-24132D01*
X16595Y-24158D01*
X16619Y-24184D01*
X16642Y-24236D01*
X16642Y-24367D01*
X16619Y-24420D01*
X16595Y-24446D01*
X16547Y-24472D01*
X16404Y-24472D01*
X16357Y-24446D01*
X16333Y-24420D01*
X13722Y-24833D02*
X13460Y-25000D01*
X13722Y-25119D02*
X13172Y-25119D01*
X13172Y-24928D01*
X13198Y-24880D01*
X13225Y-24857D01*
X13277Y-24833D01*
X13355Y-24833D01*
X13408Y-24857D01*
X13434Y-24880D01*
X13460Y-24928D01*
X13460Y-25119D01*
X13722Y-24357D02*
X13722Y-24642D01*
X13722Y-24500D02*
X13172Y-24500D01*
X13251Y-24547D01*
X13303Y-24595D01*
X13329Y-24642D01*
X21166Y-20722D02*
X21000Y-20460D01*
X20880Y-20722D02*
X20880Y-20172D01*
X21071Y-20172D01*
X21119Y-20198D01*
X21142Y-20225D01*
X21166Y-20277D01*
X21166Y-20355D01*
X21142Y-20408D01*
X21119Y-20434D01*
X21071Y-20460D01*
X20880Y-20460D01*
X21595Y-20355D02*
X21595Y-20722D01*
X21476Y-20146D02*
X21357Y-20539D01*
X21666Y-20539D01*
G54D18*
X20049Y-23415D02*
X20049Y-23734D01*
X20068Y-23771D01*
X20087Y-23790D01*
X20124Y-23809D01*
X20199Y-23809D01*
X20237Y-23790D01*
X20256Y-23771D01*
X20274Y-23734D01*
X20274Y-23415D01*
X20668Y-23809D02*
X20443Y-23809D01*
X20556Y-23809D02*
X20556Y-23415D01*
X20518Y-23471D01*
X20481Y-23509D01*
X20443Y-23528D01*
G54D14*
X18408Y-25146D02*
X18596Y-25146D01*
X18371Y-25259D02*
X18502Y-24865D01*
X18633Y-25259D01*
X18765Y-25259D02*
X18765Y-24865D01*
X18858Y-24865D01*
X18915Y-24884D01*
X18952Y-24921D01*
X18971Y-24959D01*
X18990Y-25034D01*
X18990Y-25090D01*
X18971Y-25165D01*
X18952Y-25203D01*
X18915Y-25240D01*
X18858Y-25259D01*
X18765Y-25259D01*
X19215Y-25034D02*
X19177Y-25015D01*
X19159Y-24996D01*
X19140Y-24959D01*
X19140Y-24940D01*
X19159Y-24903D01*
X19177Y-24884D01*
X19215Y-24865D01*
X19290Y-24865D01*
X19328Y-24884D01*
X19346Y-24903D01*
X19365Y-24940D01*
X19365Y-24959D01*
X19346Y-24996D01*
X19328Y-25015D01*
X19290Y-25034D01*
X19215Y-25034D01*
X19177Y-25053D01*
X19159Y-25071D01*
X19140Y-25109D01*
X19140Y-25184D01*
X19159Y-25221D01*
X19177Y-25240D01*
X19215Y-25259D01*
X19290Y-25259D01*
X19328Y-25240D01*
X19346Y-25221D01*
X19365Y-25184D01*
X19365Y-25109D01*
X19346Y-25071D01*
X19328Y-25053D01*
X19290Y-25034D01*
X19703Y-24996D02*
X19703Y-25259D01*
X19609Y-24846D02*
X19515Y-25128D01*
X19759Y-25128D01*
X19928Y-25259D02*
X20003Y-25259D01*
X20041Y-25240D01*
X20059Y-25221D01*
X20097Y-25165D01*
X20116Y-25090D01*
X20116Y-24940D01*
X20097Y-24903D01*
X20078Y-24884D01*
X20041Y-24865D01*
X19965Y-24865D01*
X19928Y-24884D01*
X19909Y-24903D01*
X19890Y-24940D01*
X19890Y-25034D01*
X19909Y-25071D01*
X19928Y-25090D01*
X19965Y-25109D01*
X20041Y-25109D01*
X20078Y-25090D01*
X20097Y-25071D01*
X20116Y-25034D01*
X20472Y-24865D02*
X20284Y-24865D01*
X20266Y-25053D01*
X20284Y-25034D01*
X20322Y-25015D01*
X20416Y-25015D01*
X20453Y-25034D01*
X20472Y-25053D01*
X20491Y-25090D01*
X20491Y-25184D01*
X20472Y-25221D01*
X20453Y-25240D01*
X20416Y-25259D01*
X20322Y-25259D01*
X20284Y-25240D01*
X20266Y-25221D01*
G54D15*
X21741Y-26539D02*
X21725Y-26560D01*
X21675Y-26582D01*
X21641Y-26582D01*
X21591Y-26560D01*
X21558Y-26517D01*
X21541Y-26475D01*
X21525Y-26389D01*
X21525Y-26325D01*
X21541Y-26239D01*
X21558Y-26196D01*
X21591Y-26153D01*
X21641Y-26132D01*
X21675Y-26132D01*
X21725Y-26153D01*
X21741Y-26175D01*
X22058Y-26132D02*
X21891Y-26132D01*
X21875Y-26346D01*
X21891Y-26325D01*
X21925Y-26303D01*
X22008Y-26303D01*
X22041Y-26325D01*
X22058Y-26346D01*
X22075Y-26389D01*
X22075Y-26496D01*
X22058Y-26539D01*
X22041Y-26560D01*
X22008Y-26582D01*
X21925Y-26582D01*
X21891Y-26560D01*
X21875Y-26539D01*
G54D16*
X20278Y-26410D02*
X20621Y-26410D01*
X20450Y-26582D02*
X20450Y-26239D01*
G54D17*
G54D15*
X21691Y-23789D02*
X21675Y-23810D01*
X21625Y-23832D01*
X21591Y-23832D01*
X21541Y-23810D01*
X21508Y-23767D01*
X21491Y-23725D01*
X21475Y-23639D01*
X21475Y-23575D01*
X21491Y-23489D01*
X21508Y-23446D01*
X21541Y-23403D01*
X21591Y-23382D01*
X21625Y-23382D01*
X21675Y-23403D01*
X21691Y-23425D01*
X21991Y-23382D02*
X21925Y-23382D01*
X21891Y-23403D01*
X21875Y-23425D01*
X21841Y-23489D01*
X21825Y-23575D01*
X21825Y-23746D01*
X21841Y-23789D01*
X21858Y-23810D01*
X21891Y-23832D01*
X21958Y-23832D01*
X21991Y-23810D01*
X22008Y-23789D01*
X22025Y-23746D01*
X22025Y-23639D01*
X22008Y-23596D01*
X21991Y-23575D01*
X21958Y-23553D01*
X21891Y-23553D01*
X21858Y-23575D01*
X21841Y-23596D01*
X21825Y-23639D01*
G54D16*
X20578Y-21560D02*
X20921Y-21560D01*
X20750Y-21732D02*
X20750Y-21389D01*
G54D17*
G54D15*
X16858Y-23173D02*
X16839Y-23192D01*
X16782Y-23211D01*
X16744Y-23211D01*
X16686Y-23192D01*
X16648Y-23154D01*
X16629Y-23116D01*
X16610Y-23040D01*
X16610Y-22983D01*
X16629Y-22907D01*
X16648Y-22869D01*
X16686Y-22830D01*
X16744Y-22811D01*
X16782Y-22811D01*
X16839Y-22830D01*
X16858Y-22850D01*
X17010Y-22850D02*
X17029Y-22830D01*
X17067Y-22811D01*
X17163Y-22811D01*
X17201Y-22830D01*
X17220Y-22850D01*
X17239Y-22888D01*
X17239Y-22926D01*
X17220Y-22983D01*
X16991Y-23211D01*
X17239Y-23211D01*
X16508Y-25573D02*
X16489Y-25592D01*
X16432Y-25611D01*
X16394Y-25611D01*
X16336Y-25592D01*
X16298Y-25554D01*
X16279Y-25516D01*
X16260Y-25440D01*
X16260Y-25383D01*
X16279Y-25307D01*
X16298Y-25269D01*
X16336Y-25230D01*
X16394Y-25211D01*
X16432Y-25211D01*
X16489Y-25230D01*
X16508Y-25250D01*
X16641Y-25211D02*
X16889Y-25211D01*
X16755Y-25364D01*
X16813Y-25364D01*
X16851Y-25383D01*
X16870Y-25402D01*
X16889Y-25440D01*
X16889Y-25535D01*
X16870Y-25573D01*
X16851Y-25592D01*
X16813Y-25611D01*
X16698Y-25611D01*
X16660Y-25592D01*
X16641Y-25573D01*
X16858Y-20673D02*
X16839Y-20692D01*
X16782Y-20711D01*
X16744Y-20711D01*
X16686Y-20692D01*
X16648Y-20654D01*
X16629Y-20616D01*
X16610Y-20540D01*
X16610Y-20483D01*
X16629Y-20407D01*
X16648Y-20369D01*
X16686Y-20330D01*
X16744Y-20311D01*
X16782Y-20311D01*
X16839Y-20330D01*
X16858Y-20350D01*
X17239Y-20711D02*
X17010Y-20711D01*
X17125Y-20711D02*
X17125Y-20311D01*
X17086Y-20369D01*
X17048Y-20407D01*
X17010Y-20426D01*
X23923Y-23066D02*
X23942Y-23085D01*
X23961Y-23142D01*
X23961Y-23180D01*
X23942Y-23238D01*
X23904Y-23276D01*
X23866Y-23295D01*
X23790Y-23314D01*
X23733Y-23314D01*
X23657Y-23295D01*
X23619Y-23276D01*
X23580Y-23238D01*
X23561Y-23180D01*
X23561Y-23142D01*
X23580Y-23085D01*
X23600Y-23066D01*
X23695Y-22723D02*
X23961Y-22723D01*
X23542Y-22819D02*
X23828Y-22914D01*
X23828Y-22666D01*
M02*
